<svg width="43" height="43" viewBox="0 0 43 43" fill="none" xmlns="http://www.w3.org/2000/svg">
<mask id="mask0_339_439" style="mask-type:luminance" maskUnits="userSpaceOnUse" x="2" y="2" width="39" height="39">
<path d="M21.4987 39.4167C23.852 39.4196 26.1826 38.9574 28.3568 38.0569C30.5309 37.1563 32.5057 35.835 34.1676 34.1689C35.8337 32.5069 37.155 30.5322 38.0556 28.3581C38.9562 26.1839 39.4183 23.8533 39.4154 21.5C39.4183 19.1467 38.9562 16.8161 38.0556 14.6419C37.155 12.4678 35.8337 10.493 34.1676 8.83112C32.5057 7.16501 30.5309 5.84371 28.3568 4.94313C26.1826 4.04254 23.852 3.58042 21.4987 3.58333C19.1454 3.58042 16.8148 4.04254 14.6407 4.94313C12.4665 5.84371 10.4918 7.16501 8.82984 8.83112C7.16373 10.493 5.84243 12.4678 4.94184 14.6419C4.04126 16.8161 3.57914 19.1467 3.58204 21.5C3.57914 23.8533 4.04126 26.1839 4.94184 28.3581C5.84243 30.5322 7.16373 32.5069 8.82984 34.1689C10.4918 35.835 12.4665 37.1563 14.6407 38.0569C16.8148 38.9574 19.1454 39.4196 21.4987 39.4167Z" fill="white" stroke="white" stroke-width="2" stroke-linejoin="round"/>
<path d="M14.332 21.5L19.707 26.875L30.457 16.125" stroke="black" stroke-width="2" stroke-linecap="round" stroke-linejoin="round"/>
</mask>
<g mask="url(#mask0_339_439)">
<path d="M0 0H43V43H0V0Z" fill="#F60114"/>
</g>
</svg>
