<svg width="193" height="52" viewBox="0 0 193 52" fill="none" xmlns="http://www.w3.org/2000/svg">
<rect width="192.824" height="52" rx="8" fill="#0022B2"/>
<ellipse cx="153.545" cy="29.9091" rx="4.09089" ry="4.09091" fill="#A9B1BC"/>
<ellipse cx="25.0908" cy="29.9091" rx="4.09089" ry="4.09091" fill="#A9B1BC"/>
<mask id="path-4-outside-1_206_3138" maskUnits="userSpaceOnUse" x="10" y="5" width="173" height="40" fill="black">
<rect fill="white" x="10" y="5" width="173" height="40"/>
<path d="M132.359 26.7412C131.536 26.7413 130.789 27.0093 130.023 27.709C129.353 28.3886 129.057 29.1173 129.057 30.043C129.057 30.9381 129.349 31.664 130.044 32.3594C130.739 33.0545 131.464 33.3456 132.359 33.3457C133.547 33.3457 134.347 32.9509 135.012 32.0156L135.144 31.8213C135.635 31.0487 136.295 30.5082 137.021 30.1533C136.292 29.7488 135.702 29.1594 135.271 28.4531L135.246 28.4121L135.223 28.3711C134.58 27.2356 133.758 26.7412 132.359 26.7412ZM153.52 26.7412C152.603 26.7412 151.849 27.0418 151.123 27.7676C150.397 28.4934 150.096 29.2472 150.096 30.1641C150.096 30.9255 150.313 31.5323 150.819 32.0947L151.055 32.333L151.123 32.3994C151.701 32.9773 152.424 33.3057 153.52 33.3057C154.494 33.3056 155.19 33.0043 155.795 32.3994C156.359 31.8352 156.66 31.1585 156.66 30.1641C156.66 29.1287 156.347 28.3617 155.729 27.6982V27.6992C155.107 27.0349 154.431 26.7412 153.52 26.7412ZM119.336 38.1123C119.336 39.3899 118.823 40.4765 118.126 41.3232L118.039 41.4287L117.942 41.5254C117.014 42.4535 115.812 42.96 114.488 42.96C113.192 42.9599 111.993 42.4705 111.075 41.5244V41.5254C111.057 41.5071 111.039 41.4882 111.021 41.4697C111.017 41.465 111.012 41.4608 111.008 41.4561V41.4551C110.151 40.5658 109.642 39.4155 109.642 38.1123V36.8271H101.336C101.053 36.8271 100.758 36.8047 100.459 36.7578C100.044 38.0696 99.3233 39.2682 98.3301 40.3291L98.2988 40.3633L98.2656 40.3965C96.5536 42.1084 94.4085 43 91.9873 43C89.9595 42.9999 88.1075 42.3292 86.5098 41.0811C86.505 41.0774 86.4999 41.074 86.4951 41.0703C86.4926 41.0683 86.4899 41.0665 86.4873 41.0645V41.0635C85.811 40.5401 85.2236 39.9447 84.7285 39.2832C84.4699 39.6447 84.1837 39.9941 83.8701 40.3291L83.8389 40.3633L83.8057 40.3965C82.0938 42.1083 79.9493 42.9999 77.5283 43C75.5003 43 73.6477 42.3293 72.0498 41.0811C72.045 41.0774 72.0399 41.074 72.0352 41.0703C72.0326 41.0683 72.0299 41.0665 72.0273 41.0645V41.0635C70.9603 40.2377 70.1128 39.2338 69.5049 38.0713C69.5002 38.0844 69.497 38.0982 69.4922 38.1113C69.0577 39.306 68.1901 40.1446 67.3516 40.7236L67.2598 40.7871L67.1631 40.8428C65.6822 41.7017 64.2328 42.353 62.8457 42.6816L62.7207 42.7119L62.5938 42.7295L62.3105 42.7695L62.2861 42.7734L62.2617 42.7764L61.9385 42.8174L61.9043 42.8213L61.8691 42.8252L61.4658 42.8652L61.4404 42.8672L60.9971 42.9082L60.9629 42.9111L60.9287 42.9131L60.3232 42.9531L60.2295 42.96H59.5303C55.9772 42.96 52.865 41.6628 50.3477 39.1455C47.849 36.6469 46.5732 33.5446 46.5732 30.0029C46.5732 28.8818 46.6985 27.8044 46.9492 26.7764C46.2557 26.8738 45.6935 27.1707 45.1768 27.6875C44.4913 28.373 44.1905 29.1078 44.1904 30.043V38.1533C44.1903 39.4309 43.6768 40.5175 42.9795 41.3643L42.8926 41.4697L42.7969 41.5664C41.8984 42.4649 40.7204 43 39.3828 43C38.0863 42.9999 36.8873 42.5113 35.9697 41.5654C35.1698 40.7653 34.6582 39.7444 34.5557 38.5859C34.408 38.7476 34.2557 38.9073 34.0986 39.0645C31.5872 41.5759 28.4912 42.8788 24.957 42.8789C21.4039 42.8789 18.2918 41.5818 15.7744 39.0645C13.2758 36.5658 12 33.4635 12 29.9219C12.0001 26.3616 13.2702 23.2435 15.7744 20.7393C18.2787 18.2352 21.3968 16.9658 24.957 16.9658C26.0991 16.9658 27.2017 17.1044 28.2598 17.3779V11.8066C28.2599 10.529 28.7724 9.44245 29.4697 8.5957L29.6436 8.38477L29.8555 8.20996C30.7022 7.51274 31.7889 7 33.0664 7L33.3027 7.00586C34.4728 7.06202 35.4933 7.53146 36.3174 8.20996L36.5293 8.38477L36.7031 8.5957C37.4004 9.44245 37.913 10.529 37.9131 11.8066V21.3174C38.0545 21.1631 38.2005 21.0105 38.3506 20.8604C40.8492 18.3619 43.9516 17.0869 47.4932 17.0869L47.7285 17.0918C48.8212 17.1441 49.7835 17.5572 50.5771 18.1641L50.7441 18.2969L50.9561 18.4707L51.1299 18.6826C51.3599 18.962 51.569 19.2679 51.7471 19.5977C53.9798 17.9035 56.6056 17.0459 59.5303 17.0459C62.8956 17.0459 65.8841 18.1339 68.3213 20.3545H68.3223C68.8208 20.8032 69.2734 21.278 69.6816 21.7754C70.0881 21.0257 70.6123 20.3281 71.25 19.6904C72.962 17.9784 75.1071 17.0869 77.5283 17.0869C79.4079 17.087 81.1552 17.6237 82.708 18.6582L83.0156 18.8721L83.0459 18.8936L83.0762 18.916C83.7497 19.4292 84.3527 20.0169 84.8467 20.6816C85.1063 20.3373 85.3941 20.0063 85.71 19.6904C87.4219 17.9785 89.5663 17.087 91.9873 17.0869C93.8671 17.0869 95.615 17.6236 97.168 18.6582L97.4756 18.8721L97.5059 18.8936L97.5361 18.916C99.0292 20.0536 100.174 21.5575 100.551 23.457C100.656 23.867 100.681 24.2572 100.666 24.6006L110.661 10.7559L110.794 10.5713L111.035 10.3301L111.282 10.0977C111.879 9.56888 112.625 9.14005 113.521 8.96094C114.508 8.76354 115.444 8.91814 116.255 9.24121C117.118 9.5455 117.948 10.0932 118.54 10.9717C119.145 11.8693 119.336 12.8619 119.336 13.7432V27.3438C119.452 27.3793 119.567 27.4184 119.68 27.4619C120.154 24.9642 121.339 22.7394 123.218 20.8604C125.716 18.362 128.818 17.087 132.359 17.0869C134.685 17.0869 136.875 17.6748 138.874 18.8467C140.501 19.7376 141.852 20.9805 142.939 22.5146C143.343 21.9672 143.796 21.4424 144.297 20.9414C146.82 18.4184 149.948 17.127 153.52 17.127C157.094 17.127 160.205 18.422 162.662 20.9834H162.663C163.463 21.8181 164.129 22.7201 164.662 23.6807C165.238 22.6736 165.963 21.7314 166.834 20.8604C169.333 18.3617 172.435 17.0869 175.977 17.0869L176.213 17.0918C177.305 17.1442 178.267 17.5574 179.061 18.1641L179.229 18.2969L179.439 18.4707L179.613 18.6826C180.311 19.5294 180.824 20.6158 180.824 21.8936C180.824 23.1713 180.311 24.2577 179.613 25.1045L179.526 25.21L179.43 25.3066C178.502 26.2346 177.3 26.7412 175.977 26.7412C175.022 26.7412 174.307 27.0422 173.661 27.6875C172.976 28.3731 172.674 29.1077 172.674 30.043V38.1533C172.674 39.4309 172.161 40.5175 171.464 41.3643L171.377 41.4697L171.28 41.5664C170.382 42.4647 169.205 43 167.867 43C166.657 43 165.531 42.574 164.641 41.748C163.712 42.5589 162.577 42.9199 161.427 42.9199C160.252 42.9198 159.295 42.4075 158.612 41.8936C157.045 42.5821 155.336 42.9199 153.52 42.9199C149.977 42.9199 146.857 41.7219 144.339 39.3076H144.338C143.788 38.7803 143.298 38.2223 142.865 37.6367C141.742 39.2201 140.306 40.4885 138.578 41.4141L138.577 41.4131C136.668 42.4769 134.578 43 132.359 43C128.825 42.9999 125.729 41.697 123.218 39.1855C122.212 38.1798 121.404 37.0764 120.798 35.8857C120.352 36.2152 119.861 36.4631 119.336 36.6211V38.1123ZM21.6543 29.9219C21.6543 30.705 21.877 31.3588 22.3984 31.9756L22.6406 32.2383L22.6523 32.249L22.6631 32.2607C23.3135 32.926 24.0232 33.2246 24.957 33.2246C25.8923 33.2246 26.6278 32.9239 27.3135 32.2383C27.9587 31.593 28.2598 30.8762 28.2598 29.9219V29.8818C28.2597 29.0646 27.9939 28.323 27.3057 27.5635C26.5585 26.8908 25.8086 26.6202 24.957 26.6201C24.0026 26.6201 23.286 26.921 22.6406 27.5664C21.9553 28.2519 21.6544 28.9868 21.6543 29.9219Z"/>
</mask>
<path d="M132.359 26.7412C131.536 26.7413 130.789 27.0093 130.023 27.709C129.353 28.3886 129.057 29.1173 129.057 30.043C129.057 30.9381 129.349 31.664 130.044 32.3594C130.739 33.0545 131.464 33.3456 132.359 33.3457C133.547 33.3457 134.347 32.9509 135.012 32.0156L135.144 31.8213C135.635 31.0487 136.295 30.5082 137.021 30.1533C136.292 29.7488 135.702 29.1594 135.271 28.4531L135.246 28.4121L135.223 28.3711C134.58 27.2356 133.758 26.7412 132.359 26.7412ZM153.52 26.7412C152.603 26.7412 151.849 27.0418 151.123 27.7676C150.397 28.4934 150.096 29.2472 150.096 30.1641C150.096 30.9255 150.313 31.5323 150.819 32.0947L151.055 32.333L151.123 32.3994C151.701 32.9773 152.424 33.3057 153.52 33.3057C154.494 33.3056 155.19 33.0043 155.795 32.3994C156.359 31.8352 156.66 31.1585 156.66 30.1641C156.66 29.1287 156.347 28.3617 155.729 27.6982V27.6992C155.107 27.0349 154.431 26.7412 153.52 26.7412ZM119.336 38.1123C119.336 39.3899 118.823 40.4765 118.126 41.3232L118.039 41.4287L117.942 41.5254C117.014 42.4535 115.812 42.96 114.488 42.96C113.192 42.9599 111.993 42.4705 111.075 41.5244V41.5254C111.057 41.5071 111.039 41.4882 111.021 41.4697C111.017 41.465 111.012 41.4608 111.008 41.4561V41.4551C110.151 40.5658 109.642 39.4155 109.642 38.1123V36.8271H101.336C101.053 36.8271 100.758 36.8047 100.459 36.7578C100.044 38.0696 99.3233 39.2682 98.3301 40.3291L98.2988 40.3633L98.2656 40.3965C96.5536 42.1084 94.4085 43 91.9873 43C89.9595 42.9999 88.1075 42.3292 86.5098 41.0811C86.505 41.0774 86.4999 41.074 86.4951 41.0703C86.4926 41.0683 86.4899 41.0665 86.4873 41.0645V41.0635C85.811 40.5401 85.2236 39.9447 84.7285 39.2832C84.4699 39.6447 84.1837 39.9941 83.8701 40.3291L83.8389 40.3633L83.8057 40.3965C82.0938 42.1083 79.9493 42.9999 77.5283 43C75.5003 43 73.6477 42.3293 72.0498 41.0811C72.045 41.0774 72.0399 41.074 72.0352 41.0703C72.0326 41.0683 72.0299 41.0665 72.0273 41.0645V41.0635C70.9603 40.2377 70.1128 39.2338 69.5049 38.0713C69.5002 38.0844 69.497 38.0982 69.4922 38.1113C69.0577 39.306 68.1901 40.1446 67.3516 40.7236L67.2598 40.7871L67.1631 40.8428C65.6822 41.7017 64.2328 42.353 62.8457 42.6816L62.7207 42.7119L62.5938 42.7295L62.3105 42.7695L62.2861 42.7734L62.2617 42.7764L61.9385 42.8174L61.9043 42.8213L61.8691 42.8252L61.4658 42.8652L61.4404 42.8672L60.9971 42.9082L60.9629 42.9111L60.9287 42.9131L60.3232 42.9531L60.2295 42.96H59.5303C55.9772 42.96 52.865 41.6628 50.3477 39.1455C47.849 36.6469 46.5732 33.5446 46.5732 30.0029C46.5732 28.8818 46.6985 27.8044 46.9492 26.7764C46.2557 26.8738 45.6935 27.1707 45.1768 27.6875C44.4913 28.373 44.1905 29.1078 44.1904 30.043V38.1533C44.1903 39.4309 43.6768 40.5175 42.9795 41.3643L42.8926 41.4697L42.7969 41.5664C41.8984 42.4649 40.7204 43 39.3828 43C38.0863 42.9999 36.8873 42.5113 35.9697 41.5654C35.1698 40.7653 34.6582 39.7444 34.5557 38.5859C34.408 38.7476 34.2557 38.9073 34.0986 39.0645C31.5872 41.5759 28.4912 42.8788 24.957 42.8789C21.4039 42.8789 18.2918 41.5818 15.7744 39.0645C13.2758 36.5658 12 33.4635 12 29.9219C12.0001 26.3616 13.2702 23.2435 15.7744 20.7393C18.2787 18.2352 21.3968 16.9658 24.957 16.9658C26.0991 16.9658 27.2017 17.1044 28.2598 17.3779V11.8066C28.2599 10.529 28.7724 9.44245 29.4697 8.5957L29.6436 8.38477L29.8555 8.20996C30.7022 7.51274 31.7889 7 33.0664 7L33.3027 7.00586C34.4728 7.06202 35.4933 7.53146 36.3174 8.20996L36.5293 8.38477L36.7031 8.5957C37.4004 9.44245 37.913 10.529 37.9131 11.8066V21.3174C38.0545 21.1631 38.2005 21.0105 38.3506 20.8604C40.8492 18.3619 43.9516 17.0869 47.4932 17.0869L47.7285 17.0918C48.8212 17.1441 49.7835 17.5572 50.5771 18.1641L50.7441 18.2969L50.9561 18.4707L51.1299 18.6826C51.3599 18.962 51.569 19.2679 51.7471 19.5977C53.9798 17.9035 56.6056 17.0459 59.5303 17.0459C62.8956 17.0459 65.8841 18.1339 68.3213 20.3545H68.3223C68.8208 20.8032 69.2734 21.278 69.6816 21.7754C70.0881 21.0257 70.6123 20.3281 71.25 19.6904C72.962 17.9784 75.1071 17.0869 77.5283 17.0869C79.4079 17.087 81.1552 17.6237 82.708 18.6582L83.0156 18.8721L83.0459 18.8936L83.0762 18.916C83.7497 19.4292 84.3527 20.0169 84.8467 20.6816C85.1063 20.3373 85.3941 20.0063 85.71 19.6904C87.4219 17.9785 89.5663 17.087 91.9873 17.0869C93.8671 17.0869 95.615 17.6236 97.168 18.6582L97.4756 18.8721L97.5059 18.8936L97.5361 18.916C99.0292 20.0536 100.174 21.5575 100.551 23.457C100.656 23.867 100.681 24.2572 100.666 24.6006L110.661 10.7559L110.794 10.5713L111.035 10.3301L111.282 10.0977C111.879 9.56888 112.625 9.14005 113.521 8.96094C114.508 8.76354 115.444 8.91814 116.255 9.24121C117.118 9.5455 117.948 10.0932 118.54 10.9717C119.145 11.8693 119.336 12.8619 119.336 13.7432V27.3438C119.452 27.3793 119.567 27.4184 119.68 27.4619C120.154 24.9642 121.339 22.7394 123.218 20.8604C125.716 18.362 128.818 17.087 132.359 17.0869C134.685 17.0869 136.875 17.6748 138.874 18.8467C140.501 19.7376 141.852 20.9805 142.939 22.5146C143.343 21.9672 143.796 21.4424 144.297 20.9414C146.82 18.4184 149.948 17.127 153.52 17.127C157.094 17.127 160.205 18.422 162.662 20.9834H162.663C163.463 21.8181 164.129 22.7201 164.662 23.6807C165.238 22.6736 165.963 21.7314 166.834 20.8604C169.333 18.3617 172.435 17.0869 175.977 17.0869L176.213 17.0918C177.305 17.1442 178.267 17.5574 179.061 18.1641L179.229 18.2969L179.439 18.4707L179.613 18.6826C180.311 19.5294 180.824 20.6158 180.824 21.8936C180.824 23.1713 180.311 24.2577 179.613 25.1045L179.526 25.21L179.43 25.3066C178.502 26.2346 177.3 26.7412 175.977 26.7412C175.022 26.7412 174.307 27.0422 173.661 27.6875C172.976 28.3731 172.674 29.1077 172.674 30.043V38.1533C172.674 39.4309 172.161 40.5175 171.464 41.3643L171.377 41.4697L171.28 41.5664C170.382 42.4647 169.205 43 167.867 43C166.657 43 165.531 42.574 164.641 41.748C163.712 42.5589 162.577 42.9199 161.427 42.9199C160.252 42.9198 159.295 42.4075 158.612 41.8936C157.045 42.5821 155.336 42.9199 153.52 42.9199C149.977 42.9199 146.857 41.7219 144.339 39.3076H144.338C143.788 38.7803 143.298 38.2223 142.865 37.6367C141.742 39.2201 140.306 40.4885 138.578 41.4141L138.577 41.4131C136.668 42.4769 134.578 43 132.359 43C128.825 42.9999 125.729 41.697 123.218 39.1855C122.212 38.1798 121.404 37.0764 120.798 35.8857C120.352 36.2152 119.861 36.4631 119.336 36.6211V38.1123ZM21.6543 29.9219C21.6543 30.705 21.877 31.3588 22.3984 31.9756L22.6406 32.2383L22.6523 32.249L22.6631 32.2607C23.3135 32.926 24.0232 33.2246 24.957 33.2246C25.8923 33.2246 26.6278 32.9239 27.3135 32.2383C27.9587 31.593 28.2598 30.8762 28.2598 29.9219V29.8818C28.2597 29.0646 27.9939 28.323 27.3057 27.5635C26.5585 26.8908 25.8086 26.6202 24.957 26.6201C24.0026 26.6201 23.286 26.921 22.6406 27.5664C21.9553 28.2519 21.6544 28.9868 21.6543 29.9219Z" fill="white"/>
<path d="M132.359 26.7412V24.7412H132.359L132.359 26.7412ZM130.023 27.709L128.674 26.2328C128.649 26.256 128.624 26.2797 128.6 26.3041L130.023 27.709ZM129.057 30.043L127.057 30.0428V30.043H129.057ZM130.044 32.3594L128.63 33.7736L128.63 33.7737L130.044 32.3594ZM132.359 33.3457L132.359 35.3457H132.359V33.3457ZM135.012 32.0156L136.642 33.1745C136.65 33.1626 136.659 33.1505 136.667 33.1384L135.012 32.0156ZM135.144 31.8213L136.799 32.9441C136.81 32.9276 136.821 32.911 136.831 32.8943L135.144 31.8213ZM137.021 30.1533L137.9 31.9502C138.569 31.6228 139.001 30.9503 139.021 30.2052C139.04 29.46 138.643 28.766 137.992 28.4044L137.021 30.1533ZM135.271 28.4531L133.552 29.4761C133.556 29.4828 133.56 29.4895 133.564 29.4961L135.271 28.4531ZM135.246 28.4121L133.51 29.4044C133.515 29.4147 133.521 29.4249 133.528 29.4351L135.246 28.4121ZM135.223 28.3711L133.482 29.356L133.486 29.3634L135.223 28.3711ZM153.52 26.7412L153.52 24.7412H153.52V26.7412ZM151.123 27.7676L149.709 26.3533L149.709 26.3534L151.123 27.7676ZM150.096 30.1641L148.096 30.1639V30.1641H150.096ZM150.819 32.0947L149.333 33.4331C149.354 33.4559 149.375 33.4783 149.396 33.5002L150.819 32.0947ZM151.055 32.333L149.632 33.7384C149.641 33.7483 149.651 33.758 149.661 33.7676L151.055 32.333ZM151.123 32.3994L152.537 30.9852C152.53 30.9784 152.524 30.9716 152.517 30.9649L151.123 32.3994ZM153.52 33.3057V35.3057H153.52L153.52 33.3057ZM155.795 32.3994L157.209 33.8136L157.209 33.8136L155.795 32.3994ZM156.66 30.1641H158.66V30.1639L156.66 30.1641ZM155.729 27.6982L157.191 26.3341C156.631 25.7333 155.76 25.5363 154.995 25.8375C154.231 26.1386 153.729 26.8766 153.729 27.6982H155.729ZM155.729 27.6992L154.268 29.065C154.828 29.6649 155.699 29.861 156.463 29.5596C157.227 29.2582 157.729 28.5204 157.729 27.6992H155.729ZM118.126 41.3232L119.669 42.5952L119.67 42.5945L118.126 41.3232ZM118.039 41.4287L119.453 42.8429C119.499 42.7976 119.542 42.7501 119.583 42.7006L118.039 41.4287ZM117.942 41.5254L119.357 42.9396V42.9396L117.942 41.5254ZM114.488 42.96L114.488 44.96H114.488V42.96ZM111.075 41.5244L112.511 40.132C111.944 39.5473 111.079 39.3649 110.324 39.6709C109.569 39.9768 109.075 40.7099 109.075 41.5244H111.075ZM111.075 41.5254L109.661 42.9395C110.233 43.5116 111.093 43.6827 111.84 43.3732C112.588 43.0636 113.075 42.3343 113.075 41.5254H111.075ZM111.021 41.4697L109.565 42.8401C109.572 42.8478 109.579 42.8555 109.587 42.8631L111.021 41.4697ZM111.008 41.4561H109.008C109.008 41.9627 109.2 42.4505 109.546 42.8208L111.008 41.4561ZM111.008 41.4551H113.008C113.008 40.9374 112.807 40.4399 112.448 40.0671L111.008 41.4551ZM109.642 36.8271H111.642C111.642 35.7226 110.746 34.8271 109.642 34.8271V36.8271ZM101.336 36.8271L101.336 38.8271H101.336V36.8271ZM100.459 36.7578L100.768 34.7818C99.7918 34.6291 98.8502 35.2124 98.5521 36.1546L100.459 36.7578ZM98.3301 40.3291L96.87 38.9623C96.8647 38.968 96.8593 38.9738 96.854 38.9796L98.3301 40.3291ZM98.2988 40.3633L99.713 41.7775C99.7341 41.7564 99.7548 41.7348 99.7749 41.7128L98.2988 40.3633ZM98.2656 40.3965L99.6798 41.8107L99.6798 41.8107L98.2656 40.3965ZM91.9873 43L91.9872 45H91.9873V43ZM86.5098 41.0811L87.741 39.505C87.7371 39.5019 87.7332 39.4989 87.7293 39.4959L86.5098 41.0811ZM86.4951 41.0703L85.2611 42.6442C85.2649 42.6472 85.2688 42.6502 85.2727 42.6532L86.4951 41.0703ZM86.4873 41.0645H84.4873C84.4873 41.6782 84.7691 42.258 85.2517 42.6371L86.4873 41.0645ZM86.4873 41.0635H88.4873C88.4873 40.4446 88.2008 39.8606 87.7114 39.4818L86.4873 41.0635ZM84.7285 39.2832L86.3297 38.0848C85.9475 37.5742 85.3447 37.2764 84.7069 37.2833C84.0692 37.2902 83.4729 37.6009 83.1018 38.1196L84.7285 39.2832ZM83.8701 40.3291L82.4101 38.9623C82.4047 38.968 82.3994 38.9738 82.3941 38.9796L83.8701 40.3291ZM83.8389 40.3633L85.2531 41.7775C85.2742 41.7564 85.2948 41.7348 85.3149 41.7128L83.8389 40.3633ZM83.8057 40.3965L85.2198 41.8107L85.2199 41.8107L83.8057 40.3965ZM77.5283 43V45H77.5284L77.5283 43ZM72.0498 41.0811L73.281 39.505C73.2772 39.5019 73.2733 39.4989 73.2694 39.4959L72.0498 41.0811ZM72.0352 41.0703L70.8011 42.6442C70.8049 42.6472 70.8088 42.6502 70.8127 42.6532L72.0352 41.0703ZM72.0273 41.0645H70.0273C70.0273 41.6782 70.3091 42.258 70.7917 42.6371L72.0273 41.0645ZM72.0273 41.0635H74.0273C74.0273 40.4446 73.7408 39.8606 73.2514 39.4818L72.0273 41.0635ZM69.5049 38.0713L71.2772 37.1445C70.9084 36.4393 70.1566 36.0198 69.3628 36.0763C68.569 36.1329 67.8843 36.6546 67.6191 37.405L69.5049 38.0713ZM69.4922 38.1113L71.3718 38.7948L71.3718 38.7948L69.4922 38.1113ZM67.3516 40.7236L66.2151 39.0779L66.2141 39.0786L67.3516 40.7236ZM67.2598 40.7871L68.2577 42.5204C68.3054 42.4929 68.352 42.4634 68.3973 42.4321L67.2598 40.7871ZM67.1631 40.8428L66.1652 39.1095L66.1597 39.1127L67.1631 40.8428ZM62.8457 42.6816L62.3847 40.7355L62.3749 40.7378L62.8457 42.6816ZM62.7207 42.7119L62.995 44.693C63.0611 44.6839 63.1266 44.6714 63.1915 44.6557L62.7207 42.7119ZM62.5938 42.7295L62.3194 40.7484L62.3138 40.7492L62.5938 42.7295ZM62.3105 42.7695L62.0306 40.7892C62.0186 40.7909 62.0065 40.7927 61.9946 40.7947L62.3105 42.7695ZM62.2861 42.7734L62.5244 44.7592C62.5504 44.7561 62.5763 44.7524 62.6021 44.7483L62.2861 42.7734ZM62.2617 42.7764L62.0234 40.7906L62.01 40.7923L62.2617 42.7764ZM61.9385 42.8174L62.1656 44.8044C62.1738 44.8035 62.182 44.8025 62.1902 44.8015L61.9385 42.8174ZM61.9043 42.8213L62.1252 44.8091L62.1314 44.8084L61.9043 42.8213ZM61.8691 42.8252L62.0667 44.8154C62.0745 44.8146 62.0822 44.8138 62.09 44.813L61.8691 42.8252ZM61.4658 42.8652L61.6192 44.8593C61.634 44.8582 61.6487 44.8569 61.6634 44.8554L61.4658 42.8652ZM61.4404 42.8672L61.287 40.8731C61.2767 40.8739 61.2665 40.8747 61.2562 40.8757L61.4404 42.8672ZM60.9971 42.9082L61.1679 44.9009L61.1813 44.8997L60.9971 42.9082ZM60.9629 42.9111L61.077 44.9079C61.0959 44.9068 61.1148 44.9054 61.1337 44.9038L60.9629 42.9111ZM60.9287 42.9131L60.8146 40.9163C60.8087 40.9167 60.8027 40.917 60.7967 40.9174L60.9287 42.9131ZM60.3232 42.9531L60.1913 40.9574L60.1778 40.9584L60.3232 42.9531ZM60.2295 42.96V44.96C60.278 44.96 60.3265 44.9582 60.3749 44.9547L60.2295 42.96ZM50.3477 39.1455L48.9334 40.5597L48.9335 40.5597L50.3477 39.1455ZM46.5732 30.0029L44.5732 30.0029V30.0029H46.5732ZM46.9492 26.7764L48.8923 27.2502C49.0494 26.6061 48.877 25.926 48.4321 25.4344C47.9872 24.9428 47.3276 24.7036 46.671 24.7958L46.9492 26.7764ZM45.1768 27.6875L43.7625 26.2733L43.7624 26.2734L45.1768 27.6875ZM44.1904 30.043L42.1904 30.0428V30.043H44.1904ZM44.1904 38.1533L46.1904 38.1535V38.1533H44.1904ZM42.9795 41.3643L44.5229 42.6362L44.5234 42.6357L42.9795 41.3643ZM42.8926 41.4697L44.314 42.8767C44.3567 42.8336 44.3974 42.7885 44.436 42.7416L42.8926 41.4697ZM42.7969 41.5664L44.2111 42.9806L44.2183 42.9734L42.7969 41.5664ZM39.3828 43L39.3827 45H39.3828V43ZM35.9697 41.5654L37.4052 40.1728C37.3983 40.1656 37.3912 40.1585 37.3841 40.1514L35.9697 41.5654ZM34.5557 38.5859L36.5479 38.4096C36.4779 37.6194 35.9476 36.9452 35.196 36.6912C34.4444 36.4372 33.6138 36.6514 33.0788 37.2372L34.5557 38.5859ZM34.0986 39.0645L35.5128 40.4787L35.5128 40.4787L34.0986 39.0645ZM24.957 42.8789V44.8789H24.9571L24.957 42.8789ZM15.7744 39.0645L14.3602 40.4787L14.3602 40.4787L15.7744 39.0645ZM12 29.9219L10 29.9218V29.9219H12ZM15.7744 20.7393L14.3602 19.325L14.3602 19.325L15.7744 20.7393ZM24.957 16.9658L24.9571 14.9658H24.957V16.9658ZM28.2598 17.3779L27.7592 19.3143C28.3582 19.4691 28.9951 19.338 29.4843 18.9592C29.9734 18.5805 30.2598 17.9966 30.2598 17.3779H28.2598ZM28.2598 11.8066L26.2598 11.8065V11.8066H28.2598ZM29.4697 8.5957L27.9263 7.32379L27.9259 7.32429L29.4697 8.5957ZM29.6436 8.38477L28.3709 6.84193C28.2722 6.92337 28.1815 7.01409 28.1001 7.11285L29.6436 8.38477ZM29.8555 8.20996L28.5842 6.666L28.5828 6.66713L29.8555 8.20996ZM33.0664 7L33.116 5.00061C33.0995 5.0002 33.0829 5 33.0664 5V7ZM33.3027 7.00586L33.3986 5.00816C33.3832 5.00742 33.3677 5.00686 33.3523 5.00647L33.3027 7.00586ZM36.3174 8.20996L37.59 6.66713L37.5887 6.66599L36.3174 8.20996ZM36.5293 8.38477L38.0727 7.11285C37.9914 7.01409 37.9007 6.92337 37.802 6.84193L36.5293 8.38477ZM36.7031 8.5957L38.247 7.32429L38.2466 7.32379L36.7031 8.5957ZM37.9131 11.8066H39.9131V11.8065L37.9131 11.8066ZM37.9131 21.3174H35.9131C35.9131 22.1422 36.4194 22.8824 37.1882 23.1814C37.9569 23.4803 38.8303 23.2767 39.3876 22.6687L37.9131 21.3174ZM38.3506 20.8604L36.9364 19.4461L36.9364 19.4461L38.3506 20.8604ZM47.4932 17.0869L47.5346 15.0873C47.5208 15.0871 47.507 15.0869 47.4932 15.0869V17.0869ZM47.7285 17.0918L47.8241 15.0941C47.8061 15.0932 47.788 15.0926 47.77 15.0922L47.7285 17.0918ZM50.5771 18.1641L51.8221 16.5988C51.8121 16.5908 51.8021 16.583 51.792 16.5753L50.5771 18.1641ZM50.7441 18.2969L52.0126 16.7505C52.0048 16.7442 51.9969 16.7378 51.9891 16.7316L50.7441 18.2969ZM50.9561 18.4707L52.5024 17.2023C52.4191 17.1008 52.326 17.0077 52.2245 16.9244L50.9561 18.4707ZM51.1299 18.6826L49.5836 19.951L49.5859 19.9539L51.1299 18.6826ZM51.7471 19.5977L49.9873 20.548C50.2647 21.0618 50.753 21.4287 51.3237 21.5523C51.8945 21.676 52.4908 21.5439 52.956 21.1909L51.7471 19.5977ZM59.5303 17.0459L59.5303 15.0459H59.5303V17.0459ZM68.3213 20.3545L66.9743 21.8329C67.3426 22.1685 67.823 22.3545 68.3213 22.3545V20.3545ZM68.3223 20.3545L69.6602 18.8679C69.2929 18.5374 68.8163 18.3545 68.3223 18.3545V20.3545ZM69.6816 21.7754L68.1356 23.0442C68.5581 23.5589 69.2089 23.8296 69.8718 23.7663C70.5346 23.703 71.1225 23.314 71.4398 22.7287L69.6816 21.7754ZM71.25 19.6904L69.8358 18.2762L69.8358 18.2762L71.25 19.6904ZM77.5283 17.0869L77.5284 15.0869H77.5283V17.0869ZM82.708 18.6582L83.8497 17.0161C83.8388 17.0085 83.8279 17.0011 83.8169 16.9938L82.708 18.6582ZM83.0156 18.8721L84.1731 17.2411C84.1679 17.2373 84.1626 17.2336 84.1573 17.2299L83.0156 18.8721ZM83.0459 18.8936L84.2376 17.2874C84.2263 17.279 84.2149 17.2707 84.2034 17.2625L83.0459 18.8936ZM83.0762 18.916L84.2883 17.3252C84.2815 17.32 84.2747 17.3149 84.2679 17.3098L83.0762 18.916ZM84.8467 20.6816L83.2414 21.8746C83.6173 22.3804 84.2096 22.6795 84.8398 22.6816C85.47 22.6838 86.0643 22.3888 86.4437 21.8856L84.8467 20.6816ZM85.71 19.6904L84.2958 18.2762L84.2957 18.2762L85.71 19.6904ZM91.9873 17.0869V15.0869H91.9872L91.9873 17.0869ZM97.168 18.6582L98.3096 17.0161C98.2988 17.0085 98.2879 17.0011 98.2769 16.9938L97.168 18.6582ZM97.4756 18.8721L98.6331 17.2411C98.6278 17.2373 98.6226 17.2336 98.6173 17.2299L97.4756 18.8721ZM97.5059 18.8936L98.6976 17.2874C98.6862 17.279 98.6748 17.2707 98.6634 17.2625L97.5059 18.8936ZM97.5361 18.916L98.7483 17.3252C98.7415 17.32 98.7347 17.3149 98.7278 17.3098L97.5361 18.916ZM100.551 23.457L98.5891 23.8467C98.5964 23.8832 98.6046 23.9194 98.6139 23.9555L100.551 23.457ZM100.666 24.6006L98.668 24.5115C98.6286 25.3946 99.1737 26.1989 100.009 26.4895C100.844 26.78 101.77 26.488 102.288 25.7713L100.666 24.6006ZM110.661 10.7559L112.283 11.9265L112.285 11.924L110.661 10.7559ZM110.794 10.5713L109.38 9.15708C109.303 9.23332 109.234 9.31561 109.171 9.40313L110.794 10.5713ZM111.035 10.3301L109.665 8.87334C109.65 8.88729 109.635 8.90147 109.621 8.91586L111.035 10.3301ZM111.282 10.0977L109.956 8.6006C109.941 8.61382 109.926 8.62726 109.912 8.64092L111.282 10.0977ZM113.521 8.96094L113.128 6.99974L113.128 6.99978L113.521 8.96094ZM116.255 9.24121L115.515 11.0993C115.54 11.1092 115.565 11.1186 115.59 11.1275L116.255 9.24121ZM118.54 10.9717L120.199 9.85398L120.199 9.8539L118.54 10.9717ZM119.336 13.7432H121.336V13.743L119.336 13.7432ZM119.336 27.3438H117.336C117.336 28.2237 117.911 29.0003 118.753 29.2569L119.336 27.3438ZM119.68 27.4619L118.958 29.3271C119.512 29.5414 120.132 29.4986 120.651 29.2103C121.17 28.9221 121.534 28.4182 121.645 27.8349L119.68 27.4619ZM123.218 20.8604L121.804 19.4461L121.804 19.4461L123.218 20.8604ZM132.359 17.0869V15.0869H132.359L132.359 17.0869ZM138.874 18.8467L137.863 20.5721C137.879 20.5819 137.896 20.5915 137.913 20.6008L138.874 18.8467ZM142.939 22.5146L141.308 23.671C141.679 24.1948 142.279 24.5086 142.921 24.5146C143.563 24.5205 144.169 24.2179 144.55 23.7011L142.939 22.5146ZM144.297 20.9414L142.883 19.5272L142.883 19.5272L144.297 20.9414ZM153.52 17.127L153.52 15.127H153.52V17.127ZM162.662 20.9834L161.219 22.3681C161.596 22.7612 162.117 22.9834 162.662 22.9834V20.9834ZM162.663 20.9834L164.107 19.5992C163.729 19.2058 163.208 18.9834 162.663 18.9834V20.9834ZM164.662 23.6807L162.914 24.6519C163.264 25.283 163.928 25.6762 164.65 25.6806C165.372 25.685 166.04 25.3 166.398 24.6732L164.662 23.6807ZM166.834 20.8604L168.248 22.2746V22.2746L166.834 20.8604ZM175.977 17.0869L176.018 15.0873C176.004 15.0871 175.99 15.0869 175.977 15.0869V17.0869ZM176.213 17.0918L176.309 15.0941C176.291 15.0932 176.272 15.0926 176.254 15.0922L176.213 17.0918ZM179.061 18.1641L180.301 16.5952C180.292 16.5885 180.284 16.5818 180.275 16.5752L179.061 18.1641ZM179.229 18.2969L180.5 16.7534C180.49 16.7449 180.48 16.7364 180.469 16.728L179.229 18.2969ZM179.439 18.4707L180.986 17.2023C180.903 17.1019 180.812 17.0098 180.711 16.9273L179.439 18.4707ZM179.613 18.6826L178.067 19.951L178.069 19.954L179.613 18.6826ZM180.824 21.8936L182.824 21.8936V21.8936H180.824ZM179.613 25.1045L181.157 26.3764L181.157 26.3759L179.613 25.1045ZM179.526 25.21L180.941 26.6242C180.986 26.5788 181.029 26.5314 181.07 26.4819L179.526 25.21ZM179.43 25.3066L180.844 26.7209L180.844 26.7209L179.43 25.3066ZM175.977 26.7412V28.7412V28.7412V26.7412ZM173.661 27.6875L172.247 26.2733L172.247 26.2733L173.661 27.6875ZM172.674 30.043L170.674 30.0428V30.043H172.674ZM172.674 38.1533L174.674 38.1535V38.1533H172.674ZM171.464 41.3643L173.007 42.6362L173.008 42.6357L171.464 41.3643ZM171.377 41.4697L172.791 42.8839C172.837 42.8386 172.88 42.7911 172.92 42.7416L171.377 41.4697ZM171.28 41.5664L172.694 42.9807L172.694 42.9806L171.28 41.5664ZM167.867 43V45H167.867L167.867 43ZM164.641 41.748L166 40.2814C165.25 39.5858 164.096 39.5686 163.325 40.2416L164.641 41.748ZM161.427 42.9199L161.427 44.9199H161.427V42.9199ZM158.612 41.8936L159.815 40.2957C159.237 39.8608 158.47 39.7716 157.808 40.0625L158.612 41.8936ZM153.52 42.9199V44.9199H153.52L153.52 42.9199ZM144.339 39.3076L145.723 37.8641C145.351 37.507 144.855 37.3076 144.339 37.3076V39.3076ZM144.338 39.3076L142.953 40.7508C143.326 41.1081 143.822 41.3076 144.338 41.3076V39.3076ZM142.865 37.6367L144.474 36.4482C144.093 35.9324 143.487 35.6306 142.846 35.6368C142.205 35.643 141.605 35.9563 141.234 36.4794L142.865 37.6367ZM138.578 41.4141L137.164 42.8283C137.787 43.4517 138.745 43.5934 139.523 43.177L138.578 41.4141ZM138.577 41.4131L139.991 39.9989C139.359 39.3667 138.384 39.2309 137.603 39.6661L138.577 41.4131ZM132.359 43L132.359 45H132.359V43ZM123.218 39.1855L121.804 40.5998L121.804 40.5998L123.218 39.1855ZM120.798 35.8857L122.58 34.9786C122.314 34.4545 121.83 34.0743 121.257 33.9392C120.685 33.8041 120.082 33.9278 119.609 34.2773L120.798 35.8857ZM119.336 36.6211L118.76 34.7059C117.915 34.9601 117.336 35.7384 117.336 36.6211H119.336ZM21.6543 29.9219L19.6543 29.9217V29.9219H21.6543ZM22.3984 31.9756L20.871 33.2667C20.8896 33.2886 20.9085 33.3101 20.928 33.3312L22.3984 31.9756ZM22.6406 32.2383L21.1702 33.5939C21.2082 33.6351 21.2479 33.6747 21.2892 33.7126L22.6406 32.2383ZM22.6523 32.249L24.1267 30.8976C24.0875 30.8549 24.0465 30.8139 24.0038 30.7747L22.6523 32.249ZM22.6631 32.2607L21.1888 33.6122C21.2033 33.628 21.2181 33.6436 21.2331 33.659L22.6631 32.2607ZM24.957 33.2246V35.2246H24.9571L24.957 33.2246ZM27.3135 32.2383L28.7277 33.6525L28.7278 33.6524L27.3135 32.2383ZM28.2598 29.8818H30.2598V29.8818L28.2598 29.8818ZM27.3057 27.5635L28.7877 26.2205C28.7422 26.1703 28.6942 26.1225 28.6439 26.0771L27.3057 27.5635ZM24.957 26.6201L24.9572 24.6201H24.957V26.6201ZM22.6406 27.5664L21.2264 26.1522L21.2263 26.1523L22.6406 27.5664ZM132.359 26.7412L132.359 24.7412C131.006 24.7413 129.785 25.2175 128.674 26.2328L130.023 27.709L131.373 29.1851C131.793 28.8011 132.066 28.7412 132.36 28.7412L132.359 26.7412ZM130.023 27.709L128.6 26.3041C127.563 27.3546 127.057 28.5867 127.057 30.0428L129.057 30.043L131.057 30.0431C131.057 29.648 131.142 29.4225 131.447 29.1139L130.023 27.709ZM129.057 30.043H127.057C127.057 31.4838 127.57 32.7141 128.63 33.7736L130.044 32.3594L131.458 30.9452C131.127 30.6139 131.057 30.3923 131.057 30.043H129.057ZM130.044 32.3594L128.63 33.7737C129.69 34.8335 130.92 35.3456 132.359 35.3457L132.359 33.3457L132.36 31.3457C132.009 31.3457 131.789 31.2756 131.458 30.9451L130.044 32.3594ZM132.359 33.3457V35.3457C133.176 35.3457 133.998 35.2091 134.775 34.8206C135.559 34.4289 136.162 33.8499 136.642 33.1745L135.012 32.0156L133.382 30.8567C133.197 31.1166 133.067 31.2027 132.988 31.2423C132.902 31.2849 132.73 31.3457 132.359 31.3457V33.3457ZM135.012 32.0156L136.667 33.1384L136.799 32.9441L135.144 31.8213L133.488 30.6985L133.357 30.8928L135.012 32.0156ZM135.144 31.8213L136.831 32.8943C137.105 32.4641 137.47 32.16 137.9 31.9502L137.021 30.1533L136.143 28.3565C135.121 28.8564 134.165 29.6333 133.456 30.7483L135.144 31.8213ZM137.021 30.1533L137.992 28.4044C137.588 28.1806 137.243 27.8453 136.977 27.4101L135.271 28.4531L133.564 29.4961C134.161 30.4735 134.996 31.3169 136.051 31.9022L137.021 30.1533ZM135.271 28.4531L136.989 27.4302L136.965 27.3891L135.246 28.4121L133.528 29.4351L133.552 29.4761L135.271 28.4531ZM135.246 28.4121L136.983 27.4198L136.959 27.3788L135.223 28.3711L133.486 29.3634L133.51 29.4044L135.246 28.4121ZM135.223 28.3711L136.963 27.3862C136.522 26.6059 135.929 25.8907 135.073 25.3975C134.222 24.9067 133.293 24.7412 132.359 24.7412V26.7412V28.7412C132.824 28.7412 133.006 28.8229 133.076 28.8631C133.141 28.901 133.281 29.0007 133.482 29.356L135.223 28.3711ZM153.52 26.7412V24.7412C152.055 24.7412 150.797 25.2649 149.709 26.3533L151.123 27.7676L152.537 29.1819C152.9 28.8188 153.15 28.7412 153.52 28.7412V26.7412ZM151.123 27.7676L149.709 26.3534C148.621 27.441 148.096 28.6982 148.096 30.1639L150.096 30.1641L152.096 30.1642C152.096 29.7961 152.173 29.5458 152.537 29.1818L151.123 27.7676ZM150.096 30.1641H148.096C148.096 31.3864 148.474 32.4793 149.333 33.4331L150.819 32.0947L152.306 30.7564C152.152 30.5853 152.096 30.4646 152.096 30.1641H150.096ZM150.819 32.0947L149.396 33.5002L149.632 33.7384L151.055 32.333L152.478 30.9276L152.242 30.6893L150.819 32.0947ZM151.055 32.333L149.661 33.7676L149.729 33.834L151.123 32.3994L152.517 30.9649L152.448 30.8984L151.055 32.333ZM151.123 32.3994L149.709 33.8136C150.694 34.7984 151.941 35.3057 153.52 35.3057V33.3057V31.3057C153.174 31.3057 152.976 31.2544 152.863 31.2096C152.757 31.1676 152.657 31.1049 152.537 30.9852L151.123 32.3994ZM153.52 33.3057L153.52 35.3057C155.004 35.3056 156.216 34.8072 157.209 33.8136L155.795 32.3994L154.381 30.9852C154.165 31.2014 153.983 31.3057 153.519 31.3057L153.52 33.3057ZM155.795 32.3994L157.209 33.8136C158.172 32.8506 158.66 31.6545 158.66 30.1641H156.66H154.66C154.66 30.6625 154.546 30.8197 154.381 30.9852L155.795 32.3994ZM156.66 30.1641L158.66 30.1639C158.66 28.6451 158.171 27.3842 157.191 26.3341L155.729 27.6982L154.266 29.0624C154.524 29.3393 154.66 29.6123 154.66 30.1642L156.66 30.1641ZM155.729 27.6982H153.729V27.6992H155.729H157.729V27.6982H155.729ZM155.729 27.6992L157.19 26.3334C156.19 25.2639 154.984 24.7413 153.52 24.7412L153.52 26.7412L153.519 28.7412C153.878 28.7412 154.025 28.8058 154.268 29.065L155.729 27.6992ZM119.336 38.1123H117.336C117.336 38.8271 117.054 39.4786 116.582 40.0519L118.126 41.3232L119.67 42.5945C120.592 41.4743 121.336 39.9526 121.336 38.1123H119.336ZM118.126 41.3232L116.583 40.0513L116.496 40.1568L118.039 41.4287L119.583 42.7006L119.669 42.5952L118.126 41.3232ZM118.039 41.4287L116.625 40.0145L116.528 40.1112L117.942 41.5254L119.357 42.9396L119.453 42.8429L118.039 41.4287ZM117.942 41.5254L116.528 40.1112C115.97 40.6689 115.275 40.96 114.488 40.96V42.96V44.96C116.349 44.96 118.058 44.2382 119.357 42.9396L117.942 41.5254ZM114.488 42.96L114.488 40.96C113.718 40.9599 113.042 40.6794 112.511 40.132L111.075 41.5244L109.64 42.9169C110.944 44.2616 112.665 44.9598 114.488 44.96L114.488 42.96ZM111.075 41.5244H109.075V41.5254H111.075H113.075V41.5244H111.075ZM111.075 41.5254L112.49 40.1113C112.497 40.1192 112.502 40.1236 112.495 40.1165C112.493 40.1149 112.492 40.1132 112.489 40.1107C112.487 40.1084 112.484 40.1053 112.481 40.1021C112.475 40.0956 112.466 40.0865 112.456 40.0764L111.021 41.4697L109.587 42.8631C109.586 42.8621 109.586 42.8624 109.589 42.8652C109.59 42.8667 109.592 42.8682 109.594 42.8706C109.596 42.8727 109.599 42.8757 109.602 42.8788C109.613 42.8904 109.635 42.9134 109.661 42.9395L111.075 41.5254ZM111.021 41.4697L112.478 40.0994C112.456 40.0755 112.437 40.0566 112.425 40.045C112.419 40.0391 112.414 40.0342 112.411 40.0312C112.41 40.0296 112.408 40.0283 112.407 40.0275C112.407 40.0268 112.406 40.026 112.406 40.0259C112.405 40.0253 112.407 40.027 112.409 40.0292C112.411 40.0315 112.416 40.0357 112.421 40.0409C112.431 40.0512 112.449 40.0688 112.47 40.0913L111.008 41.4561L109.546 42.8208C109.569 42.8457 109.589 42.8655 109.601 42.8781C109.608 42.8845 109.613 42.8898 109.617 42.8933C109.62 42.8966 109.623 42.8994 109.624 42.8999C109.625 42.9011 109.623 42.8996 109.622 42.898C109.62 42.8961 109.616 42.8924 109.611 42.8876C109.602 42.8782 109.585 42.8616 109.565 42.8401L111.021 41.4697ZM111.008 41.4561H113.008V41.4551H111.008H109.008V41.4561H111.008ZM111.008 41.4551L112.448 40.0671C111.926 39.5256 111.642 38.8641 111.642 38.1123H109.642H107.642C107.642 39.9669 108.376 41.606 109.568 42.843L111.008 41.4551ZM109.642 38.1123H111.642V36.8271H109.642H107.642V38.1123H109.642ZM109.642 36.8271V34.8271H101.336V36.8271V38.8271H109.642V36.8271ZM101.336 36.8271L101.336 34.8271C101.158 34.8271 100.967 34.813 100.768 34.7818L100.459 36.7578L100.15 38.7338C100.55 38.7963 100.947 38.8271 101.336 38.8271L101.336 36.8271ZM100.459 36.7578L98.5521 36.1546C98.2346 37.1584 97.6765 38.1008 96.87 38.9623L98.3301 40.3291L99.7901 41.6959C100.97 40.4356 101.853 38.9808 102.366 37.3611L100.459 36.7578ZM98.3301 40.3291L96.854 38.9796L96.8228 39.0137L98.2988 40.3633L99.7749 41.7128L99.8061 41.6786L98.3301 40.3291ZM98.2988 40.3633L96.8846 38.9491L96.8514 38.9823L98.2656 40.3965L99.6798 41.8107L99.713 41.7775L98.2988 40.3633ZM98.2656 40.3965L96.8514 38.9822C95.5133 40.3204 93.8763 41 91.9873 41V43V45C94.9407 45 97.594 43.8964 99.6798 41.8107L98.2656 40.3965ZM91.9873 43L91.9874 41C90.4281 40.9999 89.0052 40.4925 87.741 39.505L86.5098 41.0811L85.2785 42.6572C87.2098 44.1659 89.4909 44.9999 91.9872 45L91.9873 43ZM86.5098 41.0811L87.7293 39.4959C87.7098 39.4809 87.6935 39.4689 87.6833 39.4615C87.6781 39.4577 87.6737 39.4545 87.6709 39.4525C87.6683 39.4507 87.6659 39.449 87.6658 39.4488C87.665 39.4483 87.6663 39.4492 87.668 39.4504C87.6698 39.4517 87.6731 39.4541 87.6774 39.4572C87.6857 39.4633 87.6999 39.4738 87.7176 39.4874L86.4951 41.0703L85.2727 42.6532C85.2927 42.6687 85.3094 42.681 85.3201 42.6888C85.3256 42.6928 85.3302 42.6961 85.3332 42.6983C85.3361 42.7004 85.3386 42.7022 85.3391 42.7025C85.3402 42.7033 85.339 42.7025 85.3377 42.7015C85.3361 42.7004 85.333 42.6981 85.329 42.6952C85.3212 42.6895 85.3074 42.6794 85.2902 42.6662L86.5098 41.0811ZM86.4951 41.0703L87.7292 39.4964C87.7118 39.4828 87.6973 39.4719 87.6884 39.4653C87.6838 39.4619 87.6801 39.4591 87.6777 39.4573C87.6765 39.4564 87.6755 39.4557 87.6748 39.4552C87.6742 39.4548 87.6736 39.4544 87.6736 39.4543C87.6731 39.4539 87.6744 39.4549 87.6761 39.4562C87.678 39.4575 87.6812 39.4599 87.6852 39.4629C87.6931 39.4688 87.7065 39.4789 87.7229 39.4918L86.4873 41.0645L85.2517 42.6371C85.2694 42.651 85.284 42.6621 85.2933 42.6689C85.2979 42.6724 85.3018 42.6753 85.3043 42.6771C85.3067 42.6789 85.3087 42.6804 85.3088 42.6804C85.3095 42.681 85.3082 42.68 85.3067 42.6789C85.305 42.6776 85.3019 42.6753 85.298 42.6724C85.2903 42.6667 85.2772 42.6568 85.2611 42.6442L86.4951 41.0703ZM86.4873 41.0645H88.4873V41.0635H86.4873H84.4873V41.0645H86.4873ZM86.4873 41.0635L87.7114 39.4818C87.1736 39.0656 86.714 38.5982 86.3297 38.0848L84.7285 39.2832L83.1273 40.4816C83.7332 41.2911 84.4485 42.0146 85.2632 42.6451L86.4873 41.0635ZM84.7285 39.2832L83.1018 38.1196C82.8948 38.4091 82.6643 38.6906 82.4101 38.9623L83.8701 40.3291L85.3302 41.6959C85.7031 41.2976 86.0451 40.8804 86.3552 40.4468L84.7285 39.2832ZM83.8701 40.3291L82.3941 38.9796L82.3628 39.0137L83.8389 40.3633L85.3149 41.7128L85.3462 41.6786L83.8701 40.3291ZM83.8389 40.3633L82.4247 38.9491L82.3914 38.9823L83.8057 40.3965L85.2199 41.8107L85.2531 41.7775L83.8389 40.3633ZM83.8057 40.3965L82.3915 38.9822C81.0533 40.3204 79.4169 40.9999 77.5282 41L77.5283 43L77.5284 45C80.4817 44.9999 83.1343 43.8962 85.2198 41.8107L83.8057 40.3965ZM77.5283 43V41C75.9687 41 74.5452 40.4925 73.281 39.505L72.0498 41.0811L70.8186 42.6571C72.7501 44.1661 75.0319 45 77.5283 45V43ZM72.0498 41.0811L73.2694 39.4959C73.2498 39.4809 73.2336 39.4689 73.2233 39.4615C73.2181 39.4577 73.2138 39.4545 73.2109 39.4525C73.2084 39.4507 73.206 39.449 73.2058 39.4488C73.2051 39.4483 73.2063 39.4492 73.208 39.4504C73.2098 39.4517 73.2132 39.4541 73.2174 39.4572C73.2257 39.4633 73.24 39.4738 73.2576 39.4874L72.0352 41.0703L70.8127 42.6532C70.8327 42.6687 70.8494 42.681 70.8602 42.6888C70.8656 42.6928 70.8702 42.6961 70.8733 42.6983C70.8762 42.7004 70.8787 42.7022 70.8791 42.7025C70.8802 42.7033 70.8791 42.7025 70.8777 42.7015C70.8761 42.7004 70.873 42.6981 70.869 42.6952C70.8612 42.6895 70.8474 42.6794 70.8302 42.6662L72.0498 41.0811ZM72.0352 41.0703L73.2692 39.4964C73.2518 39.4828 73.2374 39.4719 73.2284 39.4653C73.2239 39.4619 73.2201 39.4591 73.2177 39.4573C73.2165 39.4564 73.2155 39.4557 73.2148 39.4552C73.2142 39.4548 73.2137 39.4544 73.2136 39.4543C73.2131 39.4539 73.2145 39.4549 73.2161 39.4562C73.218 39.4575 73.2212 39.4599 73.2253 39.4629C73.2332 39.4688 73.2465 39.4789 73.2629 39.4918L72.0273 41.0645L70.7917 42.6371C70.8094 42.651 70.8241 42.6621 70.8333 42.6689C70.838 42.6724 70.8419 42.6753 70.8444 42.6772C70.8467 42.6789 70.8487 42.6804 70.8489 42.6805C70.8496 42.681 70.8483 42.68 70.8467 42.6789C70.845 42.6776 70.8419 42.6753 70.838 42.6724C70.8304 42.6667 70.8172 42.6568 70.8011 42.6442L72.0352 41.0703ZM72.0273 41.0645H74.0273V41.0635H72.0273H70.0273V41.0645H72.0273ZM72.0273 41.0635L73.2514 39.4818C72.4043 38.8262 71.7471 38.0431 71.2772 37.1445L69.5049 38.0713L67.7326 38.9981C68.4785 40.4244 69.5163 41.6491 70.8032 42.6451L72.0273 41.0635ZM69.5049 38.0713L67.6191 37.405C67.6063 37.4412 67.5968 37.4713 67.591 37.49C67.588 37.4996 67.5856 37.5076 67.5841 37.5127C67.5827 37.5173 67.5813 37.5221 67.5813 37.5222C67.5809 37.5236 67.5815 37.5215 67.5824 37.5184C67.5834 37.5151 67.5852 37.509 67.5877 37.5013C67.5924 37.4863 67.6008 37.4602 67.6126 37.4278L69.4922 38.1113L71.3718 38.7948C71.3859 38.7559 71.3966 38.7232 71.4034 38.7014C71.4099 38.6809 71.415 38.6633 71.4159 38.6604C71.4169 38.6572 71.4164 38.6586 71.4161 38.6598C71.4156 38.6616 71.4142 38.6662 71.4122 38.6725C71.4085 38.6845 71.4011 38.708 71.3906 38.7376L69.5049 38.0713ZM69.4922 38.1113L67.6126 37.4278C67.3715 38.0909 66.8614 38.6316 66.2151 39.0779L67.3516 40.7236L68.488 42.3694C69.5188 41.6576 70.744 40.5211 71.3718 38.7948L69.4922 38.1113ZM67.3516 40.7236L66.2141 39.0786L66.1223 39.1421L67.2598 40.7871L68.3973 42.4321L68.4891 42.3686L67.3516 40.7236ZM67.2598 40.7871L66.2618 39.0539L66.1652 39.1095L67.1631 40.8428L68.161 42.576L68.2577 42.5204L67.2598 40.7871ZM67.1631 40.8428L66.1597 39.1127C64.7751 39.9158 63.5138 40.468 62.3847 40.7355L62.8457 42.6816L63.3067 44.6278C64.9519 44.2381 66.5894 43.4876 68.1665 42.5728L67.1631 40.8428ZM62.8457 42.6816L62.3749 40.7378L62.2499 40.7681L62.7207 42.7119L63.1915 44.6557L63.3165 44.6254L62.8457 42.6816ZM62.7207 42.7119L62.4464 40.7308L62.3194 40.7484L62.5938 42.7295L62.8681 44.7106L62.995 44.693L62.7207 42.7119ZM62.5938 42.7295L62.3138 40.7492L62.0306 40.7892L62.3105 42.7695L62.5905 44.7498L62.8737 44.7098L62.5938 42.7295ZM62.3105 42.7695L61.9946 40.7947L61.9701 40.7986L62.2861 42.7734L62.6021 44.7483L62.6265 44.7444L62.3105 42.7695ZM62.2861 42.7734L62.0478 40.7877L62.0234 40.7906L62.2617 42.7764L62.5 44.7621L62.5244 44.7592L62.2861 42.7734ZM62.2617 42.7764L62.01 40.7923L61.6867 40.8333L61.9385 42.8174L62.1902 44.8015L62.5135 44.7605L62.2617 42.7764ZM61.9385 42.8174L61.7114 40.8303L61.6772 40.8342L61.9043 42.8213L62.1314 44.8084L62.1656 44.8044L61.9385 42.8174ZM61.9043 42.8213L61.6834 40.8335L61.6483 40.8374L61.8691 42.8252L62.09 44.813L62.1252 44.8091L61.9043 42.8213ZM61.8691 42.8252L61.6716 40.835L61.2682 40.875L61.4658 42.8652L61.6634 44.8554L62.0667 44.8154L61.8691 42.8252ZM61.4658 42.8652L61.3124 40.8711L61.287 40.8731L61.4404 42.8672L61.5938 44.8613L61.6192 44.8593L61.4658 42.8652ZM61.4404 42.8672L61.2562 40.8757L60.8128 40.9167L60.9971 42.9082L61.1813 44.8997L61.6247 44.8587L61.4404 42.8672ZM60.9971 42.9082L60.8263 40.9155L60.7921 40.9184L60.9629 42.9111L61.1337 44.9038L61.1679 44.9009L60.9971 42.9082ZM60.9629 42.9111L60.8488 40.9144L60.8146 40.9163L60.9287 42.9131L61.0428 44.9098L61.077 44.9079L60.9629 42.9111ZM60.9287 42.9131L60.7967 40.9174L60.1913 40.9575L60.3232 42.9531L60.4552 44.9488L61.0607 44.9087L60.9287 42.9131ZM60.3232 42.9531L60.1778 40.9584L60.084 40.9653L60.2295 42.96L60.3749 44.9547L60.4687 44.9478L60.3232 42.9531ZM60.2295 42.96V40.96H59.5303V42.96V44.96H60.2295V42.96ZM59.5303 42.96V40.96C56.5114 40.96 53.9068 39.8762 51.7619 37.7313L50.3477 39.1455L48.9335 40.5597C51.8232 43.4494 55.443 44.96 59.5303 44.96V42.96ZM50.3477 39.1455L51.7619 37.7313C49.6414 35.6108 48.5732 33.0185 48.5732 30.0029H46.5732H44.5732C44.5732 34.0706 46.0567 37.6829 48.9334 40.5597L50.3477 39.1455ZM46.5732 30.0029L48.5732 30.0029C48.5732 29.0315 48.6817 28.1137 48.8923 27.2502L46.9492 26.7764L45.0062 26.3025C44.7153 27.4951 44.5732 28.7322 44.5732 30.0029L46.5732 30.0029ZM46.9492 26.7764L46.671 24.7958C45.5064 24.9594 44.5559 25.48 43.7625 26.2733L45.1768 27.6875L46.591 29.1017C46.8312 28.8615 47.0049 28.7882 47.2274 28.7569L46.9492 26.7764ZM45.1768 27.6875L43.7624 26.2734C42.706 27.3299 42.1905 28.5717 42.1904 30.0428L44.1904 30.043L46.1904 30.0431C46.1905 29.644 46.2766 29.4161 46.5911 29.1016L45.1768 27.6875ZM44.1904 30.043H42.1904V38.1533H44.1904H46.1904V30.043H44.1904ZM44.1904 38.1533L42.1904 38.1531C42.1904 38.8673 41.9083 39.5189 41.4356 40.0928L42.9795 41.3643L44.5234 42.6357C45.4453 41.5162 46.1902 39.9945 46.1904 38.1535L44.1904 38.1533ZM42.9795 41.3643L41.436 40.0923L41.3491 40.1978L42.8926 41.4697L44.436 42.7416L44.5229 42.6362L42.9795 41.3643ZM42.8926 41.4697L41.4712 40.0627L41.3755 40.1594L42.7969 41.5664L44.2183 42.9734L44.314 42.8767L42.8926 41.4697ZM42.7969 41.5664L41.3827 40.1522C40.8338 40.7011 40.1549 41 39.3828 41V43V45C41.2858 45 42.9631 44.2286 44.2111 42.9806L42.7969 41.5664ZM39.3828 43L39.383 41C38.612 40.9999 37.9356 40.7196 37.4052 40.1728L35.9697 41.5654L34.5342 42.958C35.839 44.303 37.5605 44.9999 39.3827 45L39.3828 43ZM35.9697 41.5654L37.3841 40.1514C36.8919 39.6591 36.6061 39.0675 36.5479 38.4096L34.5557 38.5859L32.5635 38.7623C32.7103 40.4213 33.4477 41.8716 34.5553 42.9795L35.9697 41.5654ZM34.5557 38.5859L33.0788 37.2372C32.9506 37.3777 32.8192 37.5155 32.6844 37.6502L34.0986 39.0645L35.5128 40.4787C35.6923 40.2992 35.8655 40.1175 36.0325 39.9346L34.5557 38.5859ZM34.0986 39.0645L32.6844 37.6502C30.5411 39.7935 27.9511 40.8789 24.957 40.8789L24.957 42.8789L24.9571 44.8789C29.0314 44.8788 32.6332 43.3582 35.5128 40.4787L34.0986 39.0645ZM24.957 42.8789V40.8789C21.9381 40.8789 19.3336 39.7952 17.1886 37.6502L15.7744 39.0645L14.3602 40.4787C17.25 43.3684 20.8697 44.8789 24.957 44.8789V42.8789ZM15.7744 39.0645L17.1886 37.6502C15.0682 35.5298 14 32.9375 14 29.9219H12H10C10 33.9896 11.4834 37.6019 14.3602 40.4787L15.7744 39.0645ZM12 29.9219L14 29.9219C14.0001 26.8819 15.0667 24.2754 17.1886 22.1535L15.7744 20.7393L14.3602 19.325C11.4738 22.2115 10.0001 25.8414 10 29.9218L12 29.9219ZM15.7744 20.7393L17.1886 22.1535C19.3104 20.0318 21.9167 18.9658 24.957 18.9658V16.9658V14.9658C20.8769 14.9658 17.2469 16.4385 14.3602 19.325L15.7744 20.7393ZM24.957 16.9658L24.957 18.9658C25.936 18.9658 26.8701 19.0844 27.7592 19.3143L28.2598 17.3779L28.7603 15.4416C27.5332 15.1244 26.2622 14.9658 24.9571 14.9658L24.957 16.9658ZM28.2598 17.3779H30.2598V11.8066H28.2598H26.2598V17.3779H28.2598ZM28.2598 11.8066L30.2598 11.8068C30.2598 11.0917 30.5416 10.4402 31.0136 9.86711L29.4697 8.5957L27.9259 7.32429C27.0032 8.44471 26.2599 9.96641 26.2598 11.8065L28.2598 11.8066ZM29.4697 8.5957L31.0132 9.86762L31.187 9.65668L29.6436 8.38477L28.1001 7.11285L27.9263 7.32379L29.4697 8.5957ZM29.6436 8.38477L30.9162 9.9276L31.1281 9.75279L29.8555 8.20996L28.5828 6.66713L28.3709 6.84193L29.6436 8.38477ZM29.8555 8.20996L31.1268 9.75392C31.7001 9.28183 32.3516 9 33.0664 9V7V5C31.2261 5 29.7044 5.74364 28.5842 6.666L29.8555 8.20996ZM33.0664 7L33.0168 8.99939L33.2532 9.00524L33.3027 7.00586L33.3523 5.00647L33.116 5.00061L33.0664 7ZM33.3027 7.00586L33.2069 9.00356C33.8796 9.03585 34.4991 9.30352 35.0461 9.75393L36.3174 8.20996L37.5887 6.66599C36.4876 5.75941 35.066 5.08818 33.3986 5.00816L33.3027 7.00586ZM36.3174 8.20996L35.0447 9.75279L35.2566 9.9276L36.5293 8.38477L37.802 6.84193L37.59 6.66713L36.3174 8.20996ZM36.5293 8.38477L34.9858 9.65668L35.1597 9.86762L36.7031 8.5957L38.2466 7.32379L38.0727 7.11285L36.5293 8.38477ZM36.7031 8.5957L35.1593 9.86712C35.6312 10.4402 35.913 11.0917 35.9131 11.8068L37.9131 11.8066L39.9131 11.8065C39.913 9.96641 39.1697 8.44471 38.247 7.32429L36.7031 8.5957ZM37.9131 11.8066H35.9131V21.3174H37.9131H39.9131V11.8066H37.9131ZM37.9131 21.3174L39.3876 22.6687C39.5096 22.5355 39.6355 22.4039 39.7648 22.2746L38.3506 20.8604L36.9364 19.4461C36.7654 19.6171 36.5994 19.7906 36.4386 19.9661L37.9131 21.3174ZM38.3506 20.8604L39.7648 22.2746C41.8849 20.1545 44.4773 19.0869 47.4932 19.0869V17.0869V15.0869C43.426 15.0869 39.8134 16.5692 36.9364 19.4461L38.3506 20.8604ZM47.4932 17.0869L47.4517 19.0865L47.687 19.0914L47.7285 17.0918L47.77 15.0922L47.5346 15.0873L47.4932 17.0869ZM47.7285 17.0918L47.6329 19.0895C48.2621 19.1196 48.8425 19.3554 49.3623 19.7528L50.5771 18.1641L51.792 16.5753C50.7244 15.759 49.3802 15.1686 47.8241 15.0941L47.7285 17.0918ZM50.5771 18.1641L49.3322 19.7294L49.4992 19.8622L50.7441 18.2969L51.9891 16.7316L51.8221 16.5988L50.5771 18.1641ZM50.7441 18.2969L49.4757 19.8432L49.6876 20.017L50.9561 18.4707L52.2245 16.9244L52.0126 16.7505L50.7441 18.2969ZM50.9561 18.4707L49.4097 19.7391L49.5836 19.951L51.1299 18.6826L52.6762 17.4142L52.5024 17.2023L50.9561 18.4707ZM51.1299 18.6826L49.5859 19.9539C49.7389 20.1397 49.8743 20.3387 49.9873 20.548L51.7471 19.5977L53.5069 18.6474C53.2637 18.197 52.9809 17.7842 52.6738 17.4113L51.1299 18.6826ZM51.7471 19.5977L52.956 21.1909C54.8232 19.7741 57.0193 19.0459 59.5303 19.0459V17.0459V15.0459C56.1918 15.0459 53.1364 16.0329 50.5381 18.0044L51.7471 19.5977ZM59.5303 17.0459L59.5303 19.0459C62.4328 19.0459 64.9309 19.9711 66.9743 21.8329L68.3213 20.3545L69.6683 18.8761C66.8373 16.2968 63.3584 15.0459 59.5303 15.0459L59.5303 17.0459ZM68.3213 20.3545V22.3545H68.3223V20.3545V18.3545H68.3213V20.3545ZM68.3223 20.3545L66.9843 21.8411C67.4085 22.2229 67.7915 22.6249 68.1356 23.0442L69.6816 21.7754L71.2276 20.5066C70.7552 19.931 70.233 19.3835 69.6602 18.8679L68.3223 20.3545ZM69.6816 21.7754L71.4398 22.7287C71.7498 22.1571 72.1557 21.6132 72.6642 21.1046L71.25 19.6904L69.8358 18.2762C69.0689 19.0431 68.4264 19.8944 67.9234 20.8221L69.6816 21.7754ZM71.25 19.6904L72.6642 21.1046C74.0024 19.7665 75.6392 19.0869 77.5283 19.0869V17.0869V15.0869C74.5749 15.0869 71.9217 16.1903 69.8358 18.2762L71.25 19.6904ZM77.5283 17.0869L77.5282 19.0869C79.0089 19.087 80.3711 19.5045 81.5991 20.3227L82.708 18.6582L83.8169 16.9938C81.9393 15.7429 79.8069 15.087 77.5284 15.0869L77.5283 17.0869ZM82.708 18.6582L81.5663 20.3003L81.874 20.5142L83.0156 18.8721L84.1573 17.2299L83.8497 17.0161L82.708 18.6582ZM83.0156 18.8721L81.8581 20.5031L81.8884 20.5246L83.0459 18.8936L84.2034 17.2625L84.1731 17.2411L83.0156 18.8721ZM83.0459 18.8936L81.8542 20.4998L81.8845 20.5222L83.0762 18.916L84.2679 17.3098L84.2376 17.2874L83.0459 18.8936ZM83.0762 18.916L81.8641 20.5069C82.4113 20.9238 82.8751 21.3817 83.2414 21.8746L84.8467 20.6816L86.452 19.4887C85.8303 18.6522 85.088 17.9345 84.2883 17.3252L83.0762 18.916ZM84.8467 20.6816L86.4437 21.8856C86.6463 21.6168 86.8728 21.356 87.1242 21.1046L85.71 19.6904L84.2957 18.2762C83.9153 18.6567 83.5663 19.0577 83.2497 19.4777L84.8467 20.6816ZM85.71 19.6904L87.1242 21.1047C88.4624 19.7665 90.0986 19.087 91.9874 19.0869L91.9873 17.0869L91.9872 15.0869C89.0339 15.087 86.3814 16.1906 84.2958 18.2762L85.71 19.6904ZM91.9873 17.0869V19.0869C93.4683 19.0869 94.8311 19.5045 96.0591 20.3226L97.168 18.6582L98.2769 16.9938C96.399 15.7427 94.2659 15.0869 91.9873 15.0869V17.0869ZM97.168 18.6582L96.0263 20.3003L96.3339 20.5142L97.4756 18.8721L98.6173 17.2299L98.3096 17.0161L97.168 18.6582ZM97.4756 18.8721L96.3181 20.5031L96.3484 20.5246L97.5059 18.8936L98.6634 17.2625L98.6331 17.2411L97.4756 18.8721ZM97.5059 18.8936L96.3142 20.4998L96.3444 20.5222L97.5361 18.916L98.7278 17.3098L98.6976 17.2874L97.5059 18.8936ZM97.5361 18.916L96.324 20.5068C97.5365 21.4307 98.3302 22.5433 98.5891 23.8467L100.551 23.457L102.512 23.0674C102.017 20.5718 100.522 18.6765 98.7483 17.3252L97.5361 18.916ZM100.551 23.457L98.6139 23.9555C98.662 24.1426 98.676 24.3309 98.668 24.5115L100.666 24.6006L102.664 24.6897C102.687 24.1835 102.651 23.5915 102.488 22.9586L100.551 23.457ZM100.666 24.6006L102.288 25.7713L112.283 11.9265L110.661 10.7559L109.04 9.58517L99.0444 23.4299L100.666 24.6006ZM110.661 10.7559L112.285 11.924L112.417 11.7394L110.794 10.5713L109.171 9.40313L109.038 9.5877L110.661 10.7559ZM110.794 10.5713L112.208 11.9855L112.449 11.7443L111.035 10.3301L109.621 8.91586L109.38 9.15708L110.794 10.5713ZM111.035 10.3301L112.406 11.7868L112.653 11.5544L111.282 10.0977L109.912 8.64092L109.665 8.87334L111.035 10.3301ZM111.282 10.0977L112.608 11.5947C112.988 11.2586 113.421 11.0204 113.913 10.9221L113.521 8.96094L113.128 6.99978C111.829 7.25969 110.77 7.87914 109.956 8.6006L111.282 10.0977ZM113.521 8.96094L113.913 10.9221C114.45 10.8147 114.99 10.8902 115.515 11.0993L116.255 9.24121L116.995 7.38313C115.897 6.94608 114.566 6.71241 113.128 6.99974L113.521 8.96094ZM116.255 9.24121L115.59 11.1275C116.122 11.315 116.57 11.6271 116.882 12.0895L118.54 10.9717L120.199 9.8539C119.326 8.55941 118.115 7.77598 116.92 7.35488L116.255 9.24121ZM118.54 10.9717L116.882 12.0894C117.205 12.5701 117.336 13.141 117.336 13.7433L119.336 13.7432L121.336 13.743C121.336 12.5828 121.084 11.1685 120.199 9.85398L118.54 10.9717ZM119.336 13.7432H117.336V27.3438H119.336H121.336V13.7432H119.336ZM119.336 27.3438L118.753 29.2569C118.828 29.2798 118.896 29.3032 118.958 29.3271L119.68 27.4619L120.402 25.5967C120.238 25.5336 120.077 25.4788 119.919 25.4306L119.336 27.3438ZM119.68 27.4619L121.645 27.8349C122.041 25.7448 123.027 23.8793 124.632 22.2746L123.218 20.8604L121.804 19.4461C119.65 21.5995 118.266 24.1835 117.715 27.0889L119.68 27.4619ZM123.218 20.8604L124.632 22.2746C126.752 20.1546 129.344 19.087 132.359 19.0869L132.359 17.0869L132.359 15.0869C128.292 15.087 124.68 16.5695 121.804 19.4461L123.218 20.8604ZM132.359 17.0869V19.0869C134.334 19.0869 136.174 19.5823 137.863 20.5721L138.874 18.8467L139.885 17.1213C137.576 15.7673 135.036 15.0869 132.359 15.0869V17.0869ZM138.874 18.8467L137.913 20.6008C139.253 21.3347 140.382 22.3646 141.308 23.671L142.939 22.5146L144.571 21.3583C143.323 19.5964 141.748 18.1405 139.835 17.0925L138.874 18.8467ZM142.939 22.5146L144.55 23.7011C144.891 23.238 145.278 22.789 145.711 22.3556L144.297 20.9414L142.883 19.5272C142.314 20.0958 141.795 20.6963 141.329 21.3282L142.939 22.5146ZM144.297 20.9414L145.711 22.3556C147.858 20.2091 150.476 19.127 153.52 19.127V17.127V15.127C149.419 15.127 145.782 16.6278 142.883 19.5272L144.297 20.9414ZM153.52 17.127L153.52 19.127C156.564 19.127 159.149 20.2103 161.219 22.3681L162.662 20.9834L164.105 19.5987C161.26 16.6337 157.624 15.127 153.52 15.127L153.52 17.127ZM162.662 20.9834V22.9834H162.663V20.9834V18.9834H162.662V20.9834ZM162.663 20.9834L161.22 22.3676C161.904 23.0811 162.465 23.8449 162.914 24.6519L164.662 23.6807L166.41 22.7095C165.792 21.5953 165.023 20.555 164.107 19.5992L162.663 20.9834ZM164.662 23.6807L166.398 24.6732C166.881 23.8292 167.495 23.0273 168.248 22.2746L166.834 20.8604L165.42 19.4461C164.43 20.4354 163.595 21.518 162.926 22.6881L164.662 23.6807ZM166.834 20.8604L168.248 22.2746C170.368 20.1544 172.961 19.0869 175.977 19.0869V17.0869V15.0869C171.909 15.0869 168.297 16.5691 165.42 19.4461L166.834 20.8604ZM175.977 17.0869L175.935 19.0865L176.172 19.0914L176.213 17.0918L176.254 15.0922L176.018 15.0873L175.977 17.0869ZM176.213 17.0918L176.117 19.0895C176.746 19.1197 177.326 19.3554 177.846 19.7529L179.061 18.1641L180.275 16.5752C179.208 15.7595 177.865 15.1687 176.309 15.0941L176.213 17.0918ZM179.061 18.1641L177.82 19.7329L177.988 19.8657L179.229 18.2969L180.469 16.728L180.301 16.5952L179.061 18.1641ZM179.229 18.2969L177.957 19.8403L178.168 20.0142L179.439 18.4707L180.711 16.9273L180.5 16.7534L179.229 18.2969ZM179.439 18.4707L177.893 19.7391L178.067 19.951L179.613 18.6826L181.16 17.4142L180.986 17.2023L179.439 18.4707ZM179.613 18.6826L178.069 19.954C178.542 20.5282 178.824 21.1795 178.824 21.8936H180.824H182.824C182.824 20.0521 182.079 18.5306 181.157 17.4112L179.613 18.6826ZM180.824 21.8936L178.824 21.8935C178.824 22.6076 178.542 23.2589 178.069 23.8331L179.613 25.1045L181.157 26.3759C182.079 25.2564 182.824 23.7349 182.824 21.8936L180.824 21.8936ZM179.613 25.1045L178.07 23.8326L177.983 23.938L179.526 25.21L181.07 26.4819L181.157 26.3764L179.613 25.1045ZM179.526 25.21L178.112 23.7957L178.015 23.8924L179.43 25.3066L180.844 26.7209L180.941 26.6242L179.526 25.21ZM179.43 25.3066L178.016 23.8924C177.457 24.4504 176.763 24.7412 175.977 24.7412V26.7412V28.7412C177.838 28.7412 179.546 28.0189 180.844 26.7209L179.43 25.3066ZM175.977 26.7412V24.7412C174.498 24.7412 173.272 25.2481 172.247 26.2733L173.661 27.6875L175.075 29.1017C175.341 28.8362 175.546 28.7412 175.977 28.7412V26.7412ZM173.661 27.6875L172.247 26.2733C171.191 27.3289 170.674 28.5701 170.674 30.0428L172.674 30.043L174.674 30.0431C174.674 29.6453 174.76 29.4173 175.075 29.1017L173.661 27.6875ZM172.674 30.043H170.674V38.1533H172.674H174.674V30.043H172.674ZM172.674 38.1533L170.674 38.1531C170.674 38.8683 170.392 39.5198 169.92 40.0928L171.464 41.3643L173.008 42.6357C173.93 41.5152 174.674 39.9935 174.674 38.1535L172.674 38.1533ZM171.464 41.3643L169.92 40.0923L169.834 40.1978L171.377 41.4697L172.92 42.7416L173.007 42.6362L171.464 41.3643ZM171.377 41.4697L169.963 40.0555L169.866 40.1522L171.28 41.5664L172.694 42.9806L172.791 42.8839L171.377 41.4697ZM171.28 41.5664L169.866 40.1521C169.317 40.7013 168.639 41 167.867 41L167.867 43L167.867 45C169.771 45 171.447 44.2282 172.694 42.9807L171.28 41.5664ZM167.867 43V41C167.144 41 166.509 40.7533 166 40.2814L164.641 41.748L163.281 43.2147C164.554 44.3947 166.169 45 167.867 45V43ZM164.641 41.748L163.325 40.2416C162.803 40.6976 162.152 40.9199 161.427 40.9199V42.9199V44.9199C163.002 44.9199 164.621 44.4201 165.956 43.2545L164.641 41.748ZM161.427 42.9199L161.427 40.9199C160.85 40.9199 160.311 40.6686 159.815 40.2957L158.612 41.8936L157.409 43.4914C158.279 44.1464 159.653 44.9197 161.427 44.9199L161.427 42.9199ZM158.612 41.8936L157.808 40.0625C156.516 40.6299 155.084 40.9199 153.52 40.9199L153.52 42.9199L153.52 44.9199C155.588 44.9199 157.574 44.5343 159.417 43.7246L158.612 41.8936ZM153.52 42.9199V40.9199C150.466 40.9199 147.849 39.9027 145.723 37.8641L144.339 39.3076L142.955 40.7512C145.864 43.5411 149.489 44.9199 153.52 44.9199V42.9199ZM144.339 39.3076V37.3076H144.338V39.3076V41.3076H144.339V39.3076ZM144.338 39.3076L145.723 37.8645C145.253 37.414 144.838 36.9409 144.474 36.4482L142.865 37.6367L141.257 38.8253C141.758 39.5037 142.324 40.1467 142.953 40.7508L144.338 39.3076ZM142.865 37.6367L141.234 36.4794C140.29 37.8101 139.089 38.8713 137.634 39.6511L138.578 41.4141L139.523 43.177C141.523 42.1056 143.194 40.6301 144.496 38.794L142.865 37.6367ZM138.578 41.4141L139.992 39.9998L139.991 39.9989L138.577 41.4131L137.163 42.8273L137.164 42.8283L138.578 41.4141ZM138.577 41.4131L137.603 39.6661C136.006 40.5567 134.252 41 132.359 41V43V45C134.903 45 137.331 44.3972 139.551 43.1601L138.577 41.4131ZM132.359 43L132.359 41C129.365 40.9999 126.775 39.9146 124.632 37.7713L123.218 39.1855L121.804 40.5998C124.683 43.4793 128.285 44.9999 132.359 45L132.359 43ZM123.218 39.1855L124.632 37.7713C123.766 36.9054 123.085 35.9712 122.58 34.9786L120.798 35.8857L119.015 36.7929C119.722 38.1816 120.658 39.4541 121.804 40.5998L123.218 39.1855ZM120.798 35.8857L119.609 34.2773C119.344 34.4735 119.059 34.6158 118.76 34.7059L119.336 36.6211L119.912 38.5363C120.663 38.3104 121.36 37.9569 121.986 37.4942L120.798 35.8857ZM119.336 36.6211H117.336V38.1123H119.336H121.336V36.6211H119.336ZM21.6543 29.9219H19.6543C19.6543 31.1551 20.0302 32.272 20.871 33.2667L22.3984 31.9756L23.9258 30.6845C23.7239 30.4455 23.6543 30.2549 23.6543 29.9219H21.6543ZM22.3984 31.9756L20.928 33.3312L21.1702 33.5939L22.6406 32.2383L24.1111 30.8826L23.8689 30.6199L22.3984 31.9756ZM22.6406 32.2383L21.2892 33.7126L21.3009 33.7233L22.6523 32.249L24.0038 30.7747L23.9921 30.764L22.6406 32.2383ZM22.6523 32.249L21.178 33.6005L21.1888 33.6122L22.6631 32.2607L24.1374 30.9093L24.1267 30.8976L22.6523 32.249ZM22.6631 32.2607L21.2331 33.659C22.2606 34.7099 23.4862 35.2246 24.957 35.2246V33.2246V31.2246C24.5603 31.2246 24.3664 31.142 24.0931 30.8625L22.6631 32.2607ZM24.957 33.2246L24.9571 35.2246C26.4277 35.2245 27.6705 34.7097 28.7277 33.6525L27.3135 32.2383L25.8993 30.8241C25.5852 31.1381 25.357 31.2246 24.9569 31.2246L24.957 33.2246ZM27.3135 32.2383L28.7278 33.6524C29.7532 32.6269 30.2598 31.3994 30.2598 29.9219H28.2598H26.2598C26.2598 30.3531 26.1643 30.559 25.8992 30.8242L27.3135 32.2383ZM28.2598 29.9219H30.2598V29.8818H28.2598H26.2598V29.9219H28.2598ZM28.2598 29.8818L30.2598 29.8818C30.2597 28.5364 29.7873 27.3237 28.7877 26.2205L27.3057 27.5635L25.8236 28.9064C26.2004 29.3223 26.2598 29.5927 26.2598 29.8819L28.2598 29.8818ZM27.3057 27.5635L28.6439 26.0771C27.5442 25.0871 26.3224 24.6202 24.9572 24.6201L24.957 26.6201L24.9569 28.6201C25.2949 28.6201 25.5728 28.6945 25.9675 29.0498L27.3057 27.5635ZM24.957 26.6201V24.6201C23.4796 24.6201 22.2521 25.1265 21.2264 26.1522L22.6406 27.5664L24.0548 28.9806C24.3199 28.7155 24.5256 28.6201 24.957 28.6201V26.6201ZM22.6406 27.5664L21.2263 26.1523C20.17 27.2088 19.6544 28.4506 19.6543 29.9217L21.6543 29.9219L23.6543 29.9221C23.6543 29.5229 23.7405 29.295 24.055 28.9805L22.6406 27.5664Z" fill="#A9B1BC" mask="url(#path-4-outside-1_206_3138)"/>
<path d="M31.0893 11.807C31.0893 11.3228 31.2776 10.8521 31.6542 10.3949C32.1114 10.0183 32.5821 9.83002 33.0663 9.83002C33.5773 9.83002 34.0615 10.0183 34.5187 10.3949C34.8953 10.8521 35.0836 11.3228 35.0836 11.807V29.9223C35.0836 32.6927 34.0884 35.0731 32.098 37.0635C30.1076 39.0539 27.7272 40.0491 24.9568 40.0491C22.1595 40.0491 19.7656 39.0539 17.7753 37.0635C15.8118 35.1 14.83 32.7196 14.83 29.9223C14.83 27.0981 15.8118 24.7042 17.7753 22.7407C19.7387 20.7772 22.1326 19.7955 24.9568 19.7955C27.2431 19.7955 29.2872 20.4813 31.0893 21.8531V11.807ZM31.0893 29.8819C31.0893 28.2681 30.4976 26.8291 29.3141 25.5649C28.05 24.3814 26.5975 23.7897 24.9568 23.7897C23.2623 23.7897 21.8233 24.3814 20.6398 25.5649C19.4294 26.7753 18.8242 28.2277 18.8242 29.9223C18.8242 31.5899 19.4294 33.0289 20.6398 34.2393C21.8233 35.4497 23.2623 36.0548 24.9568 36.0548C26.6513 36.0548 28.1038 35.4497 29.3141 34.2393C30.4976 33.0558 31.0893 31.6168 31.0893 29.9223V29.8819ZM41.3602 38.1528C41.3602 38.637 41.1719 39.1077 40.7953 39.5649C40.3919 39.9684 39.9212 40.1701 39.3832 40.1701C38.8184 40.1701 38.3477 39.9684 37.9711 39.5649C37.5677 39.1615 37.3659 38.6908 37.3659 38.1528V30.0433C37.3659 27.246 38.3611 24.8521 40.3515 22.8617C42.315 20.8982 44.6954 19.9165 47.4927 19.9165C48.0038 19.9165 48.4879 20.1048 48.9452 20.4813C49.3217 20.9386 49.51 21.4093 49.51 21.8934C49.51 22.3776 49.3217 22.8483 48.9452 23.3055C48.5417 23.709 48.0576 23.9107 47.4927 23.9107C45.7982 23.9107 44.3592 24.5025 43.1757 25.686C41.9654 26.8963 41.3602 28.3488 41.3602 30.0433V38.1528ZM53.7205 31.9799C54.1508 33.2172 54.8905 34.2124 55.9395 34.9655C57.0423 35.7455 58.2392 36.1355 59.5302 36.1355C60.0413 36.1355 60.3103 36.1221 60.3372 36.0952L60.6599 36.0548L60.9827 36.0145L61.2248 35.9742L61.4265 35.9338C62.2603 35.7455 63.1345 35.369 64.049 34.8041C64.5062 34.5083 65.0038 34.4679 65.5418 34.6831C66.1066 34.8983 66.4966 35.2479 66.7118 35.7321C67.1959 36.7273 66.8732 37.6149 65.7435 38.3949C64.3986 39.1749 63.2152 39.686 62.1931 39.928L61.9106 39.9684L61.5879 40.0087L61.1844 40.0491L60.7406 40.0894L60.1354 40.1298H59.5302C56.7329 40.1298 54.3391 39.1346 52.3487 37.1442C50.3852 35.1807 49.4035 32.8003 49.4035 30.003C49.4035 27.1788 50.3852 24.7849 52.3487 22.8214C54.3122 20.8579 56.7061 19.8762 59.5302 19.8762C62.2469 19.8762 64.5466 20.7369 66.4294 22.4583C68.5811 24.3949 69.657 26.9098 69.657 30.003C69.657 30.4871 69.4687 30.9578 69.0922 31.4151C68.6349 31.7916 68.1508 31.9799 67.6397 31.9799H53.7205ZM65.3804 27.9857C64.9769 26.6408 64.1969 25.6053 63.0403 24.879C62.0451 24.2066 60.8751 23.8704 59.5302 23.8704C58.2392 23.8704 57.0423 24.2604 55.9395 25.0404C54.8905 25.7935 54.1508 26.7753 53.7205 27.9857H65.3804ZM73.1302 33.392C74.0716 33.1768 74.8651 33.7013 75.5106 34.9655C75.9679 35.7724 76.6403 36.1759 77.5279 36.1759C78.0927 36.1759 78.5769 35.9742 78.9804 35.5707C79.3838 35.1672 79.5855 34.6696 79.5855 34.0779C79.5855 33.5131 79.3838 33.0289 78.9804 32.6254C78.5769 32.222 78.0927 32.0203 77.5279 32.0203C75.8603 32.0203 74.4347 31.4285 73.2513 30.245C72.0678 29.1154 71.4761 27.6898 71.4761 25.9684C71.4761 24.3007 72.0678 22.8752 73.2513 21.6917C74.4347 20.5082 75.8603 19.9165 77.5279 19.9165C78.9266 19.9165 80.2042 20.3334 81.3607 21.1672C82.4904 22.0279 83.1494 23.0097 83.3377 24.1125C83.4453 24.4352 83.3511 24.9463 83.0553 25.6456C82.7863 26.076 82.3694 26.3584 81.8046 26.4929C80.648 26.7349 79.8545 26.2373 79.4242 25.0001C79.1552 24.2738 78.5231 23.9107 77.5279 23.9107C76.9631 23.9107 76.4789 24.1125 76.0755 24.5159C75.672 24.9194 75.4703 25.4035 75.4703 25.9684C75.4703 26.5332 75.672 27.0174 76.0755 27.4208C76.4789 27.8243 76.9631 28.026 77.5279 28.026C79.1955 28.026 80.6211 28.6178 81.8046 29.8012C82.988 30.9847 83.5798 32.4103 83.5798 34.0779C83.5798 35.6917 82.988 37.1307 81.8046 38.3949C80.6211 39.5784 79.1955 40.1701 77.5279 40.1701C76.1562 40.1701 74.9054 39.7263 73.7758 38.8387C72.7268 38.0318 72.0005 37.0097 71.5971 35.7724C71.4088 35.2614 71.4895 34.7638 71.8392 34.2796C72.1888 33.7955 72.6192 33.4996 73.1302 33.392ZM87.5901 33.392C88.5315 33.1768 89.3249 33.7013 89.9705 34.9655C90.4277 35.7724 91.1002 36.1759 91.9878 36.1759C92.5526 36.1759 93.0368 35.9742 93.4402 35.5707C93.8437 35.1672 94.0454 34.6696 94.0454 34.0779C94.0454 33.5131 93.8437 33.0289 93.4402 32.6254C93.0368 32.222 92.5526 32.0203 91.9878 32.0203C90.3201 32.0203 88.8946 31.4285 87.7111 30.245C86.5276 29.1154 85.9359 27.6898 85.9359 25.9684C85.9359 24.3007 86.5276 22.8752 87.7111 21.6917C88.8946 20.5082 90.3201 19.9165 91.9878 19.9165C93.3864 19.9165 94.664 20.3334 95.8206 21.1672C96.9503 22.0279 97.6093 23.0097 97.7975 24.1125C97.9051 24.4352 97.811 24.9463 97.5151 25.6456C97.2462 26.076 96.8292 26.3584 96.2644 26.4929C95.1078 26.7349 94.3144 26.2373 93.884 25.0001C93.615 24.2738 92.983 23.9107 91.9878 23.9107C91.4229 23.9107 90.9388 24.1125 90.5353 24.5159C90.1319 24.9194 89.9301 25.4035 89.9301 25.9684C89.9301 26.5332 90.1319 27.0174 90.5353 27.4208C90.9388 27.8243 91.4229 28.026 91.9878 28.026C93.6554 28.026 95.0809 28.6178 96.2644 29.8012C97.4479 30.9847 98.0396 32.4103 98.0396 34.0779C98.0396 35.6917 97.4479 37.1307 96.2644 38.3949C95.0809 39.5784 93.6554 40.1701 91.9878 40.1701C90.616 40.1701 89.3653 39.7263 88.2356 38.8387C87.1866 38.0318 86.4604 37.0097 86.0569 35.7724C85.8687 35.2614 85.9493 34.7638 86.299 34.2796C86.6487 33.7955 87.079 33.4996 87.5901 33.392ZM112.471 33.9972H101.336C100.368 33.9972 99.7491 33.5803 99.4801 32.7465C99.1842 31.9665 99.2784 31.2806 99.7625 30.6888L112.956 12.4122L113.036 12.3315C113.682 11.6859 114.421 11.538 115.255 11.8877C116.089 12.1566 116.506 12.7753 116.506 13.7436V29.9626H117.918C118.429 29.9626 118.913 30.1509 119.371 30.5275C119.747 30.9847 119.935 31.4689 119.935 31.9799C119.935 32.4641 119.747 32.9348 119.371 33.392C118.967 33.7955 118.483 33.9972 117.918 33.9972H116.506V38.1125C116.506 38.5966 116.318 39.0673 115.941 39.5246C115.538 39.928 115.054 40.1298 114.489 40.1298C113.924 40.1298 113.453 39.928 113.077 39.5246C112.673 39.1211 112.471 38.6504 112.471 38.1125V33.9972ZM112.471 29.9626V19.513L105.532 29.9626H112.471ZM141.357 26.4929C141.195 27.0039 140.886 27.4074 140.429 27.7032C139.945 27.9722 139.434 28.026 138.896 27.8646C138.385 27.757 137.981 27.4612 137.685 26.977C136.529 24.9328 134.754 23.9107 132.36 23.9107C130.746 23.9107 129.307 24.5025 128.043 25.686C126.832 26.8963 126.227 28.3488 126.227 30.0433C126.227 31.7109 126.832 33.1499 128.043 34.3603C129.253 35.5707 130.692 36.1759 132.36 36.1759C134.592 36.1759 136.314 35.2345 137.524 33.3517C137.793 32.9213 138.223 32.6389 138.815 32.5044C139.353 32.3699 139.851 32.4506 140.308 32.7465C140.738 33.0155 141.021 33.4324 141.155 33.9972C141.263 34.32 141.168 34.831 140.873 35.5303C139.958 36.9828 138.748 38.1125 137.241 38.9194C135.762 39.7532 134.135 40.1701 132.36 40.1701C129.589 40.1701 127.209 39.1749 125.218 37.1845C123.255 35.221 122.273 32.8406 122.273 30.0433C122.273 27.2191 123.255 24.8252 125.218 22.8617C127.182 20.8982 129.562 19.9165 132.36 19.9165C134.189 19.9165 135.883 20.3737 137.443 21.2883C138.949 22.0952 140.187 23.319 141.155 24.9597C141.424 25.2287 141.491 25.7397 141.357 26.4929ZM163.444 38.0721C163.444 38.6639 163.256 39.148 162.88 39.5246C162.503 39.9012 162.019 40.0894 161.427 40.0894C161.051 40.0894 160.634 39.9012 160.176 39.5246C159.719 39.0673 159.491 38.5832 159.491 38.0721C157.823 39.417 155.833 40.0894 153.519 40.0894C150.668 40.0894 148.261 39.148 146.298 37.2652C144.307 35.3555 143.312 32.9886 143.312 30.1643C143.312 27.3401 144.307 24.9328 146.298 22.9424C148.288 20.952 150.695 19.9568 153.519 19.9568C156.344 19.9568 158.711 20.952 160.62 22.9424C162.503 24.9059 163.444 27.3132 163.444 30.1643V38.0721ZM149.122 34.4007C150.278 35.5572 151.744 36.1355 153.519 36.1355C155.214 36.1355 156.639 35.5572 157.796 34.4007C158.926 33.271 159.491 31.8589 159.491 30.1643C159.491 28.4429 158.926 26.977 157.796 25.7666C156.639 24.5294 155.214 23.9107 153.519 23.9107C151.825 23.9107 150.359 24.5294 149.122 25.7666C147.884 27.0039 147.266 28.4698 147.266 30.1643C147.266 31.832 147.884 33.2441 149.122 34.4007ZM169.844 38.1528C169.844 38.637 169.656 39.1077 169.279 39.5649C168.876 39.9684 168.405 40.1701 167.867 40.1701C167.302 40.1701 166.831 39.9684 166.455 39.5649C166.051 39.1615 165.85 38.6908 165.85 38.1528V30.0433C165.85 27.246 166.845 24.8521 168.835 22.8617C170.799 20.8982 173.179 19.9165 175.977 19.9165C176.488 19.9165 176.972 20.1048 177.429 20.4813C177.806 20.9386 177.994 21.4093 177.994 21.8934C177.994 22.3776 177.806 22.8483 177.429 23.3055C177.026 23.709 176.541 23.9107 175.977 23.9107C174.282 23.9107 172.843 24.5025 171.66 25.686C170.449 26.8963 169.844 28.3488 169.844 30.0433V38.1528Z" fill="#F60114"/>
<ellipse cx="132.272" cy="29.9091" rx="1.63636" ry="1.63636" fill="#A9B1BC"/>
</svg>
