<svg width="23" height="23" viewBox="0 0 23 23" fill="none" xmlns="http://www.w3.org/2000/svg">
<path d="M4.7 18C4.2325 18 3.83243 17.841 3.4998 17.5231C3.16717 17.2051 3.00057 16.8224 3 16.375V6.625C3 6.17812 3.1666 5.79571 3.4998 5.47775C3.833 5.15979 4.23307 5.00054 4.7 5H18.3C18.7675 5 19.1678 5.15925 19.501 5.47775C19.8342 5.79625 20.0006 6.17867 20 6.625V16.375C20 16.8219 19.8337 17.2046 19.501 17.5231C19.1684 17.8416 18.7681 18.0005 18.3 18H4.7ZM11.7235 12.1402C11.8012 12.1197 11.8754 12.0891 11.9462 12.0484L17.96 8.45312C18.0733 8.38542 18.1583 8.30092 18.215 8.19962C18.2717 8.09833 18.3 7.98648 18.3 7.86406C18.3 7.59323 18.1796 7.3901 17.9387 7.25469C17.6979 7.11927 17.45 7.12604 17.195 7.275L11.5 10.6875L5.805 7.275C5.55 7.12604 5.30208 7.12279 5.06125 7.26525C4.82042 7.40771 4.7 7.60731 4.7 7.86406C4.7 7.99948 4.72833 8.1181 4.785 8.21994C4.84167 8.32177 4.92667 8.3995 5.04 8.45312L11.0537 12.0484C11.1246 12.0891 11.1991 12.1197 11.2773 12.1402C11.3555 12.1608 11.4297 12.1709 11.5 12.1703C11.5703 12.1698 11.6448 12.1597 11.7235 12.1402Z" fill="#F60114"/>
</svg>
