<svg width="23" height="23" viewBox="0 0 23 23" fill="none" xmlns="http://www.w3.org/2000/svg">
<path d="M11.5007 3.83331C12.5173 3.83331 13.4923 4.23718 14.2112 4.95607C14.9301 5.67496 15.334 6.64998 15.334 7.66665C15.334 8.68331 14.9301 9.65833 14.2112 10.3772C13.4923 11.0961 12.5173 11.5 11.5007 11.5C10.484 11.5 9.50896 11.0961 8.79007 10.3772C8.07119 9.65833 7.66732 8.68331 7.66732 7.66665C7.66732 6.64998 8.07119 5.67496 8.79007 4.95607C9.50896 4.23718 10.484 3.83331 11.5007 3.83331ZM11.5007 13.4166C15.7365 13.4166 19.1673 15.1321 19.1673 17.25V19.1666H3.83398V17.25C3.83398 15.1321 7.26482 13.4166 11.5007 13.4166Z" fill="#F60114"/>
</svg>
