<svg width="1920" height="221" viewBox="0 0 1920 221" fill="none" xmlns="http://www.w3.org/2000/svg">
<g clip-path="url(#clip0_2014_147)">
<path opacity="0.21" d="M178 -7C194.846 30.6047 403.707 110.737 442.063 122.968C478.77 134.674 515.649 139.341 554.527 139.94C597.207 140.598 640.767 141.784 683.074 135.921C729.495 129.488 773.624 118.05 818.865 107.113C853.111 98.8342 890.995 84.8303 918.068 63.5666C928.219 55.5942 940.567 45.9433 937.958 32.3025C935.126 17.4937 910.996 12.7822 897.565 11.6459C854.195 7.97689 800.625 21.8796 774.42 55.8623C763.944 69.4468 762.628 96.365 768.526 111.691C777.91 136.074 798.995 152.128 824.758 161.714C863.292 176.05 908.59 185.427 950.236 183.822C1010.92 181.483 1072.73 159.804 1128.26 139.159C1176.37 121.273 1223.85 99.4479 1270.44 78.4171C1292.16 68.6094 1424 36.5 1462.5 35" stroke="#E4E4E4" stroke-width="3" stroke-linecap="round" stroke-dasharray="8 8"/>
<g opacity="0.21">
<path d="M1467.72 15.4316L1507.68 32.5034L1469.43 54.5668L1473.24 34.0109L1467.72 15.4316Z" stroke="#E4E4E4" stroke-width="3" stroke-linecap="round" stroke-linejoin="round"/>
<path d="M1474.8 33.9424L1485.76 33.4627" stroke="#E4E4E4" stroke-width="3" stroke-linecap="round" stroke-linejoin="round"/>
</g>
</g>
<defs>
<clipPath id="clip0_2014_147">
<rect width="1920" height="221" fill="white"/>
</clipPath>
</defs>
</svg>
