<svg width="23" height="23" viewBox="0 0 23 23" fill="none" xmlns="http://www.w3.org/2000/svg">
<path d="M15.7502 4.13891C17.0322 4.87914 18.0987 5.94135 18.844 7.22041C19.5894 8.49947 19.9878 9.95101 19.9997 11.4313C20.0117 12.9117 19.6368 14.3695 18.9122 15.6604C18.1876 16.9513 17.1384 18.0306 15.8685 18.7915C14.5986 19.5523 13.152 19.9683 11.6719 19.9983C10.1918 20.0282 8.72954 19.6711 7.42988 18.9623C6.13021 18.2534 5.03822 17.2175 4.26198 15.9569C3.48575 14.6963 3.0522 13.2549 3.00425 11.7753L3 11.4999L3.00425 11.2245C3.05185 9.75655 3.47902 8.32597 4.24411 7.07225C5.0092 5.81853 6.08609 4.78444 7.36981 4.07081C8.65353 3.35717 10.1003 2.98835 11.569 3.00028C13.0377 3.01222 14.4782 3.40451 15.7502 4.13891ZM11.5001 6.39991C11.2919 6.39994 11.091 6.47637 10.9354 6.61472C10.7798 6.75306 10.6804 6.94369 10.656 7.15046L10.6501 7.24991V11.4999L10.6577 11.6113C10.6771 11.7587 10.7349 11.8985 10.8252 12.0167L10.8991 12.1017L13.4492 14.6517L13.5291 14.7214C13.6781 14.8371 13.8615 14.8998 14.0501 14.8998C14.2388 14.8998 14.4221 14.8371 14.5712 14.7214L14.6511 14.6509L14.7216 14.571C14.8373 14.4219 14.9001 14.2386 14.9001 14.0499C14.9001 13.8612 14.8373 13.6779 14.7216 13.5289L14.6511 13.449L12.3501 11.1472V7.24991L12.3442 7.15046C12.3198 6.94369 12.2204 6.75306 12.0648 6.61472C11.9092 6.47637 11.7083 6.39994 11.5001 6.39991Z" fill="#F60114"/>
</svg>
