<svg width="252" height="68" viewBox="0 0 252 68" fill="none" xmlns="http://www.w3.org/2000/svg">
<rect width="252" height="68" rx="8" fill="#0022B2"/>
<ellipse cx="203.167" cy="39.6259" rx="5.52483" ry="5.5248" fill="#A9B1BC"/>
<ellipse cx="29.6796" cy="39.6269" rx="5.52483" ry="5.5248" fill="#A9B1BC"/>
<mask id="path-4-outside-1_206_3861" maskUnits="userSpaceOnUse" x="10" y="6.69092" width="232" height="53" fill="black">
<rect fill="white" x="10" y="6.69092" width="232" height="53"/>
<path fill-rule="evenodd" clip-rule="evenodd" d="M174.548 35.3501C173.429 35.3501 172.414 35.7178 171.373 36.6763C170.48 37.5887 170.088 38.5694 170.088 39.811C170.088 41.0196 170.481 41.9991 171.42 42.938C172.359 43.8771 173.339 44.271 174.548 44.271C176.151 44.271 177.232 43.7375 178.13 42.4741L178.308 42.2124C178.971 41.1689 179.863 40.4388 180.844 39.9595C179.859 39.4131 179.062 38.6165 178.479 37.6626L178.445 37.6079L178.414 37.5513C177.546 36.0179 176.436 35.3501 174.548 35.3501ZM203.124 35.3501C201.886 35.3502 200.868 35.7576 199.888 36.7378C198.908 37.718 198.501 38.7358 198.501 39.9741C198.501 41.1491 198.884 42.0509 199.795 42.9028L199.843 42.9478L199.888 42.9927C200.668 43.7731 201.645 44.2162 203.124 44.2163C204.44 44.2163 205.38 43.8095 206.197 42.9927C206.959 42.2306 207.366 41.3172 207.366 39.9741C207.366 38.5751 206.943 37.5395 206.106 36.6431V36.6421C205.268 35.7464 204.354 35.3501 203.124 35.3501ZM156.959 50.7085C156.959 52.4339 156.266 53.9009 155.324 55.0444L155.207 55.187L155.077 55.3179C153.824 56.5713 152.201 57.2543 150.413 57.2544C148.662 57.2544 147.043 56.5935 145.804 55.3159L145.803 55.3179C144.59 54.1046 143.866 52.5147 143.866 50.7085V48.9722H132.649C132.267 48.9721 131.87 48.9455 131.466 48.8823C130.905 50.6527 129.931 52.2698 128.591 53.7017L128.548 53.7476L128.503 53.7925C126.191 56.1044 123.294 57.3091 120.024 57.3091C117.286 57.309 114.785 56.4029 112.627 54.7173V54.7183C111.701 54.0056 110.897 53.193 110.221 52.2896C109.872 52.7776 109.486 53.2494 109.062 53.7017L109.02 53.7476L108.975 53.7925C106.663 56.1043 103.767 57.309 100.497 57.3091C97.7583 57.3091 95.2565 56.403 93.0986 54.7173V54.7183C91.6431 53.5986 90.489 52.2338 89.6621 50.6528C89.6558 50.6706 89.651 50.6888 89.6445 50.7065C89.0578 52.3201 87.8855 53.4529 86.7529 54.2349L86.6289 54.3198L86.499 54.396C84.4989 55.5561 82.5405 56.4357 80.667 56.8794L80.499 56.9194L80.3271 56.9438L79.9453 56.9985L79.9121 57.0024L79.8789 57.0073L79.4434 57.062L79.3965 57.0679L79.3496 57.0718L78.8047 57.1265L78.7871 57.1284L78.7705 57.1294L78.1709 57.1841L78.125 57.189L78.0791 57.1919L77.2617 57.2456L77.1348 57.2544H76.1904C71.3918 57.2544 67.1888 55.5028 63.7891 52.103C60.4147 48.7286 58.6924 44.5393 58.6924 39.7563C58.6924 38.2426 58.8618 36.788 59.2002 35.3999C58.2633 35.5314 57.5037 35.9304 56.8057 36.6284C55.8796 37.5545 55.4736 38.5477 55.4736 39.811V50.7622C55.4736 52.4877 54.7806 53.9555 53.8389 55.0991L53.7217 55.2417L53.5908 55.3726C52.3775 56.5858 50.7877 57.3091 48.9814 57.3091C47.2304 57.3091 45.6113 56.6488 44.3721 55.3716V55.3726C44.341 55.3415 44.3107 55.3094 44.2803 55.2778V55.2769C43.253 54.2109 42.5965 52.8675 42.4619 51.3481C42.2627 51.5662 42.0576 51.7817 41.8457 51.9937C38.4538 55.3856 34.2713 57.146 29.498 57.146C24.6996 57.1459 20.4964 55.3933 17.0967 51.9937C13.7225 48.6193 12 44.4298 12 39.647C12.0001 34.8387 13.7146 30.6276 17.0967 27.2456C20.4787 23.8636 24.6898 22.149 29.498 22.1489C31.0405 22.1489 32.5299 22.3371 33.959 22.7065V15.1821C33.9591 13.4566 34.651 11.9888 35.5928 10.8452L35.8281 10.5601L36.1133 10.3247C37.2569 9.38292 38.7247 8.69097 40.4502 8.69092L40.7695 8.69775C42.2447 8.7685 43.5436 9.32674 44.6152 10.146L44.8418 10.3247L45.127 10.5601L45.3623 10.8452C46.3041 11.9888 46.997 13.4566 46.9971 15.1821V28.0249C47.1877 27.8169 47.3846 27.612 47.5869 27.4097C50.9613 24.0353 55.1506 22.312 59.9336 22.312L60.252 22.3198C61.7273 22.3904 63.0269 22.9478 64.0986 23.7671L64.3252 23.9468L64.6104 24.1821L64.8457 24.4673C65.1564 24.8446 65.4382 25.2582 65.6787 25.7036C68.694 23.4156 72.2405 22.2583 76.1904 22.2583C80.7356 22.2583 84.772 23.7269 88.0635 26.7261H88.0645C88.7378 27.3321 89.349 27.9731 89.9004 28.645C90.4493 27.6326 91.1574 26.6908 92.0186 25.8296C94.3307 23.5175 97.2271 22.312 100.497 22.312C103.035 22.3121 105.395 23.038 107.492 24.4351L107.908 24.7231L107.949 24.7524L107.989 24.7837C108.899 25.4766 109.713 26.27 110.38 27.1675C110.731 26.7023 111.12 26.2563 111.547 25.8296C113.859 23.5176 116.755 22.3121 120.024 22.312C122.563 22.312 124.923 23.0379 127.021 24.4351L127.437 24.7231L127.478 24.7524L127.518 24.7837C129.532 26.3188 131.078 28.3472 131.589 30.9097C131.733 31.4656 131.766 31.995 131.745 32.4604L145.243 13.7632L145.423 13.5142L145.749 13.188L146.082 12.8745C146.888 12.1602 147.895 11.5813 149.104 11.3394C150.404 11.0795 151.636 11.2718 152.712 11.6851C153.909 12.0894 155.065 12.8383 155.885 14.0542C156.702 15.2665 156.959 16.6072 156.959 17.7974V36.1655C157.116 36.2135 157.271 36.266 157.423 36.3247C158.063 32.9514 159.663 29.9474 162.201 27.4097C165.576 24.0353 169.765 22.312 174.548 22.312C177.64 22.312 180.552 23.0841 183.218 24.6177C185.472 25.8254 187.339 27.5316 188.836 29.644C189.381 28.9045 189.992 28.1949 190.669 27.5181C194.076 24.1109 198.3 22.3668 203.124 22.3667C207.951 22.3667 212.153 24.1157 215.472 27.5747L215.473 27.5757C216.554 28.7029 217.453 29.9201 218.174 31.2173C218.951 29.8576 219.93 28.5857 221.106 27.4097C224.481 24.0353 228.67 22.312 233.453 22.312C235.06 22.312 236.47 22.8894 237.618 23.7671L237.845 23.9468L238.13 24.1821L238.365 24.4673C239.307 25.6109 240 27.0786 240 28.8042C240 30.5298 239.307 31.9975 238.365 33.1411L238.248 33.2837L238.117 33.4136C236.864 34.667 235.241 35.3501 233.453 35.3501C232.164 35.3501 231.197 35.7569 230.325 36.6284C229.399 37.5544 228.993 38.5478 228.993 39.811V50.7622C228.993 52.4878 228.3 53.9555 227.358 55.0991L227.241 55.2417L227.111 55.3726C225.898 56.5859 224.307 57.3091 222.501 57.3091C220.866 57.309 219.347 56.7333 218.144 55.6177C216.89 56.7127 215.357 57.1997 213.804 57.1997C212.217 57.1996 210.926 56.5088 210.004 55.8149C207.887 56.7452 205.578 57.1997 203.124 57.1997C198.34 57.1996 194.126 55.5832 190.726 52.3228V52.3218C189.983 51.6097 189.32 50.8568 188.735 50.0659C187.234 52.1822 185.318 53.88 183.017 55.1265L183.018 55.1274C180.421 56.5912 177.572 57.3091 174.548 57.3091C169.775 57.3091 165.593 55.5495 162.201 52.1577C160.843 50.7997 159.753 49.3092 158.935 47.7017C158.332 48.1468 157.668 48.4804 156.959 48.6938V50.7085ZM25.0381 39.647C25.0381 40.7803 25.3842 41.7123 26.2012 42.5981L26.3711 42.7749L26.3857 42.7905L26.4014 42.8052C27.2797 43.7034 28.2371 44.1069 29.498 44.1069C30.7614 44.1069 31.7546 43.7009 32.6807 42.7749C33.5522 41.9033 33.959 40.9359 33.959 39.647V39.5923C33.9589 38.4902 33.6014 37.4895 32.6748 36.4653C31.6643 35.554 30.6499 35.187 29.498 35.187C28.2092 35.1871 27.2426 35.5939 26.3711 36.4653C25.4451 37.3913 25.0381 38.3838 25.0381 39.647Z"/>
</mask>
<path fill-rule="evenodd" clip-rule="evenodd" d="M174.548 35.3501C173.429 35.3501 172.414 35.7178 171.373 36.6763C170.48 37.5887 170.088 38.5694 170.088 39.811C170.088 41.0196 170.481 41.9991 171.42 42.938C172.359 43.8771 173.339 44.271 174.548 44.271C176.151 44.271 177.232 43.7375 178.13 42.4741L178.308 42.2124C178.971 41.1689 179.863 40.4388 180.844 39.9595C179.859 39.4131 179.062 38.6165 178.479 37.6626L178.445 37.6079L178.414 37.5513C177.546 36.0179 176.436 35.3501 174.548 35.3501ZM203.124 35.3501C201.886 35.3502 200.868 35.7576 199.888 36.7378C198.908 37.718 198.501 38.7358 198.501 39.9741C198.501 41.1491 198.884 42.0509 199.795 42.9028L199.843 42.9478L199.888 42.9927C200.668 43.7731 201.645 44.2162 203.124 44.2163C204.44 44.2163 205.38 43.8095 206.197 42.9927C206.959 42.2306 207.366 41.3172 207.366 39.9741C207.366 38.5751 206.943 37.5395 206.106 36.6431V36.6421C205.268 35.7464 204.354 35.3501 203.124 35.3501ZM156.959 50.7085C156.959 52.4339 156.266 53.9009 155.324 55.0444L155.207 55.187L155.077 55.3179C153.824 56.5713 152.201 57.2543 150.413 57.2544C148.662 57.2544 147.043 56.5935 145.804 55.3159L145.803 55.3179C144.59 54.1046 143.866 52.5147 143.866 50.7085V48.9722H132.649C132.267 48.9721 131.87 48.9455 131.466 48.8823C130.905 50.6527 129.931 52.2698 128.591 53.7017L128.548 53.7476L128.503 53.7925C126.191 56.1044 123.294 57.3091 120.024 57.3091C117.286 57.309 114.785 56.4029 112.627 54.7173V54.7183C111.701 54.0056 110.897 53.193 110.221 52.2896C109.872 52.7776 109.486 53.2494 109.062 53.7017L109.02 53.7476L108.975 53.7925C106.663 56.1043 103.767 57.309 100.497 57.3091C97.7583 57.3091 95.2565 56.403 93.0986 54.7173V54.7183C91.6431 53.5986 90.489 52.2338 89.6621 50.6528C89.6558 50.6706 89.651 50.6888 89.6445 50.7065C89.0578 52.3201 87.8855 53.4529 86.7529 54.2349L86.6289 54.3198L86.499 54.396C84.4989 55.5561 82.5405 56.4357 80.667 56.8794L80.499 56.9194L80.3271 56.9438L79.9453 56.9985L79.9121 57.0024L79.8789 57.0073L79.4434 57.062L79.3965 57.0679L79.3496 57.0718L78.8047 57.1265L78.7871 57.1284L78.7705 57.1294L78.1709 57.1841L78.125 57.189L78.0791 57.1919L77.2617 57.2456L77.1348 57.2544H76.1904C71.3918 57.2544 67.1888 55.5028 63.7891 52.103C60.4147 48.7286 58.6924 44.5393 58.6924 39.7563C58.6924 38.2426 58.8618 36.788 59.2002 35.3999C58.2633 35.5314 57.5037 35.9304 56.8057 36.6284C55.8796 37.5545 55.4736 38.5477 55.4736 39.811V50.7622C55.4736 52.4877 54.7806 53.9555 53.8389 55.0991L53.7217 55.2417L53.5908 55.3726C52.3775 56.5858 50.7877 57.3091 48.9814 57.3091C47.2304 57.3091 45.6113 56.6488 44.3721 55.3716V55.3726C44.341 55.3415 44.3107 55.3094 44.2803 55.2778V55.2769C43.253 54.2109 42.5965 52.8675 42.4619 51.3481C42.2627 51.5662 42.0576 51.7817 41.8457 51.9937C38.4538 55.3856 34.2713 57.146 29.498 57.146C24.6996 57.1459 20.4964 55.3933 17.0967 51.9937C13.7225 48.6193 12 44.4298 12 39.647C12.0001 34.8387 13.7146 30.6276 17.0967 27.2456C20.4787 23.8636 24.6898 22.149 29.498 22.1489C31.0405 22.1489 32.5299 22.3371 33.959 22.7065V15.1821C33.9591 13.4566 34.651 11.9888 35.5928 10.8452L35.8281 10.5601L36.1133 10.3247C37.2569 9.38292 38.7247 8.69097 40.4502 8.69092L40.7695 8.69775C42.2447 8.7685 43.5436 9.32674 44.6152 10.146L44.8418 10.3247L45.127 10.5601L45.3623 10.8452C46.3041 11.9888 46.997 13.4566 46.9971 15.1821V28.0249C47.1877 27.8169 47.3846 27.612 47.5869 27.4097C50.9613 24.0353 55.1506 22.312 59.9336 22.312L60.252 22.3198C61.7273 22.3904 63.0269 22.9478 64.0986 23.7671L64.3252 23.9468L64.6104 24.1821L64.8457 24.4673C65.1564 24.8446 65.4382 25.2582 65.6787 25.7036C68.694 23.4156 72.2405 22.2583 76.1904 22.2583C80.7356 22.2583 84.772 23.7269 88.0635 26.7261H88.0645C88.7378 27.3321 89.349 27.9731 89.9004 28.645C90.4493 27.6326 91.1574 26.6908 92.0186 25.8296C94.3307 23.5175 97.2271 22.312 100.497 22.312C103.035 22.3121 105.395 23.038 107.492 24.4351L107.908 24.7231L107.949 24.7524L107.989 24.7837C108.899 25.4766 109.713 26.27 110.38 27.1675C110.731 26.7023 111.12 26.2563 111.547 25.8296C113.859 23.5176 116.755 22.3121 120.024 22.312C122.563 22.312 124.923 23.0379 127.021 24.4351L127.437 24.7231L127.478 24.7524L127.518 24.7837C129.532 26.3188 131.078 28.3472 131.589 30.9097C131.733 31.4656 131.766 31.995 131.745 32.4604L145.243 13.7632L145.423 13.5142L145.749 13.188L146.082 12.8745C146.888 12.1602 147.895 11.5813 149.104 11.3394C150.404 11.0795 151.636 11.2718 152.712 11.6851C153.909 12.0894 155.065 12.8383 155.885 14.0542C156.702 15.2665 156.959 16.6072 156.959 17.7974V36.1655C157.116 36.2135 157.271 36.266 157.423 36.3247C158.063 32.9514 159.663 29.9474 162.201 27.4097C165.576 24.0353 169.765 22.312 174.548 22.312C177.64 22.312 180.552 23.0841 183.218 24.6177C185.472 25.8254 187.339 27.5316 188.836 29.644C189.381 28.9045 189.992 28.1949 190.669 27.5181C194.076 24.1109 198.3 22.3668 203.124 22.3667C207.951 22.3667 212.153 24.1157 215.472 27.5747L215.473 27.5757C216.554 28.7029 217.453 29.9201 218.174 31.2173C218.951 29.8576 219.93 28.5857 221.106 27.4097C224.481 24.0353 228.67 22.312 233.453 22.312C235.06 22.312 236.47 22.8894 237.618 23.7671L237.845 23.9468L238.13 24.1821L238.365 24.4673C239.307 25.6109 240 27.0786 240 28.8042C240 30.5298 239.307 31.9975 238.365 33.1411L238.248 33.2837L238.117 33.4136C236.864 34.667 235.241 35.3501 233.453 35.3501C232.164 35.3501 231.197 35.7569 230.325 36.6284C229.399 37.5544 228.993 38.5478 228.993 39.811V50.7622C228.993 52.4878 228.3 53.9555 227.358 55.0991L227.241 55.2417L227.111 55.3726C225.898 56.5859 224.307 57.3091 222.501 57.3091C220.866 57.309 219.347 56.7333 218.144 55.6177C216.89 56.7127 215.357 57.1997 213.804 57.1997C212.217 57.1996 210.926 56.5088 210.004 55.8149C207.887 56.7452 205.578 57.1997 203.124 57.1997C198.34 57.1996 194.126 55.5832 190.726 52.3228V52.3218C189.983 51.6097 189.32 50.8568 188.735 50.0659C187.234 52.1822 185.318 53.88 183.017 55.1265L183.018 55.1274C180.421 56.5912 177.572 57.3091 174.548 57.3091C169.775 57.3091 165.593 55.5495 162.201 52.1577C160.843 50.7997 159.753 49.3092 158.935 47.7017C158.332 48.1468 157.668 48.4804 156.959 48.6938V50.7085ZM25.0381 39.647C25.0381 40.7803 25.3842 41.7123 26.2012 42.5981L26.3711 42.7749L26.3857 42.7905L26.4014 42.8052C27.2797 43.7034 28.2371 44.1069 29.498 44.1069C30.7614 44.1069 31.7546 43.7009 32.6807 42.7749C33.5522 41.9033 33.959 40.9359 33.959 39.647V39.5923C33.9589 38.4902 33.6014 37.4895 32.6748 36.4653C31.6643 35.554 30.6499 35.187 29.498 35.187C28.2092 35.1871 27.2426 35.5939 26.3711 36.4653C25.4451 37.3913 25.0381 38.3838 25.0381 39.647Z" fill="white"/>
<path d="M174.548 35.3501V33.3501V33.3501V35.3501ZM171.373 36.6763L170.018 35.2052C169.993 35.2287 169.968 35.2528 169.943 35.2776L171.373 36.6763ZM170.088 39.811H168.088V39.8112L170.088 39.811ZM171.42 42.938L170.006 44.3521L170.006 44.3522L171.42 42.938ZM174.548 44.271V46.271V46.271V44.271ZM178.13 42.4741L179.76 43.6329C179.768 43.6213 179.776 43.6095 179.784 43.5977L178.13 42.4741ZM178.308 42.2124L179.962 43.336C179.974 43.3193 179.985 43.3024 179.995 43.2853L178.308 42.2124ZM180.844 39.9595L181.722 41.7563C182.392 41.429 182.824 40.7564 182.843 40.0113C182.862 39.2661 182.466 38.5721 181.814 38.2105L180.844 39.9595ZM178.479 37.6626L180.186 36.6196C180.183 36.6139 180.179 36.6083 180.175 36.6026L178.479 37.6626ZM178.445 37.6079L176.694 38.5741C176.712 38.6058 176.73 38.6371 176.749 38.6679L178.445 37.6079ZM178.414 37.5513L180.165 36.5851C180.162 36.5788 180.158 36.5726 180.155 36.5663L178.414 37.5513ZM203.124 35.3501V33.3501H203.124L203.124 35.3501ZM199.888 36.7378L198.473 35.3236L198.473 35.3236L199.888 36.7378ZM198.501 39.9741L196.501 39.9741V39.9741H198.501ZM199.795 42.9028L201.164 41.4447L201.161 41.4419L199.795 42.9028ZM199.843 42.9478L201.257 41.5335C201.242 41.5187 201.227 41.504 201.212 41.4896L199.843 42.9478ZM199.888 42.9927L198.473 44.4069V44.4069L199.888 42.9927ZM203.124 44.2163L203.124 46.2163H203.124V44.2163ZM206.197 42.9927L207.611 44.4069L207.611 44.4069L206.197 42.9927ZM207.366 39.9741H209.366V39.9741L207.366 39.9741ZM206.106 36.6431H204.106C204.106 37.1496 204.299 37.6373 204.644 38.0076L206.106 36.6431ZM206.106 36.6421H208.106C208.106 36.1346 207.913 35.646 207.567 35.2755L206.106 36.6421ZM156.959 50.7085L158.959 50.7086V50.7085H156.959ZM155.324 55.0444L153.78 53.773L153.779 53.7745L155.324 55.0444ZM155.207 55.187L156.627 56.5959C156.671 56.5516 156.712 56.5052 156.752 56.4569L155.207 55.187ZM155.077 55.3179L156.491 56.7321L156.497 56.7268L155.077 55.3179ZM150.413 57.2544V59.2544H150.413L150.413 57.2544ZM145.804 55.3159L147.239 53.9233C146.788 53.4581 146.139 53.2404 145.498 53.3394C144.858 53.4383 144.305 53.8417 144.015 54.4215L145.804 55.3159ZM145.803 55.3179L144.388 56.732C144.843 57.1866 145.488 57.395 146.123 57.2921C146.758 57.1891 147.304 56.7873 147.592 56.2123L145.803 55.3179ZM143.866 50.7085H141.866V50.7086L143.866 50.7085ZM143.866 48.9722H145.866C145.866 47.8676 144.971 46.9722 143.866 46.9722V48.9722ZM132.649 48.9722L132.649 50.9722H132.649V48.9722ZM131.466 48.8823L131.775 46.9063C130.799 46.7537 129.857 47.3367 129.559 48.2785L131.466 48.8823ZM128.591 53.7017L130.051 55.0685V55.0685L128.591 53.7017ZM128.548 53.7476L129.962 55.1618C129.978 55.1462 129.993 55.1304 130.008 55.1144L128.548 53.7476ZM128.503 53.7925L129.917 55.2067L129.917 55.2067L128.503 53.7925ZM120.024 57.3091L120.024 59.3091H120.024V57.3091ZM112.627 54.7173L113.858 53.1412C113.256 52.6705 112.437 52.5845 111.75 52.9197C111.063 53.2549 110.627 53.9527 110.627 54.7173H112.627ZM112.627 54.7183L111.408 56.3035C112.011 56.7681 112.827 56.8491 113.51 56.5125C114.194 56.176 114.627 55.4802 114.627 54.7183H112.627ZM110.221 52.2896L111.822 51.0911C111.44 50.5805 110.837 50.2828 110.199 50.2897C109.561 50.2965 108.965 50.6072 108.594 51.1259L110.221 52.2896ZM109.062 53.7017L107.602 52.3348V52.3348L109.062 53.7017ZM109.02 53.7476L110.434 55.1618C110.449 55.1462 110.465 55.1304 110.48 55.1144L109.02 53.7476ZM108.975 53.7925L110.389 55.2067L110.389 55.2067L108.975 53.7925ZM100.497 57.3091V59.3091H100.497L100.497 57.3091ZM93.0986 54.7173L94.3298 53.1412C93.7273 52.6705 92.9091 52.5845 92.2218 52.9197C91.5346 53.2549 91.0986 53.9527 91.0986 54.7173H93.0986ZM93.0986 54.7183L91.8792 56.3035C92.4831 56.7681 93.2985 56.8491 93.9821 56.5125C94.6657 56.176 95.0986 55.4802 95.0986 54.7183H93.0986ZM89.6621 50.6528L91.4344 49.7259C91.0656 49.0208 90.3138 48.6013 89.52 48.6579C88.7262 48.7144 88.0415 49.2362 87.7764 49.9865L89.6621 50.6528ZM89.6445 50.7065L91.5241 51.39L91.5241 51.39L89.6445 50.7065ZM86.7529 54.2349L87.8832 55.8848L87.8893 55.8807L86.7529 54.2349ZM86.6289 54.3198L87.6407 56.045C87.6811 56.0213 87.7206 55.9963 87.7592 55.9698L86.6289 54.3198ZM86.499 54.396L87.5025 56.1261L87.5108 56.1212L86.499 54.396ZM80.667 56.8794L80.2061 54.9332L80.2032 54.9339L80.667 56.8794ZM80.499 56.9194L80.7803 58.8996C80.8416 58.8908 80.9025 58.8793 80.9628 58.8649L80.499 56.9194ZM80.3271 56.9438L80.0459 54.9637L80.0436 54.9641L80.3271 56.9438ZM79.9453 56.9985L80.179 58.9848C80.1956 58.9829 80.2123 58.9807 80.2289 58.9783L79.9453 56.9985ZM79.9121 57.0024L79.6784 55.0161C79.6593 55.0184 79.6402 55.0209 79.6211 55.0237L79.9121 57.0024ZM79.8789 57.0073L80.1281 58.9917C80.142 58.99 80.156 58.9881 80.1699 58.986L79.8789 57.0073ZM79.4434 57.062L79.6914 59.0466L79.6925 59.0464L79.4434 57.062ZM79.3965 57.0679L79.5626 59.061C79.59 59.0587 79.6173 59.0558 79.6446 59.0524L79.3965 57.0679ZM79.3496 57.0718L79.1835 55.0787C79.1723 55.0796 79.1611 55.0807 79.1499 55.0818L79.3496 57.0718ZM78.8047 57.1265L78.605 55.1365C78.5979 55.1372 78.5909 55.1379 78.5838 55.1387L78.8047 57.1265ZM78.7871 57.1284L78.9046 59.125C78.9391 59.1229 78.9736 59.12 79.008 59.1162L78.7871 57.1284ZM78.7705 57.1294L78.6531 55.1328C78.6316 55.1341 78.6102 55.1357 78.5889 55.1377L78.7705 57.1294ZM78.1709 57.1841L77.9892 55.1923C77.9793 55.1933 77.9693 55.1942 77.9593 55.1953L78.1709 57.1841ZM78.125 57.189L78.2524 59.1849C78.2805 59.1831 78.3086 59.1807 78.3366 59.1777L78.125 57.189ZM78.0791 57.1919L77.9517 55.196L77.948 55.1962L78.0791 57.1919ZM77.2617 57.2456L77.1306 55.2499L77.1236 55.2504L77.2617 57.2456ZM77.1348 57.2544V59.2544C77.1808 59.2544 77.2269 59.2528 77.2729 59.2496L77.1348 57.2544ZM76.1904 57.2544V59.2544V59.2544V57.2544ZM63.7891 52.103L62.3748 53.5172H62.3749L63.7891 52.103ZM58.6924 39.7563H56.6924V39.7564L58.6924 39.7563ZM59.2002 35.3999L61.1433 35.8736C61.3003 35.2295 61.128 34.5495 60.6831 34.0579C60.2383 33.5664 59.5788 33.3272 58.9222 33.4193L59.2002 35.3999ZM56.8057 36.6284L55.3915 35.2142L55.3914 35.2142L56.8057 36.6284ZM53.8389 55.0991L52.295 53.8277L52.2938 53.8292L53.8389 55.0991ZM53.7217 55.2417L55.1359 56.6559C55.1818 56.61 55.2255 56.5618 55.2668 56.5116L53.7217 55.2417ZM53.5908 55.3726L55.0049 56.7869L55.005 56.7868L53.5908 55.3726ZM48.9814 57.3091L48.9814 59.3091H48.9814V57.3091ZM44.3721 55.3716L45.8075 53.9789C45.2404 53.3944 44.3754 53.2121 43.6207 53.5181C42.8659 53.8241 42.3721 54.5572 42.3721 55.3716H44.3721ZM44.3721 55.3726L42.9579 56.7868C43.5299 57.3588 44.3901 57.5299 45.1374 57.2203C45.8848 56.9108 46.3721 56.1815 46.3721 55.3726H44.3721ZM44.2803 55.2778H42.2803C42.2803 55.7956 42.481 56.2931 42.8404 56.6659L44.2803 55.2778ZM44.2803 55.2769H46.2803C46.2803 54.7592 46.0796 54.2617 45.7203 53.889L44.2803 55.2769ZM42.4619 51.3481L44.4541 51.1717C44.3841 50.3815 43.8537 49.7074 43.1022 49.4534C42.3507 49.1994 41.5201 49.4137 40.9851 49.9994L42.4619 51.3481ZM41.8457 51.9937L43.2599 53.4079L43.26 53.4078L41.8457 51.9937ZM29.498 57.146L29.498 59.146H29.498V57.146ZM17.0967 51.9937L15.6824 53.4078L15.6825 53.4079L17.0967 51.9937ZM12 39.647L10 39.6469V39.647H12ZM17.0967 27.2456L15.6825 25.8314H15.6825L17.0967 27.2456ZM29.498 22.1489V20.1489H29.498L29.498 22.1489ZM33.959 22.7065L33.4584 24.6429C34.0574 24.7977 34.6943 24.6666 35.1835 24.2879C35.6727 23.9091 35.959 23.3252 35.959 22.7065H33.959ZM33.959 15.1821L31.959 15.182V15.1821H33.959ZM35.5928 10.8452L34.0503 9.57213L34.0489 9.5738L35.5928 10.8452ZM35.8281 10.5601L34.555 9.01757C34.4569 9.0986 34.3667 9.18881 34.2856 9.28698L35.8281 10.5601ZM36.1133 10.3247L34.8419 8.78084L34.8402 8.78222L36.1133 10.3247ZM40.4502 8.69092L40.493 6.69138C40.4787 6.69107 40.4644 6.69092 40.4501 6.69092L40.4502 8.69092ZM40.7695 8.69775L40.8653 6.70005C40.8477 6.6992 40.83 6.69859 40.8123 6.69821L40.7695 8.69775ZM44.6152 10.146L45.8539 8.57571C45.8459 8.56946 45.838 8.56326 45.8299 8.55713L44.6152 10.146ZM44.8418 10.3247L46.1149 8.78222C46.1035 8.77283 46.092 8.76356 46.0804 8.75442L44.8418 10.3247ZM45.127 10.5601L46.6694 9.28698C46.5884 9.18881 46.4982 9.0986 46.4 9.01757L45.127 10.5601ZM45.3623 10.8452L46.9062 9.5738L46.9048 9.57213L45.3623 10.8452ZM46.9971 15.1821H48.9971V15.182L46.9971 15.1821ZM46.9971 28.0249H44.9971C44.9971 28.8497 45.5034 29.5899 46.2721 29.8889C47.0407 30.1879 47.9141 29.9843 48.4714 29.3763L46.9971 28.0249ZM47.5869 27.4097L46.1727 25.9955V25.9955L47.5869 27.4097ZM59.9336 22.312L59.9827 20.3126C59.9663 20.3122 59.95 20.312 59.9336 20.312V22.312ZM60.252 22.3198L60.3475 20.3221C60.332 20.3214 60.3165 20.3208 60.301 20.3204L60.252 22.3198ZM64.0986 23.7671L65.3414 22.2001C65.3321 22.1927 65.3227 22.1854 65.3133 22.1782L64.0986 23.7671ZM64.3252 23.9468L65.5983 22.4043C65.5883 22.396 65.5782 22.3879 65.568 22.3798L64.3252 23.9468ZM64.6104 24.1821L66.1528 22.909C66.0718 22.8109 65.9816 22.7207 65.8834 22.6396L64.6104 24.1821ZM64.8457 24.4673L66.3896 23.1959L66.3882 23.1942L64.8457 24.4673ZM65.6787 25.7036L63.9189 26.654C64.1965 27.1678 64.6847 27.5347 65.2554 27.6583C65.8262 27.7819 66.4225 27.6499 66.8877 27.2969L65.6787 25.7036ZM76.1904 22.2583V20.2583V20.2583V22.2583ZM88.0635 26.7261L86.7164 28.2044C87.0848 28.54 87.5652 28.7261 88.0635 28.7261V26.7261ZM88.0645 26.7261L89.4024 25.2395C89.0351 24.909 88.5585 24.7261 88.0645 24.7261V26.7261ZM89.9004 28.645L88.3544 29.9138C88.7768 30.4285 89.4277 30.6993 90.0905 30.636C90.7533 30.5727 91.3412 30.1836 91.6586 29.5983L89.9004 28.645ZM92.0186 25.8296L90.6043 24.4154L90.6043 24.4154L92.0186 25.8296ZM100.497 22.312L100.497 20.312H100.497V22.312ZM107.492 24.4351L108.631 22.7908C108.621 22.784 108.611 22.7772 108.601 22.7706L107.492 24.4351ZM107.908 24.7231L109.071 23.0957C109.063 23.09 109.055 23.0844 109.047 23.0789L107.908 24.7231ZM107.949 24.7524L109.18 23.1758C109.157 23.1584 109.135 23.1414 109.112 23.125L107.949 24.7524ZM107.989 24.7837L106.759 26.3603C106.765 26.3651 106.771 26.3698 106.777 26.3745L107.989 24.7837ZM110.38 27.1675L108.775 28.3605C109.151 28.8663 109.743 29.1653 110.373 29.1675C111.003 29.1696 111.598 28.8746 111.977 28.3714L110.38 27.1675ZM111.547 25.8296L110.133 24.4154L110.133 24.4154L111.547 25.8296ZM120.024 22.312V20.312H120.024L120.024 22.312ZM127.021 24.4351L128.159 22.7908C128.149 22.784 128.139 22.7772 128.129 22.7706L127.021 24.4351ZM127.437 24.7231L128.599 23.0957C128.591 23.09 128.583 23.0844 128.575 23.0789L127.437 24.7231ZM127.478 24.7524L128.708 23.1758C128.686 23.1584 128.663 23.1414 128.64 23.125L127.478 24.7524ZM127.518 24.7837L126.287 26.3603C126.293 26.3651 126.299 26.3698 126.305 26.3745L127.518 24.7837ZM131.589 30.9097L129.627 31.3006C129.635 31.3375 129.643 31.3742 129.653 31.4106L131.589 30.9097ZM131.745 32.4604L129.747 32.3713C129.708 33.2545 130.253 34.0587 131.088 34.3493C131.923 34.6399 132.849 34.3479 133.367 33.6311L131.745 32.4604ZM145.243 13.7632L146.865 14.9338L146.865 14.9335L145.243 13.7632ZM145.423 13.5142L144.009 12.0999C143.933 12.1756 143.864 12.2571 143.801 12.3439L145.423 13.5142ZM145.749 13.188L144.378 11.7317C144.363 11.7455 144.349 11.7595 144.335 11.7738L145.749 13.188ZM146.082 12.8745L144.756 11.3776C144.741 11.3909 144.726 11.4045 144.711 11.4182L146.082 12.8745ZM149.104 11.3394L148.712 9.37819L148.712 9.37821L149.104 11.3394ZM152.712 11.6851L151.995 13.5521C152.02 13.5619 152.046 13.5712 152.072 13.58L152.712 11.6851ZM155.885 14.0542L157.543 12.9365L157.543 12.9365L155.885 14.0542ZM156.959 17.7974H158.959V17.7973L156.959 17.7974ZM156.959 36.1655H154.959C154.959 37.0455 155.534 37.8221 156.376 38.0786L156.959 36.1655ZM157.423 36.3247L156.701 38.1899C157.255 38.4042 157.875 38.3614 158.394 38.0731C158.913 37.7848 159.277 37.2809 159.388 36.6976L157.423 36.3247ZM162.201 27.4097L160.787 25.9955V25.9955L162.201 27.4097ZM174.548 22.312V20.312V20.312V22.312ZM183.218 24.6177L182.22 26.3512C182.238 26.3613 182.256 26.3711 182.273 26.3806L183.218 24.6177ZM188.836 29.644L187.204 30.8003C187.575 31.3242 188.175 31.638 188.817 31.644C189.459 31.6499 190.065 31.3473 190.446 30.8304L188.836 29.644ZM190.669 27.5181L189.255 26.1038L189.255 26.1038L190.669 27.5181ZM203.124 22.3667V20.3667H203.124L203.124 22.3667ZM215.472 27.5747L214.029 28.9594C214.038 28.9693 214.048 28.9792 214.057 28.9889L215.472 27.5747ZM215.473 27.5757L216.916 26.1914C216.907 26.1813 216.897 26.1714 216.887 26.1615L215.473 27.5757ZM218.174 31.2173L216.425 32.1885C216.776 32.8196 217.44 33.2128 218.162 33.2172C218.883 33.2217 219.552 32.8367 219.91 32.2099L218.174 31.2173ZM221.106 27.4097L219.692 25.9955V25.9955L221.106 27.4097ZM233.453 22.312V20.312H233.453L233.453 22.312ZM237.618 23.7671L238.861 22.2001C238.852 22.1927 238.842 22.1854 238.833 22.1782L237.618 23.7671ZM237.845 23.9468L239.118 22.4043C239.108 22.396 239.098 22.3879 239.088 22.3798L237.845 23.9468ZM238.13 24.1821L239.672 22.909C239.591 22.8109 239.501 22.7207 239.403 22.6396L238.13 24.1821ZM238.365 24.4673L239.909 23.1959L239.908 23.1942L238.365 24.4673ZM240 28.8042H242V28.8042L240 28.8042ZM238.365 33.1411L236.821 31.8697L236.82 31.8712L238.365 33.1411ZM238.248 33.2837L239.657 34.7032C239.705 34.6557 239.75 34.6057 239.793 34.5536L238.248 33.2837ZM238.117 33.4136L236.708 31.9941L236.703 31.9994L238.117 33.4136ZM233.453 35.3501V33.3501H233.453L233.453 35.3501ZM230.325 36.6284L228.911 35.2142L228.911 35.2142L230.325 36.6284ZM227.358 55.0991L225.815 53.8277L225.813 53.8292L227.358 55.0991ZM227.241 55.2417L228.661 56.6506C228.705 56.6063 228.747 56.5599 228.786 56.5116L227.241 55.2417ZM227.111 55.3726L228.526 56.7868L228.531 56.7815L227.111 55.3726ZM222.501 57.3091L222.501 59.3091H222.501V57.3091ZM218.144 55.6177L219.503 54.1511C218.753 53.4554 217.599 53.4382 216.828 54.1113L218.144 55.6177ZM213.804 57.1997L213.804 59.1997H213.804V57.1997ZM210.004 55.8149L211.206 54.2169C210.629 53.7821 209.861 53.693 209.199 53.984L210.004 55.8149ZM203.124 57.1997L203.124 59.1997H203.124V57.1997ZM190.726 52.3228H188.726C188.726 52.8677 188.948 53.3891 189.341 53.7663L190.726 52.3228ZM190.726 52.3218H192.726C192.726 51.777 192.503 51.2558 192.11 50.8786L190.726 52.3218ZM188.735 50.0659L190.344 48.8774C189.963 48.3616 189.357 48.0598 188.716 48.066C188.075 48.0722 187.475 48.3855 187.104 48.9085L188.735 50.0659ZM183.017 55.1265L182.064 53.3679C181.509 53.6686 181.128 54.2137 181.037 54.8385C180.947 55.4632 181.156 56.0943 181.602 56.5407L183.017 55.1265ZM183.018 55.1274L184 56.8697C184.544 56.5627 184.914 56.0184 184.999 55.3988C185.084 54.7791 184.874 54.1555 184.432 53.7132L183.018 55.1274ZM174.548 57.3091V59.3091V59.3091V57.3091ZM162.201 52.1577L160.787 53.5719L160.787 53.572L162.201 52.1577ZM158.935 47.7017L160.717 46.7944C160.45 46.2703 159.966 45.8902 159.394 45.7551C158.822 45.6201 158.219 45.7437 157.746 46.0933L158.935 47.7017ZM156.959 48.6938L156.383 46.7786C155.538 47.0329 154.959 47.8112 154.959 48.6938H156.959ZM25.0381 39.647L23.0381 39.6469V39.647H25.0381ZM26.2012 42.5981L24.731 43.9541C24.7403 43.9642 24.7498 43.9743 24.7594 43.9842L26.2012 42.5981ZM26.3711 42.7749L27.8302 41.407C27.8245 41.4009 27.8187 41.3949 27.8129 41.3888L26.3711 42.7749ZM26.3857 42.7905L24.9267 44.1584C24.9561 44.1898 24.9865 44.2202 25.0179 44.2496L26.3857 42.7905ZM26.4014 42.8052L27.8313 41.4069C27.8111 41.3862 27.7904 41.3659 27.7692 41.3461L26.4014 42.8052ZM29.498 44.1069L29.4979 46.1069H29.498V44.1069ZM32.6807 42.7749L34.0949 44.1891L34.0949 44.1891L32.6807 42.7749ZM33.959 39.5923H35.959V39.5921L33.959 39.5923ZM32.6748 36.4653L34.1579 35.1235C34.1125 35.0733 34.0645 35.0254 34.0142 34.9801L32.6748 36.4653ZM29.498 35.187V33.187H29.4979L29.498 35.187ZM26.3711 36.4653L24.9569 35.0511L24.9569 35.0511L26.3711 36.4653ZM174.548 35.3501V33.3501C172.893 33.3501 171.402 33.9303 170.018 35.2052L171.373 36.6763L172.728 38.1474C173.425 37.5053 173.965 37.3501 174.548 37.3501V35.3501ZM171.373 36.6763L169.943 35.2776C168.685 36.5641 168.088 38.0469 168.088 39.811H170.088H172.088C172.088 39.0918 172.276 38.6134 172.803 38.0749L171.373 36.6763ZM170.088 39.811L168.088 39.8112C168.088 41.5646 168.702 43.0485 170.006 44.3521L171.42 42.938L172.834 41.5239C172.26 40.9496 172.088 40.4747 172.088 39.8109L170.088 39.811ZM171.42 42.938L170.006 44.3522C171.309 45.6555 172.793 46.271 174.548 46.271V44.271V42.271C173.885 42.271 173.409 42.0986 172.834 41.5238L171.42 42.938ZM174.548 44.271V46.271C175.573 46.271 176.569 46.0996 177.498 45.6353C178.433 45.1679 179.163 44.4722 179.76 43.6329L178.13 42.4741L176.5 41.3153C176.198 41.7394 175.94 41.9422 175.709 42.0573C175.473 42.1756 175.126 42.271 174.548 42.271V44.271ZM178.13 42.4741L179.784 43.5977L179.962 43.336L178.308 42.2124L176.653 41.0888L176.475 41.3505L178.13 42.4741ZM178.308 42.2124L179.995 43.2853C180.441 42.5841 181.038 42.0905 181.722 41.7563L180.844 39.9595L179.965 38.1626C178.688 38.787 177.501 39.7537 176.62 41.1395L178.308 42.2124ZM180.844 39.9595L181.814 38.2105C181.156 37.8454 180.604 37.3033 180.186 36.6196L178.479 37.6626L176.773 38.7056C177.521 39.9297 178.562 40.9807 179.874 41.7084L180.844 39.9595ZM178.479 37.6626L180.175 36.6026L180.141 36.5479L178.445 37.6079L176.749 38.6679L176.783 38.7226L178.479 37.6626ZM178.445 37.6079L180.196 36.6418L180.165 36.5851L178.414 37.5513L176.663 38.5174L176.694 38.5741L178.445 37.6079ZM178.414 37.5513L180.155 36.5663C179.601 35.5873 178.88 34.7293 177.863 34.143C176.85 33.559 175.726 33.3501 174.548 33.3501V35.3501V37.3501C175.258 37.3501 175.634 37.4751 175.865 37.6083C176.092 37.7392 176.36 37.9818 176.673 38.5362L178.414 37.5513ZM203.124 35.3501L203.124 33.3501C201.336 33.3502 199.815 33.9818 198.473 35.3236L199.888 36.7378L201.302 38.152C201.921 37.5334 202.435 37.3502 203.124 37.3501L203.124 35.3501ZM199.888 36.7378L198.473 35.3236C197.131 36.6661 196.501 38.1874 196.501 39.9741L198.501 39.9741L200.501 39.9741C200.501 39.2841 200.684 38.77 201.302 38.152L199.888 36.7378ZM198.501 39.9741H196.501C196.501 41.7119 197.12 43.1398 198.429 44.3637L199.795 42.9028L201.161 41.4419C200.648 40.962 200.501 40.5864 200.501 39.9741H198.501ZM199.795 42.9028L198.426 44.361L198.474 44.4059L199.843 42.9478L201.212 41.4896L201.164 41.4447L199.795 42.9028ZM199.843 42.9478L198.429 44.362L198.473 44.4069L199.888 42.9927L201.302 41.5785L201.257 41.5335L199.843 42.9478ZM199.888 42.9927L198.473 44.4069C199.661 45.5944 201.162 46.2162 203.124 46.2163L203.124 44.2163L203.124 42.2163C202.128 42.2162 201.675 41.9517 201.302 41.5785L199.888 42.9927ZM203.124 44.2163V46.2163C204.95 46.2163 206.406 45.6127 207.611 44.4069L206.197 42.9927L204.783 41.5784C204.355 42.0063 203.929 42.2163 203.124 42.2163V44.2163ZM206.197 42.9927L207.611 44.4069C208.772 43.2466 209.366 41.8139 209.366 39.9741H207.366H205.366C205.366 40.8205 205.147 41.2147 204.783 41.5785L206.197 42.9927ZM207.366 39.9741L209.366 39.9741C209.366 38.0905 208.765 36.5609 207.569 35.2785L206.106 36.6431L204.644 38.0076C205.121 38.518 205.366 39.0598 205.366 39.9741L207.366 39.9741ZM206.106 36.6431H208.106V36.6421H206.106H204.106V36.6431H206.106ZM206.106 36.6421L207.567 35.2755C206.349 33.9748 204.906 33.3501 203.124 33.3501V35.3501V37.3501C203.801 37.3501 204.187 37.518 204.646 38.0087L206.106 36.6421ZM156.959 50.7085L154.959 50.7084C154.959 51.8706 154.497 52.9025 153.78 53.773L155.324 55.0444L156.868 56.3158C158.035 54.8993 158.959 52.9973 158.959 50.7086L156.959 50.7085ZM155.324 55.0444L153.779 53.7745L153.662 53.9171L155.207 55.187L156.752 56.4569L156.869 56.3144L155.324 55.0444ZM155.207 55.187L153.788 53.7781L153.658 53.909L155.077 55.3179L156.497 56.7268L156.627 56.5959L155.207 55.187ZM155.077 55.3179L153.663 53.9037C152.78 54.7863 151.664 55.2543 150.413 55.2544L150.413 57.2544L150.413 59.2544C152.737 59.2543 154.867 58.3563 156.491 56.7321L155.077 55.3179ZM150.413 57.2544V55.2544C149.188 55.2544 148.092 54.8025 147.239 53.9233L145.804 55.3159L144.368 56.7085C145.994 58.3845 148.135 59.2544 150.413 59.2544V57.2544ZM145.804 55.3159L144.015 54.4215L144.014 54.4234L145.803 55.3179L147.592 56.2123L147.593 56.2103L145.804 55.3159ZM145.803 55.3179L147.217 53.9037C146.353 53.0394 145.866 51.9484 145.866 50.7084L143.866 50.7085L141.866 50.7086C141.866 53.0809 142.826 55.1698 144.388 56.732L145.803 55.3179ZM143.866 50.7085H145.866V48.9722H143.866H141.866V50.7085H143.866ZM143.866 48.9722V46.9722H132.649V48.9722V50.9722H143.866V48.9722ZM132.649 48.9722L132.65 46.9722C132.36 46.9722 132.066 46.9519 131.775 46.9063L131.466 48.8823L131.157 50.8583C131.673 50.939 132.175 50.9721 132.649 50.9722L132.649 48.9722ZM131.466 48.8823L129.559 48.2785C129.096 49.7405 128.285 51.1017 127.131 52.3348L128.591 53.7017L130.051 55.0685C131.577 53.4379 132.714 51.5649 133.373 49.4861L131.466 48.8823ZM128.591 53.7017L127.131 52.3348L127.088 52.3807L128.548 53.7476L130.008 55.1144L130.051 55.0685L128.591 53.7017ZM128.548 53.7476L127.134 52.3333L127.089 52.3783L128.503 53.7925L129.917 55.2067L129.962 55.1618L128.548 53.7476ZM128.503 53.7925L127.089 52.3782C125.15 54.3166 122.762 55.3091 120.024 55.3091V57.3091V59.3091C123.827 59.3091 127.231 57.8922 129.917 55.2067L128.503 53.7925ZM120.024 57.3091L120.024 55.3091C117.755 55.309 115.683 54.5663 113.858 53.1412L112.627 54.7173L111.396 56.2934C113.887 58.2394 116.817 59.309 120.024 59.3091L120.024 57.3091ZM112.627 54.7173H110.627V54.7183H112.627H114.627V54.7173H112.627ZM112.627 54.7183L113.846 53.133C113.061 52.5285 112.386 51.8452 111.822 51.0911L110.221 52.2896L108.62 53.488C109.408 54.5408 110.341 55.4827 111.408 56.3035L112.627 54.7183ZM110.221 52.2896L108.594 51.1259C108.296 51.5431 107.966 51.9469 107.602 52.3348L109.062 53.7017L110.523 55.0685C111.006 54.5519 111.447 54.0122 111.847 53.4532L110.221 52.2896ZM109.062 53.7017L107.602 52.3348L107.559 52.3807L109.02 53.7476L110.48 55.1144L110.523 55.0685L109.062 53.7017ZM109.02 53.7476L107.605 52.3333L107.56 52.3783L108.975 53.7925L110.389 55.2067L110.434 55.1618L109.02 53.7476ZM108.975 53.7925L107.56 52.3782C105.622 54.3166 103.234 55.309 100.497 55.3091L100.497 57.3091L100.497 59.3091C104.299 59.3089 107.703 57.892 110.389 55.2067L108.975 53.7925ZM100.497 57.3091V55.3091C98.2269 55.3091 96.1542 54.5663 94.3298 53.1412L93.0986 54.7173L91.8674 56.2934C94.3588 58.2396 97.2897 59.3091 100.497 59.3091V57.3091ZM93.0986 54.7173H91.0986V54.7183H93.0986H95.0986V54.7173H93.0986ZM93.0986 54.7183L94.3181 53.133C93.0851 52.1845 92.1227 51.042 91.4344 49.7259L89.6621 50.6528L87.8899 51.5797C88.8553 53.4256 90.2011 55.0126 91.8792 56.3035L93.0986 54.7183ZM89.6621 50.6528L87.7764 49.9865C87.7662 50.0153 87.7583 50.0394 87.7533 50.0552C87.7507 50.0631 87.7485 50.07 87.7471 50.0747C87.7458 50.0788 87.7443 50.0834 87.7441 50.0842C87.7427 50.0886 87.7447 50.0822 87.7476 50.0733C87.7508 50.0636 87.7567 50.0458 87.7649 50.0231L89.6445 50.7065L91.5241 51.39C91.5356 51.3585 91.5446 51.3317 91.5507 51.313C91.5565 51.2951 91.5612 51.2798 91.5627 51.2752C91.5652 51.2671 91.5637 51.272 91.562 51.2773C91.5598 51.284 91.5549 51.2992 91.5479 51.3191L89.6621 50.6528ZM89.6445 50.7065L87.7649 50.0231C87.3716 51.1048 86.557 51.9397 85.6165 52.5891L86.7529 54.2349L87.8893 55.8807C89.2139 54.9661 90.744 53.5354 91.5241 51.39L89.6445 50.7065ZM86.7529 54.2349L85.6226 52.5849L85.4986 52.6698L86.6289 54.3198L87.7592 55.9698L87.8832 55.8848L86.7529 54.2349ZM86.6289 54.3198L85.6171 52.5946L85.4873 52.6708L86.499 54.396L87.5108 56.1212L87.6407 56.045L86.6289 54.3198ZM86.499 54.396L85.4956 52.6659C83.592 53.77 81.8217 54.5506 80.2061 54.9332L80.667 56.8794L81.1279 58.8256C83.2593 58.3208 85.4058 57.3421 87.5024 56.1261L86.499 54.396ZM80.667 56.8794L80.2032 54.9339L80.0353 54.9739L80.499 56.9194L80.9628 58.8649L81.1307 58.8249L80.667 56.8794ZM80.499 56.9194L80.2178 54.9393L80.0459 54.9637L80.3271 56.9438L80.6084 58.924L80.7803 58.8996L80.499 56.9194ZM80.3271 56.9438L80.0436 54.9641L79.6618 55.0187L79.9453 56.9985L80.2289 58.9783L80.6107 58.9236L80.3271 56.9438ZM79.9453 56.9985L79.7116 55.0122L79.6784 55.0161L79.9121 57.0024L80.1458 58.9887L80.179 58.9848L79.9453 56.9985ZM79.9121 57.0024L79.6211 55.0237L79.5879 55.0286L79.8789 57.0073L80.1699 58.986L80.2031 58.9812L79.9121 57.0024ZM79.8789 57.0073L79.6297 55.0229L79.1942 55.0776L79.4434 57.062L79.6925 59.0464L80.1281 58.9917L79.8789 57.0073ZM79.4434 57.062L79.1953 55.0775L79.1484 55.0833L79.3965 57.0679L79.6446 59.0524L79.6914 59.0466L79.4434 57.062ZM79.3965 57.0679L79.2304 55.0748L79.1835 55.0787L79.3496 57.0718L79.5157 59.0649L79.5626 59.061L79.3965 57.0679ZM79.3496 57.0718L79.1499 55.0818L78.605 55.1365L78.8047 57.1265L79.0044 59.1165L79.5493 59.0618L79.3496 57.0718ZM78.8047 57.1265L78.5838 55.1387L78.5662 55.1407L78.7871 57.1284L79.008 59.1162L79.0256 59.1142L78.8047 57.1265ZM78.7871 57.1284L78.6697 55.1319L78.6531 55.1328L78.7705 57.1294L78.888 59.1259L78.9046 59.125L78.7871 57.1284ZM78.7705 57.1294L78.5889 55.1377L77.9892 55.1923L78.1709 57.1841L78.3526 59.1758L78.9522 59.1211L78.7705 57.1294ZM78.1709 57.1841L77.9593 55.1953L77.9134 55.2002L78.125 57.189L78.3366 59.1777L78.3825 59.1729L78.1709 57.1841ZM78.125 57.189L77.9976 55.193L77.9517 55.196L78.0791 57.1919L78.2065 59.1878L78.2524 59.1849L78.125 57.189ZM78.0791 57.1919L77.948 55.1962L77.1306 55.2499L77.2617 57.2456L77.3929 59.2413L78.2102 59.1876L78.0791 57.1919ZM77.2617 57.2456L77.1236 55.2504L76.9966 55.2592L77.1348 57.2544L77.2729 59.2496L77.3998 59.2408L77.2617 57.2456ZM77.1348 57.2544V55.2544H76.1904V57.2544V59.2544H77.1348V57.2544ZM76.1904 57.2544V55.2544C71.926 55.2544 68.2306 53.7161 65.2033 50.6888L63.7891 52.103L62.3749 53.5172C66.147 57.2894 70.8577 59.2544 76.1904 59.2544V57.2544ZM63.7891 52.103L65.2033 50.6888C62.2072 47.6927 60.6924 44.0134 60.6924 39.7563L58.6924 39.7563L56.6924 39.7564C56.6924 45.0652 58.6222 49.7646 62.3748 53.5172L63.7891 52.103ZM58.6924 39.7563H60.6924C60.6924 38.3926 60.8449 37.0975 61.1433 35.8736L59.2002 35.3999L57.2571 34.9262C56.8787 36.4785 56.6924 38.0927 56.6924 39.7563H58.6924ZM59.2002 35.3999L58.9222 33.4193C57.5171 33.6165 56.3684 34.2373 55.3915 35.2142L56.8057 36.6284L58.2199 38.0426C58.639 37.6235 59.0095 37.4463 59.4782 37.3805L59.2002 35.3999ZM56.8057 36.6284L55.3914 35.2142C54.0938 36.5118 53.4736 38.0124 53.4736 39.811H55.4736H57.4736C57.4736 39.0831 57.6654 38.5971 58.2199 38.0426L56.8057 36.6284ZM55.4736 39.811H53.4736V50.7622H55.4736H57.4736V39.811H55.4736ZM55.4736 50.7622H53.4736C53.4736 51.9247 53.0118 52.9573 52.295 53.8277L53.8389 55.0991L55.3828 56.3705C56.5495 54.9537 57.4736 53.0508 57.4736 50.7622H55.4736ZM53.8389 55.0991L52.2938 53.8292L52.1766 53.9718L53.7217 55.2417L55.2668 56.5116L55.3839 56.3691L53.8389 55.0991ZM53.7217 55.2417L52.3075 53.8275L52.1766 53.9583L53.5908 55.3726L55.005 56.7868L55.1359 56.6559L53.7217 55.2417ZM53.5908 55.3726L52.1767 53.9583C51.3122 54.8226 50.2214 55.3091 48.9814 55.3091V57.3091V59.3091C51.354 59.3091 53.4427 58.3489 55.0049 56.7869L53.5908 55.3726ZM48.9814 57.3091L48.9815 55.3091C47.7564 55.3091 46.6598 54.8574 45.8075 53.9789L44.3721 55.3716L42.9367 56.7643C44.5628 58.4403 46.7044 59.3091 48.9814 59.3091L48.9814 57.3091ZM44.3721 55.3716H42.3721V55.3726H44.3721H46.3721V55.3716H44.3721ZM44.3721 55.3726L45.7863 53.9583C45.7725 53.9445 45.7699 53.9414 45.7202 53.8898L44.2803 55.2778L42.8404 56.6659C42.8514 56.6774 42.9096 56.7385 42.9579 56.7868L44.3721 55.3726ZM44.2803 55.2778H46.2803V55.2769H44.2803H42.2803V55.2778H44.2803ZM44.2803 55.2769L45.7203 53.889C44.9876 53.1287 44.5457 52.2049 44.4541 51.1717L42.4619 51.3481L40.4697 51.5246C40.6474 53.5301 41.5183 55.2931 42.8402 56.6648L44.2803 55.2769ZM42.4619 51.3481L40.9851 49.9994C40.8046 50.197 40.6204 50.3906 40.4314 50.5795L41.8457 51.9937L43.26 53.4078C43.4949 53.1728 43.7209 52.9354 43.9387 52.6969L42.4619 51.3481ZM41.8457 51.9937L40.4315 50.5794C37.4077 53.6032 33.7311 55.146 29.498 55.146V57.146V59.146C34.8115 59.146 39.4999 57.1679 43.2599 53.4079L41.8457 51.9937ZM29.498 57.146L29.4981 55.146C25.234 55.1459 21.5383 53.6069 18.5109 50.5794L17.0967 51.9937L15.6825 53.4079C19.4544 57.1798 24.1652 59.1459 29.498 59.146L29.498 57.146ZM17.0967 51.9937L18.5109 50.5795C15.515 47.5834 14 43.9039 14 39.647H12H10C10 44.9557 11.93 49.6553 15.6824 53.4078L17.0967 51.9937ZM12 39.647L14 39.647C14.0001 35.3587 15.5112 31.6595 18.5109 28.6598L17.0967 27.2456L15.6825 25.8314C11.918 29.5958 10.0001 34.3187 10 39.6469L12 39.647ZM17.0967 27.2456L18.5109 28.6598C21.5105 25.6602 25.2098 24.149 29.4981 24.1489L29.498 22.1489L29.498 20.1489C24.1698 20.149 19.4469 22.067 15.6825 25.8314L17.0967 27.2456ZM29.498 22.1489V24.1489C30.8765 24.1489 32.1975 24.3169 33.4584 24.6429L33.959 22.7065L34.4595 20.7702C32.8623 20.3573 31.2045 20.1489 29.498 20.1489V22.1489ZM33.959 22.7065H35.959V15.1821H33.959H31.959V22.7065H33.959ZM33.959 15.1821L35.959 15.1822C35.959 14.0189 36.4205 12.9862 37.1366 12.1166L35.5928 10.8452L34.0489 9.5738C32.8815 10.9914 31.9591 12.8943 31.959 15.182L33.959 15.1821ZM35.5928 10.8452L37.1353 12.1183L37.3706 11.8331L35.8281 10.5601L34.2856 9.28698L34.0503 9.57213L35.5928 10.8452ZM35.8281 10.5601L37.1012 12.1025L37.3864 11.8672L36.1133 10.3247L34.8402 8.78222L34.555 9.01757L35.8281 10.5601ZM36.1133 10.3247L37.3847 11.8686C38.2543 11.1524 39.287 10.691 40.4503 10.6909L40.4502 8.69092L40.4501 6.69092C38.1624 6.69099 36.2594 7.61345 34.8419 8.78084L36.1133 10.3247ZM40.4502 8.69092L40.4074 10.6905L40.7267 10.6973L40.7695 8.69775L40.8123 6.69821L40.493 6.69138L40.4502 8.69092ZM40.7695 8.69775L40.6737 10.6955C41.685 10.744 42.6022 11.1246 43.4005 11.7349L44.6152 10.146L45.8299 8.55713C44.485 7.52891 42.8044 6.79305 40.8653 6.70005L40.7695 8.69775ZM44.6152 10.146L43.3766 11.7163L43.6032 11.895L44.8418 10.3247L46.0804 8.75442L45.8539 8.57571L44.6152 10.146ZM44.8418 10.3247L43.5687 11.8672L43.8539 12.1025L45.127 10.5601L46.4 9.01757L46.1149 8.78222L44.8418 10.3247ZM45.127 10.5601L43.5845 11.8331L43.8198 12.1183L45.3623 10.8452L46.9048 9.57213L46.6694 9.28698L45.127 10.5601ZM45.3623 10.8452L43.8184 12.1166C44.5352 12.9869 44.997 14.0197 44.9971 15.1822L46.9971 15.1821L48.9971 15.182C48.997 12.8936 48.073 10.9907 46.9062 9.5738L45.3623 10.8452ZM46.9971 15.1821H44.9971V28.0249H46.9971H48.9971V15.1821H46.9971ZM46.9971 28.0249L48.4714 29.3763C48.6408 29.1915 48.8175 29.0075 49.0011 28.8239L47.5869 27.4097L46.1727 25.9955C45.9516 26.2165 45.7346 26.4423 45.5227 26.6735L46.9971 28.0249ZM47.5869 27.4097L49.0011 28.8239C51.9975 25.8275 55.6767 24.312 59.9336 24.312V22.312V20.312C54.6244 20.312 49.9252 22.243 46.1727 25.9955L47.5869 27.4097ZM59.9336 22.312L59.8845 24.3114L60.2029 24.3192L60.252 22.3198L60.301 20.3204L59.9827 20.3126L59.9336 22.312ZM60.252 22.3198L60.1564 24.3175C61.1687 24.366 62.0864 24.7463 62.884 25.356L64.0986 23.7671L65.3133 22.1782C63.9673 21.1493 62.2859 20.4149 60.3475 20.3221L60.252 22.3198ZM64.0986 23.7671L62.8558 25.3341L63.0824 25.5138L64.3252 23.9468L65.568 22.3798L65.3414 22.2001L64.0986 23.7671ZM64.3252 23.9468L63.0521 25.4893L63.3373 25.7246L64.6104 24.1821L65.8834 22.6396L65.5983 22.4043L64.3252 23.9468ZM64.6104 24.1821L63.0679 25.4552L63.3032 25.7404L64.8457 24.4673L66.3882 23.1942L66.1528 22.909L64.6104 24.1821ZM64.8457 24.4673L63.3018 25.7387C63.534 26.0207 63.7425 26.3273 63.9189 26.654L65.6787 25.7036L67.4385 24.7532C67.1338 24.1891 66.7788 23.6685 66.3896 23.1959L64.8457 24.4673ZM65.6787 25.7036L66.8877 27.2969C69.5372 25.2864 72.6538 24.2583 76.1904 24.2583V22.2583V20.2583C71.8271 20.2583 67.8509 21.5447 64.4698 24.1104L65.6787 25.7036ZM76.1904 22.2583V24.2583C80.2731 24.2583 83.819 25.5643 86.7164 28.2044L88.0635 26.7261L89.4105 25.2477C85.725 21.8896 81.198 20.2583 76.1904 20.2583V22.2583ZM88.0635 26.7261V28.7261H88.0645V26.7261V24.7261H88.0635V26.7261ZM88.0645 26.7261L86.7265 28.2127C87.3256 28.7519 87.8672 29.3202 88.3544 29.9138L89.9004 28.645L91.4464 27.3762C90.8308 26.6261 90.15 25.9123 89.4024 25.2395L88.0645 26.7261ZM89.9004 28.645L91.6586 29.5983C92.1108 28.7642 92.7005 27.9761 93.4328 27.2438L92.0186 25.8296L90.6043 24.4154C89.6142 25.4055 88.7878 26.5011 88.1422 27.6918L89.9004 28.645ZM92.0186 25.8296L93.4328 27.2438C95.3716 25.305 97.76 24.312 100.497 24.312V22.312V20.312C96.6942 20.312 93.2898 21.7299 90.6043 24.4154L92.0186 25.8296ZM100.497 22.312L100.497 24.312C102.636 24.3121 104.611 24.9185 106.383 26.0995L107.492 24.4351L108.601 22.7706C106.18 21.1575 103.435 20.3121 100.497 20.312L100.497 22.312ZM107.492 24.4351L106.354 26.0793L106.77 26.3674L107.908 24.7231L109.047 23.0789L108.631 22.7908L107.492 24.4351ZM107.908 24.7231L106.746 26.3506L106.787 26.3799L107.949 24.7524L109.112 23.125L109.071 23.0957L107.908 24.7231ZM107.949 24.7524L106.719 26.3291L106.759 26.3603L107.989 24.7837L109.22 23.2071L109.18 23.1758L107.949 24.7524ZM107.989 24.7837L106.777 26.3745C107.56 26.9713 108.235 27.6348 108.775 28.3605L110.38 27.1675L111.985 25.9745C111.19 24.9052 110.237 23.9818 109.201 23.1928L107.989 24.7837ZM110.38 27.1675L111.977 28.3714C112.269 27.9843 112.597 27.6082 112.961 27.2438L111.547 25.8296L110.133 24.4154C109.644 24.9044 109.192 25.4204 108.783 25.9636L110.38 27.1675ZM111.547 25.8296L112.961 27.2438C114.9 25.305 117.288 24.3121 120.024 24.312L120.024 22.312L120.024 20.312C116.222 20.3121 112.818 21.7301 110.133 24.4154L111.547 25.8296ZM120.024 22.312V24.312C122.164 24.312 124.139 24.9185 125.912 26.0995L127.021 24.4351L128.129 22.7706C125.708 21.1573 122.962 20.312 120.024 20.312V22.312ZM127.021 24.4351L125.882 26.0793L126.298 26.3674L127.437 24.7231L128.575 23.0789L128.159 22.7908L127.021 24.4351ZM127.437 24.7231L126.274 26.3506L126.315 26.3799L127.478 24.7524L128.64 23.125L128.599 23.0957L127.437 24.7231ZM127.478 24.7524L126.247 26.3291L126.287 26.3603L127.518 24.7837L128.748 23.2071L128.708 23.1758L127.478 24.7524ZM127.518 24.7837L126.305 26.3745C128.041 27.6966 129.236 29.3343 129.627 31.3006L131.589 30.9097L133.55 30.5187C132.921 27.3601 131.024 24.941 128.73 23.1928L127.518 24.7837ZM131.589 30.9097L129.653 31.4106C129.738 31.7404 129.761 32.0666 129.747 32.3713L131.745 32.4604L133.743 32.5496C133.771 31.9234 133.727 31.1908 133.525 30.4088L131.589 30.9097ZM131.745 32.4604L133.367 33.6311L146.865 14.9338L145.243 13.7632L143.622 12.5925L130.124 31.2898L131.745 32.4604ZM145.243 13.7632L146.865 14.9335L147.045 14.6844L145.423 13.5142L143.801 12.3439L143.621 12.5929L145.243 13.7632ZM145.423 13.5142L146.837 14.9284L147.163 14.6022L145.749 13.188L144.335 11.7738L144.009 12.0999L145.423 13.5142ZM145.749 13.188L147.12 14.6443L147.453 14.3308L146.082 12.8745L144.711 11.4182L144.378 11.7317L145.749 13.188ZM146.082 12.8745L147.408 14.3715C147.997 13.8499 148.691 13.4617 149.497 13.3005L149.104 11.3394L148.712 9.37821C147.099 9.701 145.779 10.4705 144.756 11.3776L146.082 12.8745ZM149.104 11.3394L149.497 13.3005C150.357 13.1285 151.202 13.2475 151.995 13.5521L152.712 11.6851L153.429 9.81805C152.07 9.29616 150.45 9.03058 148.712 9.37819L149.104 11.3394ZM152.712 11.6851L152.072 13.58C152.93 13.8697 153.693 14.3813 154.226 15.1719L155.885 14.0542L157.543 12.9365C156.437 11.2953 154.889 10.3091 153.352 9.79015L152.712 11.6851ZM155.885 14.0542L154.226 15.1719C154.762 15.9668 154.959 16.8854 154.959 17.7975L156.959 17.7974L158.959 17.7973C158.959 16.3289 158.642 14.5662 157.543 12.9365L155.885 14.0542ZM156.959 17.7974H154.959V36.1655H156.959H158.959V17.7974H156.959ZM156.959 36.1655L156.376 38.0786C156.494 38.1146 156.602 38.1515 156.701 38.1899L157.423 36.3247L158.145 34.4595C157.94 34.3805 157.739 34.3123 157.542 34.2524L156.959 36.1655ZM157.423 36.3247L159.388 36.6976C159.951 33.7322 161.352 31.0875 163.615 28.8239L162.201 27.4097L160.787 25.9955C157.975 28.8074 156.176 32.1706 155.458 35.9518L157.423 36.3247ZM162.201 27.4097L163.615 28.8239C166.612 25.8275 170.291 24.312 174.548 24.312V22.312V20.312C169.239 20.312 164.539 22.243 160.787 25.9955L162.201 27.4097ZM174.548 22.312V24.312C177.294 24.312 179.861 24.994 182.22 26.3512L183.218 24.6177L184.215 22.8841C181.243 21.1742 177.986 20.312 174.548 20.312V22.312ZM183.218 24.6177L182.273 26.3806C184.232 27.4301 185.871 28.9191 187.204 30.8003L188.836 29.644L190.468 28.4878C188.807 26.1442 186.712 24.2207 184.162 22.8547L183.218 24.6177ZM188.836 29.644L190.446 30.8304C190.93 30.1742 191.475 29.5405 192.083 28.9323L190.669 27.5181L189.255 26.1038C188.509 26.8493 187.832 27.6347 187.226 28.4577L188.836 29.644ZM190.669 27.5181L192.083 28.9323C195.114 25.9016 198.829 24.3668 203.124 24.3667L203.124 22.3667L203.124 20.3667C197.772 20.3668 193.039 22.3202 189.255 26.1038L190.669 27.5181ZM203.124 22.3667V24.3667C207.421 24.3667 211.097 25.904 214.029 28.9594L215.472 27.5747L216.915 26.19C213.209 22.3273 208.481 20.3667 203.124 20.3667V22.3667ZM215.472 27.5747L214.057 28.9889L214.058 28.9899L215.473 27.5757L216.887 26.1615L216.886 26.1605L215.472 27.5747ZM215.473 27.5757L214.029 28.9599C214.995 29.9671 215.791 31.0462 216.425 32.1885L218.174 31.2173L219.922 30.2461C219.115 28.7939 218.112 27.4387 216.916 26.1914L215.473 27.5757ZM218.174 31.2173L219.91 32.2099C220.594 31.0134 221.463 29.8818 222.521 28.8239L221.106 27.4097L219.692 25.9955C218.398 27.2896 217.308 28.7018 216.438 30.2246L218.174 31.2173ZM221.106 27.4097L222.521 28.8239C225.517 25.8276 229.196 24.312 233.453 24.312L233.453 22.312L233.453 20.312C228.144 20.312 223.445 22.243 219.692 25.9955L221.106 27.4097ZM233.453 22.312V24.312C234.558 24.312 235.55 24.7038 236.404 25.356L237.618 23.7671L238.833 22.1782C237.39 21.075 235.563 20.312 233.453 20.312V22.312ZM237.618 23.7671L236.375 25.3341L236.602 25.5138L237.845 23.9468L239.088 22.3798L238.861 22.2001L237.618 23.7671ZM237.845 23.9468L236.572 25.4893L236.857 25.7246L238.13 24.1821L239.403 22.6396L239.118 22.4043L237.845 23.9468ZM238.13 24.1821L236.587 25.4552L236.823 25.7404L238.365 24.4673L239.908 23.1942L239.672 22.909L238.13 24.1821ZM238.365 24.4673L236.821 25.7387C237.538 26.6091 238 27.6417 238 28.8042L240 28.8042L242 28.8042C242 26.5156 241.076 24.6127 239.909 23.1959L238.365 24.4673ZM240 28.8042H238C238 29.9668 237.538 30.9993 236.821 31.8697L238.365 33.1411L239.909 34.4125C241.076 32.9957 242 31.0929 242 28.8042H240ZM238.365 33.1411L236.82 31.8712L236.703 32.0138L238.248 33.2837L239.793 34.5536L239.91 34.411L238.365 33.1411ZM238.248 33.2837L236.839 31.8642L236.708 31.9941L238.117 33.4136L239.526 34.8331L239.657 34.7032L238.248 33.2837ZM238.117 33.4136L236.703 31.9994C235.82 32.8821 234.705 33.3501 233.453 33.3501V35.3501V37.3501C235.778 37.3501 237.907 36.452 239.531 34.8278L238.117 33.4136ZM233.453 35.3501L233.453 33.3501C231.641 33.3501 230.162 33.9628 228.911 35.2142L230.325 36.6284L231.739 38.0426C232.231 37.551 232.688 37.3501 233.453 37.3501L233.453 35.3501ZM230.325 36.6284L228.911 35.2142C227.613 36.5118 226.993 38.0124 226.993 39.811H228.993H230.993C230.993 39.0831 231.185 38.5971 231.739 38.0426L230.325 36.6284ZM228.993 39.811H226.993V50.7622H228.993H230.993V39.811H228.993ZM228.993 50.7622H226.993C226.993 51.9247 226.531 52.9573 225.815 53.8277L227.358 55.0991L228.902 56.3705C230.069 54.9537 230.993 53.0508 230.993 50.7622H228.993ZM227.358 55.0991L225.813 53.8292L225.696 53.9718L227.241 55.2417L228.786 56.5116L228.903 56.3691L227.358 55.0991ZM227.241 55.2417L225.822 53.8328L225.692 53.9636L227.111 55.3726L228.531 56.7815L228.661 56.6506L227.241 55.2417ZM227.111 55.3726L225.697 53.9583C224.833 54.8225 223.741 55.3091 222.501 55.3091V57.3091V59.3091C224.873 59.3091 226.963 58.3493 228.526 56.7868L227.111 55.3726ZM222.501 57.3091L222.501 55.3091C221.354 55.309 220.325 54.9129 219.503 54.1511L218.144 55.6177L216.784 57.0842C218.368 58.5537 220.378 59.309 222.501 59.3091L222.501 57.3091ZM218.144 55.6177L216.828 54.1113C215.981 54.8512 214.932 55.1997 213.804 55.1997V57.1997V59.1997C215.782 59.1997 217.799 58.5741 219.459 57.1241L218.144 55.6177ZM213.804 57.1997L213.804 55.1997C212.815 55.1996 211.941 54.7694 211.206 54.2169L210.004 55.8149L208.801 57.413C209.911 58.2481 211.62 59.1996 213.804 59.1997L213.804 57.1997ZM210.004 55.8149L209.199 53.984C207.359 54.7926 205.327 55.1997 203.124 55.1997V57.1997V59.1997C205.828 59.1997 208.415 58.6978 210.809 57.6459L210.004 55.8149ZM203.124 57.1997L203.124 55.1997C198.828 55.1996 195.118 53.7637 192.11 50.8792L190.726 52.3228L189.341 53.7663C193.134 57.4027 197.852 59.1996 203.124 59.1997L203.124 57.1997ZM190.726 52.3228H192.726V52.3218H190.726H188.726V52.3228H190.726ZM190.726 52.3218L192.11 50.8786C191.447 50.2419 190.858 49.5738 190.344 48.8774L188.735 50.0659L187.127 51.2545C187.781 52.1398 188.52 52.9774 189.341 53.7649L190.726 52.3218ZM188.735 50.0659L187.104 48.9085C185.78 50.7741 184.097 52.2666 182.064 53.3679L183.017 55.1265L183.969 56.8851C186.539 55.4933 188.687 53.5903 190.366 51.2233L188.735 50.0659ZM183.017 55.1265L181.602 56.5407L181.603 56.5417L183.018 55.1274L184.432 53.7132L184.431 53.7122L183.017 55.1265ZM183.018 55.1274L182.036 53.3851C179.752 54.6722 177.244 55.3091 174.548 55.3091V57.3091V59.3091C177.9 59.3091 181.089 58.5103 184 56.8697L183.018 55.1274ZM174.548 57.3091V55.3091C170.315 55.3091 166.639 53.7671 163.615 50.7435L162.201 52.1577L160.787 53.572C164.547 57.3319 169.235 59.3091 174.548 59.3091V57.3091ZM162.201 52.1577L163.615 50.7435C162.398 49.526 161.435 48.2047 160.717 46.7944L158.935 47.7017L157.152 48.609C158.071 50.4138 159.288 52.0734 160.787 53.5719L162.201 52.1577ZM158.935 47.7017L157.746 46.0933C157.326 46.4035 156.869 46.6324 156.383 46.7786L156.959 48.6938L157.535 50.6091C158.468 50.3285 159.339 49.89 160.123 49.3101L158.935 47.7017ZM156.959 48.6938H154.959V50.7085H156.959H158.959V48.6938H156.959ZM25.0381 39.647H23.0381C23.0381 41.2775 23.5698 42.695 24.731 43.9541L26.2012 42.5981L27.6713 41.2422C27.1985 40.7296 27.0381 40.283 27.0381 39.647H25.0381ZM26.2012 42.5981L24.7594 43.9842L24.9293 44.161L26.3711 42.7749L27.8129 41.3888L27.643 41.2121L26.2012 42.5981ZM26.3711 42.7749L24.912 44.1428L24.9267 44.1584L26.3857 42.7905L27.8448 41.4226L27.8302 41.407L26.3711 42.7749ZM26.3857 42.7905L25.0179 44.2496L25.0335 44.2643L26.4014 42.8052L27.7692 41.3461L27.7536 41.3315L26.3857 42.7905ZM26.4014 42.8052L24.9714 44.2034C26.2263 45.4868 27.6994 46.1068 29.4979 46.1069L29.498 44.1069L29.4982 42.1069C28.7749 42.1069 28.333 41.92 27.8313 41.4069L26.4014 42.8052ZM29.498 44.1069V46.1069C31.2967 46.1069 32.7972 45.4868 34.0949 44.1891L32.6807 42.7749L31.2665 41.3607C30.712 41.9151 30.226 42.1069 29.498 42.1069V44.1069ZM32.6807 42.7749L34.0949 44.1891C35.3463 42.9377 35.959 41.4596 35.959 39.647H33.959H31.959C31.959 40.4123 31.7582 40.869 31.2664 41.3607L32.6807 42.7749ZM33.959 39.647H35.959V39.5923H33.959H31.959V39.647H33.959ZM33.959 39.5923L35.959 39.5921C35.9588 37.9638 35.3962 36.4922 34.1579 35.1235L32.6748 36.4653L31.1917 37.8071C31.8066 38.4868 31.9589 39.0166 31.959 39.5925L33.959 39.5923ZM32.6748 36.4653L34.0142 34.9801C32.6516 33.7513 31.1649 33.187 29.498 33.187V35.187V37.187C30.1348 37.187 30.6769 37.3568 31.3354 37.9506L32.6748 36.4653ZM29.498 35.187L29.4979 33.187C27.6851 33.1871 26.2079 33.8001 24.9569 35.0511L26.3711 36.4653L27.7853 37.8796C28.2772 37.3877 28.7333 37.1871 29.4982 37.187L29.498 35.187ZM26.3711 36.4653L24.9569 35.0511C23.6604 36.3476 23.0382 37.8469 23.0381 39.6469L25.0381 39.647L27.0381 39.6471C27.0381 38.9207 27.2298 38.435 27.7853 37.8795L26.3711 36.4653Z" fill="#A9B1BC" mask="url(#path-4-outside-1_206_3861)"/>
<path d="M37.7803 15.1836C37.7803 14.5298 38.0346 13.8941 38.5431 13.2766C39.1606 12.768 39.7963 12.5138 40.4502 12.5138C41.1404 12.5138 41.7942 12.768 42.4117 13.2766C42.9203 13.8941 43.1746 14.5298 43.1746 15.1836V39.6485C43.1746 43.39 41.8305 46.6047 39.1425 49.2928C36.4544 51.9808 33.2397 53.3248 29.4982 53.3248C25.7204 53.3248 22.4874 51.9808 19.7994 49.2928C17.1476 46.641 15.8218 43.4263 15.8218 39.6485C15.8218 35.8344 17.1476 32.6014 19.7994 29.9497C22.4511 27.298 25.684 25.9721 29.4982 25.9721C32.5858 25.9721 35.3465 26.8984 37.7803 28.751V15.1836ZM37.7803 39.594C37.7803 37.4145 36.9811 35.4711 35.3828 33.7638C33.6756 32.1655 31.714 31.3664 29.4982 31.3664C27.2097 31.3664 25.2663 32.1655 23.668 33.7638C22.0334 35.3985 21.2161 37.36 21.2161 39.6485C21.2161 41.9006 22.0334 43.844 23.668 45.4786C25.2663 47.1133 27.2097 47.9306 29.4982 47.9306C31.7867 47.9306 33.7482 47.1133 35.3828 45.4786C36.9811 43.8803 37.7803 41.937 37.7803 39.6485V39.594ZM51.6512 50.7639C51.6512 51.4178 51.3969 52.0534 50.8884 52.671C50.3435 53.2158 49.7078 53.4883 48.9813 53.4883C48.2185 53.4883 47.5828 53.2158 47.0743 52.671C46.5294 52.1261 46.257 51.4904 46.257 50.7639V39.8119C46.257 36.0342 47.601 32.8012 50.289 30.1132C52.9408 27.4615 56.1555 26.1356 59.9333 26.1356C60.6235 26.1356 61.2774 26.3899 61.8949 26.8984C62.4035 27.5159 62.6577 28.1516 62.6577 28.8055C62.6577 29.4593 62.4035 30.095 61.8949 30.7125C61.35 31.2574 60.6962 31.5299 59.9333 31.5299C57.6449 31.5299 55.7015 32.329 54.1032 33.9273C52.4685 35.5619 51.6512 37.5235 51.6512 39.8119V50.7639ZM68.344 42.4273C68.9252 44.0983 69.9242 45.4423 71.3408 46.4594C72.8302 47.5128 74.4466 48.0395 76.1902 48.0395C76.8804 48.0395 77.2437 48.0214 77.28 47.9851L77.7159 47.9306L78.1518 47.8761L78.4787 47.8216L78.7512 47.7671C79.8772 47.5128 81.0578 47.0043 82.2929 46.2415C82.9104 45.8419 83.5824 45.7874 84.3089 46.078C85.0717 46.3686 85.5984 46.8408 85.889 47.4947C86.5429 48.8387 86.107 50.0374 84.5813 51.0908C82.7651 52.1443 81.1668 52.8344 79.7864 53.1614L79.405 53.2158L78.9691 53.2703L78.4242 53.3248L77.8249 53.3793L77.0076 53.4338H76.1902C72.4124 53.4338 69.1795 52.0898 66.4914 49.4017C63.8397 46.75 62.5138 43.5353 62.5138 39.7575C62.5138 35.9433 63.8397 32.7104 66.4914 30.0587C69.1432 27.407 72.3761 26.0811 76.1902 26.0811C79.8591 26.0811 82.9649 27.2435 85.5076 29.5683C88.4136 32.1837 89.8666 35.5801 89.8666 39.7575C89.8666 40.4113 89.6124 41.047 89.1038 41.6645C88.4863 42.1731 87.8324 42.4273 87.1423 42.4273H68.344ZM84.091 37.0331C83.5461 35.2168 82.4926 33.8183 80.9307 32.8376C79.5866 31.9294 78.0065 31.4754 76.1902 31.4754C74.4466 31.4754 72.8302 32.0021 71.3408 33.0555C69.9242 34.0726 68.9252 35.3985 68.344 37.0331H84.091ZM94.5573 44.3344C95.8286 44.0438 96.9002 44.7521 97.772 46.4594C98.3895 47.5492 99.2977 48.094 100.496 48.094C101.259 48.094 101.913 47.8216 102.458 47.2767C103.003 46.7318 103.275 46.0598 103.275 45.2607C103.275 44.4979 103.003 43.844 102.458 43.2991C101.913 42.7543 101.259 42.4818 100.496 42.4818C98.2442 42.4818 96.319 41.6827 94.7207 40.0844C93.1224 38.5587 92.3233 36.6335 92.3233 34.3087C92.3233 32.0566 93.1224 30.1313 94.7207 28.5331C96.319 26.9348 98.2442 26.1356 100.496 26.1356C102.385 26.1356 104.111 26.6986 105.673 27.8247C107.198 28.9871 108.088 30.313 108.343 31.8023C108.488 32.2382 108.361 32.9284 107.961 33.8728C107.598 34.454 107.035 34.8354 106.272 35.0171C104.71 35.344 103.639 34.672 103.057 33.001C102.694 32.0202 101.84 31.5299 100.496 31.5299C99.7336 31.5299 99.0797 31.8023 98.5349 32.3472C97.99 32.892 97.7175 33.5459 97.7175 34.3087C97.7175 35.0715 97.99 35.7254 98.5349 36.2703C99.0797 36.8151 99.7336 37.0876 100.496 37.0876C102.749 37.0876 104.674 37.8867 106.272 39.485C107.87 41.0833 108.67 43.0085 108.67 45.2607C108.67 47.4402 107.87 49.3836 106.272 51.0908C104.674 52.6891 102.749 53.4883 100.496 53.4883C98.6438 53.4883 96.9547 52.8889 95.4291 51.6902C94.0124 50.6004 93.0316 49.2201 92.4867 47.5492C92.2324 46.859 92.3414 46.187 92.8136 45.5331C93.2859 44.8793 93.8671 44.4797 94.5573 44.3344ZM114.086 44.3344C115.357 44.0438 116.429 44.7521 117.3 46.4594C117.918 47.5492 118.826 48.094 120.025 48.094C120.788 48.094 121.441 47.8216 121.986 47.2767C122.531 46.7318 122.804 46.0598 122.804 45.2607C122.804 44.4979 122.531 43.844 121.986 43.2991C121.441 42.7543 120.788 42.4818 120.025 42.4818C117.773 42.4818 115.847 41.6827 114.249 40.0844C112.651 38.5587 111.852 36.6335 111.852 34.3087C111.852 32.0566 112.651 30.1313 114.249 28.5331C115.847 26.9348 117.773 26.1356 120.025 26.1356C121.914 26.1356 123.639 26.6986 125.201 27.8247C126.727 28.9871 127.617 30.313 127.871 31.8023C128.016 32.2382 127.889 32.9284 127.489 33.8728C127.126 34.454 126.563 34.8354 125.8 35.0171C124.238 35.344 123.167 34.672 122.586 33.001C122.222 32.0202 121.369 31.5299 120.025 31.5299C119.262 31.5299 118.608 31.8023 118.063 32.3472C117.518 32.892 117.246 33.5459 117.246 34.3087C117.246 35.0715 117.518 35.7254 118.063 36.2703C118.608 36.8151 119.262 37.0876 120.025 37.0876C122.277 37.0876 124.202 37.8867 125.8 39.485C127.399 41.0833 128.198 43.0085 128.198 45.2607C128.198 47.4402 127.399 49.3836 125.8 51.0908C124.202 52.6891 122.277 53.4883 120.025 53.4883C118.172 53.4883 116.483 52.8889 114.957 51.6902C113.541 50.6004 112.56 49.2201 112.015 47.5492C111.761 46.859 111.87 46.187 112.342 45.5331C112.814 44.8793 113.395 44.4797 114.086 44.3344ZM147.688 45.1517H132.65C131.342 45.1517 130.506 44.5887 130.143 43.4626C129.744 42.4092 129.871 41.4829 130.525 40.6837L148.342 16.0009L148.451 15.892C149.323 15.0202 150.322 14.8204 151.448 15.2926C152.574 15.6559 153.137 16.4913 153.137 17.799V39.703H155.044C155.734 39.703 156.388 39.9572 157.006 40.4658C157.514 41.0833 157.768 41.7372 157.768 42.4273C157.768 43.0812 157.514 43.7169 157.006 44.3344C156.461 44.8793 155.807 45.1517 155.044 45.1517H153.137V50.7094C153.137 51.3633 152.883 51.999 152.374 52.6165C151.829 53.1614 151.175 53.4338 150.413 53.4338C149.65 53.4338 149.014 53.1614 148.506 52.6165C147.961 52.0716 147.688 51.4359 147.688 50.7094V45.1517ZM147.688 39.703V25.5907L138.316 39.703H147.688ZM186.698 35.0171C186.48 35.7072 186.063 36.2521 185.445 36.6517C184.791 37.0149 184.101 37.0876 183.375 36.8696C182.684 36.7243 182.14 36.3247 181.74 35.6709C180.178 32.9102 177.781 31.5299 174.548 31.5299C172.368 31.5299 170.425 32.329 168.717 33.9273C167.083 35.5619 166.266 37.5235 166.266 39.8119C166.266 42.0641 167.083 44.0075 168.717 45.6421C170.352 47.2767 172.296 48.094 174.548 48.094C177.563 48.094 179.887 46.8227 181.522 44.2799C181.885 43.6987 182.467 43.3173 183.266 43.1357C183.992 42.954 184.664 43.063 185.282 43.4626C185.863 43.8258 186.244 44.3889 186.426 45.1517C186.571 45.5876 186.444 46.2778 186.045 47.2222C184.809 49.1838 183.175 50.7094 181.141 51.7992C179.143 52.9252 176.945 53.4883 174.548 53.4883C170.806 53.4883 167.591 52.1443 164.903 49.4562C162.252 46.8045 160.926 43.5897 160.926 39.8119C160.926 35.9978 162.252 32.7649 164.903 30.1132C167.555 27.4615 170.77 26.1356 174.548 26.1356C177.018 26.1356 179.306 26.7531 181.413 27.9882C183.447 29.0779 185.118 30.7307 186.426 32.9465C186.789 33.3098 186.88 34 186.698 35.0171ZM216.528 50.6549C216.528 51.4541 216.274 52.1079 215.765 52.6165C215.257 53.125 214.603 53.3793 213.804 53.3793C213.295 53.3793 212.732 53.125 212.115 52.6165C211.497 51.999 211.188 51.3451 211.188 50.6549C208.936 52.4712 206.248 53.3793 203.124 53.3793C199.274 53.3793 196.023 52.1079 193.371 49.5652C190.683 46.9861 189.339 43.7895 189.339 39.9754C189.339 36.1613 190.683 32.9102 193.371 30.2222C196.059 27.5341 199.31 26.1901 203.124 26.1901C206.938 26.1901 210.135 27.5341 212.714 30.2222C215.257 32.8739 216.528 36.125 216.528 39.9754V50.6549ZM197.185 45.6966C198.747 47.2586 200.727 48.0395 203.124 48.0395C205.413 48.0395 207.338 47.2586 208.9 45.6966C210.426 44.1709 211.188 42.2639 211.188 39.9754C211.188 37.6506 210.426 35.6709 208.9 34.0363C207.338 32.3653 205.413 31.5299 203.124 31.5299C200.836 31.5299 198.856 32.3653 197.185 34.0363C195.514 35.7072 194.679 37.6869 194.679 39.9754C194.679 42.2276 195.514 44.1346 197.185 45.6966ZM225.171 50.7639C225.171 51.4178 224.917 52.0534 224.408 52.671C223.863 53.2158 223.228 53.4883 222.501 53.4883C221.738 53.4883 221.103 53.2158 220.594 52.671C220.049 52.1261 219.777 51.4904 219.777 50.7639V39.8119C219.777 36.0342 221.121 32.8012 223.809 30.1132C226.46 27.4615 229.675 26.1356 233.453 26.1356C234.143 26.1356 234.797 26.3899 235.415 26.8984C235.923 27.5159 236.177 28.1516 236.177 28.8055C236.177 29.4593 235.923 30.095 235.415 30.7125C234.87 31.2574 234.216 31.5299 233.453 31.5299C231.165 31.5299 229.221 32.329 227.623 33.9273C225.988 35.5619 225.171 37.5235 225.171 39.8119V50.7639Z" fill="#F60114"/>
<ellipse cx="174.499" cy="39.4956" rx="3.5" ry="3.49998" fill="#A9B1BC"/>
</svg>
