<svg width="52" height="52" viewBox="0 0 52 52" fill="none" xmlns="http://www.w3.org/2000/svg">
<path d="M45.8233 16.9325C46.0635 16.7724 46.1435 16.4521 46.0635 16.2119V16.1319C45.5031 13.4096 43.9817 11.0075 41.7399 9.32614C41.4997 9.16598 41.2595 9.08594 40.9392 9.24611C38.1369 10.2069 35.895 10.2069 34.1336 9.16607C31.3312 7.48467 30.8508 3.48129 30.8508 3.48129C30.8508 3.16106 30.6106 2.92086 30.2904 2.84073C27.5681 1.71976 24.5256 1.71976 21.7232 2.84073C21.483 2.92076 21.2428 3.16096 21.2428 3.48129C21.2428 3.48129 20.7624 7.40454 17.96 9.16607C16.1986 10.287 13.8766 10.287 11.0742 9.24611C10.834 9.08594 10.5938 9.16607 10.3536 9.32614C8.11178 11.0075 6.59054 13.4096 6.03001 16.1318V16.2118C6.03001 16.452 6.11005 16.7723 6.27021 16.9324C8.67222 19.3344 10.0334 22.9375 10.0334 26.7807C10.0334 30.6239 8.67222 34.2269 6.27021 36.6289C6.03001 36.7891 5.94998 37.1093 6.03001 37.3495V37.4295C6.59045 40.1518 8.11178 42.5538 10.3536 44.2352C10.5938 44.3954 10.834 44.4754 11.0742 44.3954C11.5546 44.2352 21.6431 40.7923 25.3261 49.5196C25.4061 49.8398 25.7265 50 26.0467 50C26.3669 50 26.6873 49.8398 26.7673 49.4396C30.5305 40.7923 40.6189 44.1552 41.0192 44.3153C41.2594 44.4755 41.4996 44.3954 41.7398 44.2353C43.9816 42.5539 45.503 40.1519 46.0634 37.4296V37.3496C46.0634 37.1094 45.9834 36.7892 45.8232 36.629C40.8591 31.6648 40.8591 21.8966 45.8233 16.9325ZM41.0993 42.634C39.0175 42.0736 30.2903 40.0718 26.0467 47.358C23.4845 43.0344 19.3211 41.9935 15.9583 41.9935C13.7164 41.9935 11.7948 42.4739 10.9941 42.7141C9.39273 41.353 8.19172 39.5115 7.71132 37.4297C10.1934 34.7875 11.6346 30.9443 11.6346 26.7809C11.6346 22.6174 10.1934 18.7742 7.71132 16.0519C8.19172 13.9701 9.39273 12.1286 10.9941 10.7674C14.1167 11.8083 16.7589 11.7282 18.8407 10.4472C21.6431 8.68558 22.5238 5.32277 22.764 4.04173C24.9258 3.32113 27.1677 3.32113 29.3295 4.04173C29.5697 5.32277 30.4504 8.68558 33.2527 10.4471C35.3345 11.7282 37.9767 11.8083 41.0993 10.7673C42.7807 12.1285 43.9017 13.97 44.3821 16.0518C39.1777 21.6564 39.1777 31.7448 44.3821 37.3496C43.9017 39.4313 42.7807 41.2728 41.0993 42.634Z" fill="#F60114"/>
<path d="M27.0877 41.5928C26.7674 41.913 26.3671 42.1532 26.0468 42.4736C25.7266 42.1533 25.3262 41.833 25.006 41.5928C24.6056 41.3526 24.1252 41.4326 23.885 41.753C23.6448 42.0732 23.7249 42.6337 24.0452 42.8739C24.6056 43.1942 25.006 43.5945 25.4864 44.0749C25.6466 44.2351 25.8066 44.3151 26.0468 44.3151C26.287 44.3151 26.4472 44.2351 26.6073 44.0749C27.0877 43.6746 27.5681 43.2743 28.0485 42.8739C28.3687 42.6337 28.4488 42.0733 28.2086 41.753C27.9684 41.4326 27.4079 41.3526 27.0877 41.5928Z" fill="#0022B2"/>
<path d="M21.2428 39.6713C20.202 39.2709 19.001 39.0307 17.8 38.9507C17.3196 38.9507 16.9994 39.2709 16.9192 39.6713C16.8392 40.1517 17.2395 40.4719 17.6398 40.5521C18.7608 40.6321 19.8016 40.8723 20.7624 41.1926C20.8425 41.1926 20.9226 41.1926 21.0026 41.1926C21.3229 41.1926 21.6432 40.9524 21.7232 40.7122C21.8833 40.2318 21.6431 39.8315 21.2428 39.6713Z" fill="#0022B2"/>
<path d="M13.6364 38.951C13.076 39.031 12.5154 39.1111 12.035 39.1912C11.7148 38.7908 11.4746 38.4706 11.3144 38.0702C11.6347 37.6698 11.955 37.1894 12.2752 36.709C12.4354 36.3087 12.3553 35.8283 11.955 35.5881C11.5546 35.4279 11.0742 35.508 10.834 35.9083C10.5138 36.4687 10.1935 37.0293 9.7932 37.5097C9.63303 37.7499 9.63303 38.0701 9.71316 38.3103C10.0334 39.1911 10.5138 39.9117 11.1544 40.6323C11.2344 40.7925 11.4746 40.8725 11.7148 40.8725C11.7148 40.8725 11.7948 40.8725 11.875 40.8725C12.5155 40.7123 13.156 40.6323 13.7966 40.5523C14.277 40.4722 14.5972 40.0719 14.5172 39.6715C14.437 39.1912 14.1168 38.8709 13.6364 38.951Z" fill="#0022B2"/>
<path d="M13.9566 21.0156C13.8766 20.5352 13.3962 20.295 12.9958 20.4552C12.5154 20.5352 12.2752 21.0156 12.4354 21.416C12.7556 22.4568 12.9158 23.5778 13.076 24.6988C13.156 25.0991 13.4763 25.4194 13.8766 25.4194C13.8766 25.4194 13.9566 25.4194 13.9566 25.4994C14.437 25.4194 14.7573 25.019 14.6772 24.6186C14.5172 23.4176 14.277 22.2166 13.9566 21.0156Z" fill="#0022B2"/>
<path d="M13.8766 28.1421C13.3962 28.0621 13.076 28.4624 12.9959 28.8627C12.9158 30.0637 12.6756 31.1847 12.3553 32.2255C12.2753 32.6259 12.5155 33.0262 12.9157 33.1863C12.9958 33.1863 13.0759 33.1863 13.1559 33.1863C13.5563 33.1863 13.8765 32.9461 13.8765 32.6259C14.1968 31.5049 14.437 30.2239 14.5971 29.0229C14.5972 28.5425 14.277 28.2223 13.8766 28.1421Z" fill="#0022B2"/>
<path d="M12.1953 16.8522C11.9551 16.3718 11.6348 15.8914 11.3145 15.491C11.4747 15.0907 11.7149 14.7704 11.9551 14.4502C12.5155 14.5302 13.076 14.6104 13.5564 14.6904C13.9568 14.6904 14.3571 14.3702 14.4372 13.9698C14.4372 13.5694 14.117 13.1691 13.6366 13.089C13.0761 13.009 12.4356 12.9289 11.795 12.7688C11.4748 12.6887 11.1544 12.7688 10.9944 13.009C10.4339 13.6495 9.95352 14.4502 9.63319 15.2508C9.47303 15.491 9.55316 15.8113 9.71323 16.0515C10.1136 16.5319 10.4338 17.0923 10.7541 17.6528C10.9142 17.893 11.2345 18.0532 11.4747 18.0532C11.6348 18.0532 11.7949 18.0532 11.875 17.9732C12.2753 17.733 12.4355 17.2526 12.1953 16.8522Z" fill="#0022B2"/>
<path d="M20.7623 11.0071C19.8815 11.7277 18.9207 12.3683 17.7999 12.6885C17.3995 12.8487 17.1593 13.3291 17.3195 13.7293C17.4796 14.0496 17.7999 14.2898 18.1201 14.2898C18.2001 14.2898 18.2803 14.2898 18.2803 14.2898C19.5613 13.8094 20.7623 13.1688 21.8032 12.208C22.1235 11.8878 22.2036 11.4074 21.8833 11.087C21.5629 10.7669 21.0825 10.6869 20.7623 11.0071Z" fill="#0022B2"/>
<path d="M28.0484 5.88369C27.9684 5.56345 27.7282 5.40328 27.4078 5.32325C26.5271 5.16308 25.5663 5.16308 24.6054 5.32325C24.2852 5.40328 24.045 5.56345 23.9649 5.88369C23.8047 6.52425 23.5645 7.08469 23.3243 7.64513C23.1642 8.04549 23.3243 8.52589 23.7247 8.68596C23.8047 8.766 23.9649 8.766 24.0449 8.766C24.3652 8.766 24.6054 8.60583 24.6054 8.2856C24.8456 7.8052 25.0858 7.24476 25.2459 6.76436C25.7263 6.68432 26.1267 6.68432 26.6071 6.76436C26.8473 7.3248 27.0075 7.8052 27.2477 8.2856C27.4078 8.68596 27.8882 8.84604 28.2885 8.68596C28.6888 8.52589 28.8489 8.0454 28.6889 7.64513C28.4488 7.08469 28.2086 6.52416 28.0484 5.88369Z" fill="#0022B2"/>
<path d="M33.9734 14.2903C34.2937 14.2903 34.614 14.0501 34.694 13.7299C34.8542 13.2495 34.614 12.8491 34.2136 12.6891C33.0926 12.3688 32.1318 11.8083 31.2512 11.0076C30.9309 10.7674 30.4505 10.7674 30.1302 11.0877C29.89 11.4079 29.89 11.8883 30.2102 12.2087C31.2511 13.1695 32.4521 13.8901 33.7332 14.2904C33.8133 14.2903 33.8933 14.2903 33.9734 14.2903Z" fill="#0022B2"/>
<path d="M38.5372 14.6904C39.0976 14.6904 39.578 14.5302 40.1386 14.4502C40.3788 14.7704 40.619 15.0908 40.7791 15.491C40.4589 15.8914 40.1386 16.3718 39.8984 16.8522C39.7382 17.2526 39.8183 17.733 40.2186 17.9732C40.3788 18.0532 40.4588 18.0532 40.619 18.0532C40.8592 18.0532 41.0994 17.893 41.2595 17.6528C41.5798 17.0924 41.9001 16.5319 42.3004 16.0515C42.4605 15.8113 42.4605 15.491 42.3804 15.2508C42.0602 14.4502 41.5798 13.6495 41.0192 13.009C40.779 12.7688 40.5388 12.6887 40.2186 12.7688C39.578 12.9289 39.0176 13.009 38.377 13.089C37.8966 13.1691 37.5764 13.5694 37.6564 13.9698C37.7365 14.4502 38.0568 14.7705 38.5372 14.6904Z" fill="#0022B2"/>
<path d="M38.1369 25.4194H38.2169C38.6173 25.4194 38.9375 25.1792 39.0175 24.6988C39.0976 23.4978 39.3378 22.3768 39.6581 21.336C39.7381 20.9356 39.4979 20.4552 39.0977 20.3752C38.6974 20.2952 38.297 20.5354 38.1369 20.9356C37.8166 22.0566 37.5764 23.3376 37.4163 24.5386C37.4163 24.939 37.7365 25.3394 38.1369 25.4194Z" fill="#0022B2"/>
<path d="M38.9375 33.1859C39.0176 33.1859 39.0977 33.1859 39.0977 33.1859C39.5781 33.1058 39.8183 32.6254 39.6581 32.2251C39.3379 31.1041 39.1777 29.9832 39.0176 28.8622C38.9375 28.3818 38.6172 28.0616 38.1368 28.1416C37.6564 28.2217 37.3361 28.622 37.4162 29.0224C37.5763 30.2234 37.8165 31.4244 38.1368 32.6254C38.297 32.9457 38.6173 33.1859 38.9375 33.1859Z" fill="#0022B2"/>
<path d="M39.8983 36.7088C40.1385 37.1892 40.4587 37.6696 40.779 38.07C40.5388 38.4704 40.2986 38.8706 40.0584 39.191C39.498 39.1109 39.0176 39.0308 38.4571 38.9508C37.9767 38.9508 37.6564 39.271 37.5763 39.6714C37.5763 40.0717 37.8965 40.472 38.2969 40.5521C38.9375 40.6322 39.5779 40.7123 40.2185 40.8724C40.2985 40.8724 40.2985 40.8724 40.3787 40.8724C40.6189 40.8724 40.8591 40.7923 41.0192 40.6322C41.6598 39.9116 42.1402 39.191 42.4604 38.3102C42.6206 38.07 42.5405 37.7498 42.3804 37.5096C41.98 37.0292 41.6598 36.4687 41.3396 35.9082C41.0994 35.5078 40.619 35.3478 40.2186 35.588C39.8182 35.8282 39.6581 36.3085 39.8983 36.7088Z" fill="#0022B2"/>
<path d="M34.2936 38.8711C33.0926 39.0313 31.9716 39.2715 30.8508 39.5917C30.4504 39.7519 30.2102 40.2323 30.3704 40.6325C30.5305 40.9528 30.8508 41.193 31.171 41.193C31.251 41.193 31.3312 41.1129 31.3312 41.1129C32.292 40.7927 33.3328 40.5525 34.4538 40.4724C34.9342 40.3923 35.2544 39.992 35.1744 39.5916C35.0942 39.1113 34.774 38.8711 34.2936 38.8711Z" fill="#0022B2"/>
</svg>
