<svg width="32" height="39" viewBox="0 0 32 39" fill="none" xmlns="http://www.w3.org/2000/svg">
<path d="M16 1.5C24.6622 1.5 30.4998 8.9126 30.5 16.2607C30.5 22.2378 26.9753 27.169 24.041 30.3008L24.0381 30.3037C22.3469 32.1007 20.4871 33.7256 18.4854 35.1543L18.4834 35.1553C18.3246 35.2682 18.1845 35.3637 18.0713 35.4385L18.0723 35.4395C17.6482 35.7272 17.2053 36.0069 16.8145 36.2598L16 36.7861L15.1855 36.2598C14.7949 36.0071 14.3537 35.7279 13.9326 35.4443L13.9248 35.4395L13.918 35.4346L13.5332 35.1689L13.5244 35.1631L13.5146 35.1562C11.5128 33.7275 9.65309 32.1027 7.96191 30.3057L7.95898 30.3018C5.02536 27.1666 1.5 22.2359 1.5 16.2588C1.50013 8.91251 7.33786 1.5 16 1.5ZM16 13.6807C15.3468 13.6807 14.7144 13.9453 14.2432 14.4258C13.771 14.9074 13.5001 15.567 13.5 16.2607C13.5 16.9546 13.7709 17.615 14.2432 18.0967C14.7144 18.5771 15.3469 18.8418 16 18.8418C16.6531 18.8418 17.2856 18.5771 17.7568 18.0967C18.2291 17.615 18.5 16.9546 18.5 16.2607C18.4999 15.567 18.229 14.9074 17.7568 14.4258C17.2856 13.9453 16.6532 13.6807 16 13.6807Z" fill="#F60114" stroke="#0022B2" stroke-width="3"/>
</svg>
