<svg width="16" height="16" viewBox="0 0 16 16" fill="none" xmlns="http://www.w3.org/2000/svg">
<g clip-path="url(#clip0_229_1233)">
<mask id="mask0_229_1233" style="mask-type:luminance" maskUnits="userSpaceOnUse" x="0" y="0" width="16" height="16">
<path d="M8.00066 14.6667C8.87629 14.6677 9.74351 14.4958 10.5525 14.1607C11.3615 13.8256 12.0963 13.3339 12.7147 12.714C13.3346 12.0956 13.8263 11.3608 14.1614 10.5518C14.4965 9.74284 14.6684 8.87562 14.6673 7.99998C14.6684 7.12435 14.4965 6.25713 14.1614 5.44815C13.8263 4.63917 13.3346 3.90438 12.7147 3.28598C12.0963 2.66604 11.3615 2.17439 10.5525 1.83929C9.74351 1.50419 8.87629 1.33224 8.00066 1.33332C7.12502 1.33224 6.2578 1.50419 5.44882 1.83929C4.63984 2.17439 3.90505 2.66604 3.28666 3.28598C2.66671 3.90438 2.17506 4.63917 1.83996 5.44815C1.50486 6.25713 1.33291 7.12435 1.33399 7.99998C1.33291 8.87562 1.50486 9.74284 1.83996 10.5518C2.17506 11.3608 2.66671 12.0956 3.28666 12.714C3.90505 13.3339 4.63984 13.8256 5.44882 14.1607C6.2578 14.4958 7.12502 14.6677 8.00066 14.6667Z" fill="white" stroke="white" stroke-width="2" stroke-linejoin="round"/>
<path d="M5.33398 8L7.33398 10L11.334 6" stroke="black" stroke-width="2" stroke-linecap="round" stroke-linejoin="round"/>
</mask>
<g mask="url(#mask0_229_1233)">
<path d="M0 0H16V16H0V0Z" fill="#F60114"/>
</g>
</g>
<defs>
<clipPath id="clip0_229_1233">
<rect width="16" height="16" fill="white"/>
</clipPath>
</defs>
</svg>
