<svg width="104" height="133" viewBox="0 0 104 133" fill="none" xmlns="http://www.w3.org/2000/svg">
<path opacity="0.45" d="M0.184071 133C0.184071 120.543 1.71799 109.978 4.78584 101.307C7.85369 92.6359 12.6395 85.1859 19.1434 78.9573C25.6472 72.6065 33.9917 66.8053 44.177 61.5537C50.0673 58.5005 54.669 55.9357 57.9823 53.8595C61.4183 51.6612 63.8112 49.5849 65.1611 47.6309C66.5109 45.5546 67.1858 43.2342 67.1858 40.6694C67.1858 38.3489 66.6336 36.3338 65.5292 34.624C64.5475 32.792 63.0749 31.3875 61.1115 30.4105C59.1481 29.3113 56.6938 28.7617 53.7487 28.7617C48.8401 28.7617 44.9133 30.4105 41.9681 33.708C39.1457 37.0055 37.4277 41.8297 36.8142 48.1804L0 46.1653C0.981711 31.5096 6.13569 20.1515 15.4619 12.0909C24.7882 4.0303 37.4277 0 53.3805 0C64.0566 0 73.1375 1.70983 80.623 5.12948C88.2313 8.427 93.9988 13.129 97.9257 19.2355C101.975 25.2199 104 32.2424 104 40.303C104 47.1423 102.834 52.8825 100.503 57.5234C98.1711 62.0422 94.551 66.1947 89.6425 69.9807C84.7339 73.6446 78.4142 77.5528 70.6832 81.7052C61.1115 86.8347 54.1168 91.2314 49.6991 94.8953C45.4041 98.5592 43.0726 101.674 42.7044 104.238H104V133H0.184071Z" fill="#F1F1F1"/>
</svg>
