<svg width="106" height="130" viewBox="0 0 106 130" fill="none" xmlns="http://www.w3.org/2000/svg">
<path d="M52.5546 130C41.2717 130 31.8297 128.388 24.2286 125.165C16.7462 121.942 10.986 117.406 6.9479 111.556C3.02857 105.588 0.712605 98.6042 0 90.6061L35.0958 89.1736C36.1647 93.4711 38.1244 96.6345 40.9748 98.6639C43.8252 100.693 47.6852 101.708 52.5546 101.708C58.2555 101.708 62.6499 100.156 65.7378 97.0523C68.8258 93.9486 70.3698 89.5317 70.3698 83.8017C70.3698 80.3398 69.5978 77.2957 68.0538 74.6694C66.6286 71.9238 64.6095 69.775 61.9966 68.2231C59.3838 66.6713 56.2364 65.8953 52.5546 65.8953C47.9227 65.8953 44.1221 66.9697 41.1529 69.1185C38.3025 71.1478 36.2835 73.5354 35.0958 76.281H0.890756L9.97647 0H97.2706V28.1129H39.0151L35.0958 58.7328L31.8891 56.2259C33.9081 53.4803 36.4022 51.0927 39.3714 49.0634C42.3406 46.9146 45.8443 45.2433 49.8824 44.0496C53.9205 42.8558 58.493 42.2589 63.6 42.2589C72.5076 42.2589 80.1087 44.1093 86.4034 47.8099C92.698 51.3912 97.5081 56.3453 100.834 62.6722C104.278 68.8797 106 75.9229 106 83.8017C106 93.4711 103.803 101.768 99.4084 108.691C95.1328 115.615 88.9569 120.927 80.8807 124.628C72.9233 128.209 63.4812 130 52.5546 130Z" fill="#F9F9F9"/>
</svg>
