<svg width="104" height="133" viewBox="0 0 104 133" fill="none" xmlns="http://www.w3.org/2000/svg">
<path d="M52.6287 133C40.7738 133 30.9545 130.61 23.171 125.83C15.3875 120.931 9.57974 114 5.74784 105.038C1.91595 95.956 0 85.1415 0 72.5943C0 61.8396 1.19747 52.0409 3.5924 43.1981C6.10708 34.2358 9.69948 26.5881 14.3696 20.2547C19.1595 13.8019 25.0869 8.84276 32.152 5.37735C39.217 1.79245 47.2999 0 56.4007 0C69.4531 0 79.9309 3.16666 87.8342 9.5C95.8572 15.7138 101.006 24.3774 103.282 35.4906L72.0276 37.6415C70.5907 34.2956 68.7346 31.7862 66.4594 30.1132C64.1842 28.3208 60.7715 27.4245 56.2211 27.4245C49.2758 27.4245 43.8273 30.4717 39.8756 36.566C35.924 42.6604 33.6488 52.3396 33.0501 65.6038L28.9188 64.8868C30.1163 62.0189 32.0322 59.3302 34.6667 56.8208C37.3011 54.1918 40.7139 52.1006 44.905 50.5472C49.0961 48.8742 54.1854 48.0377 60.1727 48.0377C69.034 48.0377 76.7576 49.7107 83.3437 53.0566C89.9298 56.4025 95.019 61.1226 98.6114 67.217C102.204 73.3113 104 80.4214 104 88.5472C104 98.1069 101.845 106.233 97.5337 112.925C93.2228 119.497 87.2355 124.516 79.5717 127.981C71.9079 131.327 62.9269 133 52.6287 133ZM52.0898 106.83C57.3587 106.83 61.5498 105.217 64.6632 101.991C67.8964 98.6447 69.513 94.283 69.513 88.9057C69.513 85.3208 68.7945 82.1541 67.3575 79.4057C65.9206 76.6572 63.9447 74.5063 61.4301 72.9528C58.9154 71.3994 55.9217 70.6226 52.4491 70.6226C48.8567 70.6226 45.6834 71.3994 42.9292 72.9528C40.2948 74.5063 38.1992 76.6572 36.6425 79.4057C35.2055 82.1541 34.487 85.3208 34.487 88.9057C34.487 92.4906 35.2055 95.6572 36.6425 98.4057C38.0794 101.035 40.1151 103.126 42.7496 104.679C45.5037 106.113 48.6172 106.83 52.0898 106.83Z" fill="#F9F9F9"/>
</svg>
