<svg xmlns="http://www.w3.org/2000/svg">
  <symbol id="arrow" width="22" height="20" viewBox="0 0 22 20" fill="none" xmlns="http://www.w3.org/2000/svg">
    <path d="M2.5 10H17.5M17.5 10L11.25 4M17.5 10L11.25 16" stroke="currentColor" stroke-width="5" stroke-linecap="square" />
  </symbol>

  <symbol id="linkWrite" xmlns="http://www.w3.org/2000/svg" width="19" height="19" viewBox="0 0 19 19" fill="none">
    <path d="M17.4167 5.54166L10.2988 10.0755C10.0573 10.2158 9.7829 10.2897 9.50357 10.2897C9.22424 10.2897 8.94989 10.2158 8.70834 10.0755L1.58334 5.54166" stroke="currentColor" stroke-linecap="round" stroke-linejoin="round"/>
    <path d="M15.8333 3.16666H3.16668C2.29223 3.16666 1.58334 3.87555 1.58334 4.75V14.25C1.58334 15.1244 2.29223 15.8333 3.16668 15.8333H15.8333C16.7078 15.8333 17.4167 15.1244 17.4167 14.25V4.75C17.4167 3.87555 16.7078 3.16666 15.8333 3.16666Z" stroke="currentColor" stroke-linecap="round" stroke-linejoin="round"/>
  </symbol>

  <symbol id="phoneBtn" xmlns="http://www.w3.org/2000/svg" width="20" height="20" viewBox="0 0 20 20" fill="none">
    <path d="M18.0404 13.6386L15.2125 13.3158C14.88 13.2767 14.5429 13.3135 14.2267 13.4234C13.9104 13.5334 13.6232 13.7135 13.3866 13.9504L11.338 15.999C8.17765 14.3912 5.60877 11.8223 4.00102 8.66193L6.06073 6.60221C6.53947 6.12347 6.77327 5.45546 6.69534 4.77631L6.37246 1.97065C6.30958 1.42743 6.049 0.926342 5.64039 0.562909C5.23179 0.199476 4.70374 -0.000890765 4.15689 2.97707e-06H2.23079C0.972706 2.97707e-06 -0.0738448 1.04656 0.00408987 2.30465C0.594166 11.8127 8.19836 19.4058 17.6953 19.9959C18.9533 20.0738 19.9999 19.0273 19.9999 17.7692V15.8431C20.011 14.7186 19.1649 13.7722 18.0404 13.6386Z" fill="currentColor"/>
  </symbol>

  <symbol id="like" xmlns="http://www.w3.org/2000/svg" width="27" height="23" viewBox="0 0 27 23" fill="none">
    <path d="M0.599976 6.9C0.599976 1.76666 4.68331 0.599998 7.01664 0.599998C9.93331 0.599998 12.2666 2.93333 13.4333 4.68333C14.6 2.93333 16.9333 0.599998 19.85 0.599998C22.1833 0.599998 26.2666 1.76666 26.2666 6.9C26.2666 14.6 13.4333 21.6 13.4333 21.6C13.4333 21.6 0.599976 14.6 0.599976 6.9Z" stroke="currentColor" stroke-width="1.2"/>
  </symbol>

  <symbol id="basket" xmlns="http://www.w3.org/2000/svg" width="28" height="28" viewBox="0 0 28 28" fill="none">
    <path d="M5.4 6.52H27.4L24.6086 16.288C24.3983 17.0233 23.9542 17.6701 23.3436 18.1305C22.7329 18.591 21.9889 18.84 21.2242 18.84H9.43216C8.56529 18.8405 7.72873 18.5211 7.08277 17.943C6.43681 17.3649 6.02687 16.5688 5.93152 15.7072L4.52 3H1" stroke="currentColor" stroke-width="1.2" stroke-linecap="round" stroke-linejoin="round"/>
    <path d="M8.91991 25C9.89193 25 10.6799 24.212 10.6799 23.24C10.6799 22.268 9.89193 21.48 8.91991 21.48C7.94789 21.48 7.15991 22.268 7.15991 23.24C7.15991 24.212 7.94789 25 8.91991 25Z" fill="currentColor"/>
    <path d="M22.9999 25C23.9719 25 24.7599 24.212 24.7599 23.24C24.7599 22.268 23.9719 21.48 22.9999 21.48C22.0278 21.48 21.2399 22.268 21.2399 23.24C21.2399 24.212 22.0278 25 22.9999 25Z" fill="currentColor"/>
  </symbol>

  <symbol id="lk" xmlns="http://www.w3.org/2000/svg" width="28" height="28" viewBox="0 0 28 28" fill="none">
    <path d="M24.1717 25C23.5631 23.2932 22.2188 21.7857 20.3501 20.7102C18.4815 19.6348 16.1914 19.0516 13.8359 19.0516C11.4803 19.0516 9.19028 19.6348 7.32161 20.7102C5.45294 21.7857 4.10862 23.2932 3.5 25" stroke="currentColor" stroke-width="1.2" stroke-linecap="round"/>
    <path d="M13.8357 13.701C16.7908 13.701 19.1863 11.3055 19.1863 8.35052C19.1863 5.39551 16.7908 3 13.8357 3C10.8807 3 8.48523 5.39551 8.48523 8.35052C8.48523 11.3055 10.8807 13.701 13.8357 13.701Z" stroke="currentColor" stroke-width="1.2" stroke-linecap="round"/>
  </symbol>

  <symbol id="cataloc" xmlns="http://www.w3.org/2000/svg" width="21" height="21" viewBox="0 0 21 21" fill="none">
    <path d="M3.5 4.375H14M3.5 10.5H17.5M3.5 16.625H10.5" stroke="currentColor" stroke-width="1.5" stroke-linecap="round" stroke-linejoin="round"/>
  </symbol>

  <symbol id="stocks" xmlns="http://www.w3.org/2000/svg" width="21" height="21" viewBox="0 0 21 21" fill="none">
    <path d="M8.14148 8.71337H9.28443M12.7133 13.2855H13.8562M13.8562 8.14185L8.14148 13.857M10.1999 3.32969L8.90954 4.61788C8.69722 4.8285 8.41081 4.9475 8.11177 4.94936H6.0796C5.78029 4.94997 5.49342 5.06914 5.28178 5.2808C5.07014 5.49246 4.95097 5.77935 4.95037 6.07868V8.11099C4.94851 8.41006 4.82951 8.69649 4.61891 8.90882L3.32966 10.2016C3.11853 10.4137 3 10.7007 3 11C3 11.2993 3.11853 11.5863 3.32966 11.7984L4.6212 13.0889C4.83138 13.3014 4.94995 13.5878 4.95151 13.8867V15.919C4.95151 16.5431 5.45669 17.0484 6.08074 17.0484H8.11291C8.41236 17.0484 8.69924 17.1672 8.91069 17.3798L10.2022 18.6703C10.4143 18.8815 10.7013 19 11.0006 19C11.2998 19 11.5869 18.8815 11.7989 18.6703L13.0893 17.3787C13.3018 17.1685 13.5882 17.0499 13.8871 17.0484H15.9193C16.2186 17.0477 16.5054 16.9286 16.7171 16.7169C16.9287 16.5053 17.0479 16.2184 17.0485 15.919V13.8867C17.0485 13.5873 17.1674 13.3004 17.3799 13.0889L18.6703 11.7973C18.8815 11.5852 19 11.2981 19 10.9989C19 10.6996 18.8815 10.4125 18.6703 10.2004L17.3788 8.90997C17.1686 8.69744 17.05 8.41104 17.0485 8.11213V6.07982C17.0479 5.78049 16.9287 5.4936 16.7171 5.28194C16.5054 5.07028 16.2186 4.95111 15.9193 4.95051H13.8871C13.588 4.94864 13.3016 4.82964 13.0893 4.61903L11.7966 3.32969C11.5846 3.11854 11.2975 3 10.9983 3C10.699 3 10.412 3.11854 10.1999 3.32969Z" stroke="currentColor" stroke-width="1.2"/>
  </symbol>

  <symbol id="burger" xmlns="http://www.w3.org/2000/svg" width="23" height="18" viewBox="0 0 23 18" fill="none">
    <path d="M1.1001 1.1H21.1001M1.1001 8.6H21.1001M1.1001 16.1H21.1001" stroke="white" stroke-width="2.2" stroke-linecap="round" stroke-linejoin="round"/>
  </symbol>

  <symbol id="bottomLineClose" xmlns="http://www.w3.org/2000/svg" width="20" height="20" viewBox="0 0 20 20" fill="none">
    <path d="M0.75 0.75L19.0833 19.0833M0.75 19.0833L19.0833 0.75" stroke="black" stroke-width="1.5" stroke-linecap="round" stroke-linejoin="round"/>
  </symbol>

  <symbol id="swiperBtnType1Prev" xmlns="http://www.w3.org/2000/svg" width="22" height="12" viewBox="0 0 22 12" fill="none">
    <path d="M0.234302 5.32549C-0.0781171 5.63791 -0.0781171 6.14444 0.234302 6.45686L5.32547 11.548C5.63789 11.8604 6.14442 11.8604 6.45684 11.548C6.76926 11.2356 6.76926 10.7291 6.45684 10.4167L1.93136 5.89117L6.45684 1.36569C6.76926 1.05327 6.76926 0.54674 6.45684 0.23432C6.14442 -0.0780993 5.63789 -0.0780993 5.32547 0.23432L0.234302 5.32549ZM20.8 6.69117C21.2418 6.69117 21.6 6.333 21.6 5.89117C21.6 5.44935 21.2418 5.09117 20.8 5.09117V5.89117V6.69117ZM0.799988 5.89117V6.69117H20.8V5.89117V5.09117H0.799988V5.89117Z" fill="currentColor"/>
  </symbol>

  <symbol id="swiperBtnType1Next" xmlns="http://www.w3.org/2000/svg" width="22" height="12" viewBox="0 0 22 12" fill="none">
    <path d="M21.3657 5.32549C21.6782 5.63791 21.6782 6.14444 21.3657 6.45686L16.2746 11.548C15.9621 11.8604 15.4556 11.8604 15.1432 11.548C14.8308 11.2356 14.8308 10.7291 15.1432 10.4167L19.6687 5.89117L15.1432 1.36569C14.8308 1.05327 14.8308 0.54674 15.1432 0.23432C15.4556 -0.0780993 15.9621 -0.0780993 16.2746 0.23432L21.3657 5.32549ZM0.800049 6.69117C0.358221 6.69117 4.76837e-05 6.333 4.76837e-05 5.89117C4.76837e-05 5.44935 0.358221 5.09117 0.800049 5.09117V5.89117V6.69117ZM20.8 5.89117V6.69117H0.800049V5.89117V5.09117H20.8V5.89117Z" fill="currentColor"/>
  </symbol>

  <symbol id="linkAll" xmlns="http://www.w3.org/2000/svg" width="21" height="21" viewBox="0 0 21 21" fill="none">
    <path d="M14.6 7C14.6 6.66863 14.3314 6.4 14 6.4L8.6 6.4C8.26863 6.4 8 6.66863 8 7C8 7.33137 8.26863 7.6 8.6 7.6L13.4 7.6L13.4 12.4C13.4 12.7314 13.6686 13 14 13C14.3314 13 14.6 12.7314 14.6 12.4L14.6 7ZM5.09045 15.061C4.85614 15.2953 4.85614 15.6752 5.09045 15.9095C5.32477 16.1439 5.70467 16.1439 5.93898 15.9095L5.51472 15.4853L5.09045 15.061ZM14 7L13.5757 6.57574L5.09045 15.061L5.51472 15.4853L5.93898 15.9095L14.4243 7.42426L14 7Z" fill="currentColor"/>
  </symbol>

  <symbol id="calalogBottom" xmlns="http://www.w3.org/2000/svg" width="28" height="28" viewBox="0 0 28 28" fill="none">
    <path d="M20.9167 18.9167L24.4167 2C24.4167 2 18.2917 3.16667 18.2917 5.5C18.2917 6.95833 20.625 7.83333 19.75 8.70833C18.875 9.58333 15.6667 10.4583 15.6667 12.7917C15.6667 14.25 16.6233 15.335 15.6667 16.2917C14.7917 17.1667 13.9167 16.7082 12.4583 16.2917C10.825 15.825 7.5 15.4167 6.33333 15.7083C5.16667 16 4 16.5833 4 18.3333C4 19.2958 4.58333 20.375 6.04167 20.6667C7.5 20.9583 9.25 19.5 11.5833 19.5C13.9167 19.5 16.8333 21.25 18.5833 21.25C20.3333 21.25 20.9167 18.9167 20.9167 18.9167Z" stroke="currentColor" stroke-width="1.2" stroke-linejoin="round"/>
    <path d="M6.41602 21L4.66602 25.6667H23.916L20.416 21" stroke="currentColor" stroke-width="1.2" stroke-linejoin="round"/>
  </symbol>

  <symbol id="star" xmlns="http://www.w3.org/2000/svg" width="20" height="20" viewBox="0 0 20 20" fill="none">
    <path d="M9.09999 2.39024C9.19169 2.23288 9.32306 2.1023 9.48098 2.01155C9.6389 1.9208 9.81785 1.87305 9.99999 1.87305C10.1821 1.87305 10.3611 1.9208 10.519 2.01155C10.6769 2.1023 10.8083 2.23288 10.9 2.39024L13.2292 6.38858L17.7525 7.36858C17.9304 7.40724 18.0951 7.49187 18.2301 7.61402C18.3651 7.73617 18.4658 7.89158 18.522 8.06476C18.5783 8.23794 18.5881 8.42283 18.5506 8.60101C18.5131 8.77919 18.4296 8.94442 18.3083 9.08024L15.225 12.5311L15.6917 17.1352C15.7101 17.3165 15.6806 17.4995 15.6062 17.6658C15.5318 17.8322 15.415 17.9761 15.2676 18.0832C15.1202 18.1903 14.9472 18.2569 14.766 18.2762C14.5848 18.2956 14.4017 18.2671 14.235 18.1936L9.99999 16.3269L5.76499 18.1936C5.59825 18.2671 5.41515 18.2956 5.23395 18.2762C5.05275 18.2569 4.87981 18.1903 4.73238 18.0832C4.58495 17.9761 4.46821 17.8322 4.39379 17.6658C4.31938 17.4995 4.28991 17.3165 4.30832 17.1352L4.77499 12.5311L1.69165 9.08108C1.57018 8.94526 1.48645 8.77996 1.44883 8.60168C1.41121 8.42339 1.42102 8.23835 1.47727 8.06504C1.53353 7.89173 1.63426 7.7362 1.76941 7.61399C1.90456 7.49178 2.06941 7.40716 2.24749 7.36858L6.77082 6.38858L9.09999 2.39024Z" fill="currentColor"/>
  </symbol>

  <symbol id="modalClose" xmlns="http://www.w3.org/2000/svg" width="15" height="15" viewBox="0 0 15 15" fill="none">
    <path d="M0.75 0.75L14.0833 14.0833M0.75 14.0833L14.0833 0.75" stroke="currentColor" stroke-width="1.5" stroke-linecap="round" stroke-linejoin="round"/>
  </symbol>

  <symbol id="dropDownBtn" xmlns="http://www.w3.org/2000/svg" width="24" height="24" viewBox="0 0 24 24" fill="none">
    <path d="M6 9L12 15L18 9" stroke="currentColor" stroke-width="1.2" stroke-linecap="round" stroke-linejoin="round"/>
  </symbol>

  <symbol id="minSearch" xmlns="http://www.w3.org/2000/svg" width="24" height="24" viewBox="0 0 24 24" fill="none">
    <path d="M17 17L21 21M3 11C3 13.1217 3.84285 15.1566 5.34315 16.6569C6.84344 18.1571 8.87827 19 11 19C13.1217 19 15.1566 18.1571 16.6569 16.6569C18.1571 15.1566 19 13.1217 19 11C19 8.87827 18.1571 6.84344 16.6569 5.34315C15.1566 3.84285 13.1217 3 11 3C8.87827 3 6.84344 3.84285 5.34315 5.34315C3.84285 6.84344 3 8.87827 3 11Z" stroke="currentColor" stroke-width="1.2" stroke-linecap="round" stroke-linejoin="round"/>
  </symbol>

  <symbol id="linkInstruct" xmlns="http://www.w3.org/2000/svg" width="18" height="12" viewBox="0 0 18 12" fill="none">
    <path d="M17.3665 6.45686C17.6789 6.14444 17.6789 5.63791 17.3665 5.32549L12.2753 0.23432C11.9629 -0.0780997 11.4563 -0.0780997 11.1439 0.23432C10.8315 0.546739 10.8315 1.05327 11.1439 1.36569L15.6694 5.89117L11.1439 10.4167C10.8315 10.7291 10.8315 11.2356 11.1439 11.548C11.4563 11.8604 11.9629 11.8604 12.2753 11.548L17.3665 6.45686ZM0.800781 5.09117C0.358954 5.09117 0.000780144 5.44935 0.000780106 5.89117C0.000780067 6.333 0.358953 6.69117 0.800781 6.69117L0.800781 5.89117L0.800781 5.09117ZM16.8008 5.89117L16.8008 5.09117L0.800781 5.09117L0.800781 5.89117L0.800781 6.69117L16.8008 6.69117L16.8008 5.89117Z" fill="currentColor"/>
  </symbol>

  <symbol id="swipType2Prev" xmlns="http://www.w3.org/2000/svg" width="14" height="10" viewBox="0 0 14 10" fill="none">
    <path d="M0.188818 5.24618C-0.0650226 4.99234 -0.0650227 4.58078 0.188818 4.32694L4.32539 0.190366C4.57923 -0.063475 4.99079 -0.063475 5.24463 0.190366C5.49847 0.444206 5.49847 0.855764 5.24463 1.1096L1.56768 4.78656L5.24463 8.46351C5.49847 8.71736 5.49847 9.12891 5.24463 9.38275C4.99079 9.63659 4.57923 9.63659 4.32539 9.38275L0.188818 5.24618ZM12.6484 4.13656C13.0074 4.13656 13.2984 4.42757 13.2984 4.78656C13.2984 5.14554 13.0074 5.43656 12.6484 5.43656L12.6484 4.78656L12.6484 4.13656ZM0.648438 4.78656L0.648437 4.13656L12.6484 4.13656L12.6484 4.78656L12.6484 5.43656L0.648438 5.43656L0.648438 4.78656Z" fill="black"/>
  </symbol>

  <symbol id="swipType2Next" xmlns="http://www.w3.org/2000/svg" width="14" height="10" viewBox="0 0 14 10" fill="none">
    <path d="M13.1081 5.24618C13.3619 4.99234 13.3619 4.58078 13.1081 4.32694L8.97148 0.190366C8.71764 -0.063475 8.30608 -0.063475 8.05224 0.190366C7.7984 0.444206 7.7984 0.855764 8.05224 1.1096L11.7292 4.78656L8.05224 8.46351C7.7984 8.71736 7.7984 9.12891 8.05224 9.38275C8.30608 9.63659 8.71764 9.63659 8.97148 9.38275L13.1081 5.24618ZM0.648438 4.13656C0.289453 4.13656 -0.00156209 4.42757 -0.00156212 4.78656C-0.00156215 5.14554 0.289452 5.43656 0.648437 5.43656L0.648438 4.78656L0.648438 4.13656ZM12.6484 4.78656L12.6484 4.13656L0.648438 4.13656L0.648438 4.78656L0.648437 5.43656L12.6484 5.43656L12.6484 4.78656Z" fill="black"/>
  </symbol>

  <symbol id="showMore" xmlns="http://www.w3.org/2000/svg" width="13" height="13" viewBox="0 0 13 13" fill="none">
    <path d="M6.25781 0.599976V11.9137M0.600958 6.25683H11.9147" stroke="currentColor" stroke-width="1.2" stroke-linecap="round" stroke-linejoin="round"/>
  </symbol>

  <symbol id="tabsType1Btn" xmlns="http://www.w3.org/2000/svg" width="19" height="19" viewBox="0 0 19 19" fill="none">
    <path d="M9.23438 0.75V17.7206M0.749094 9.23528H17.7197" stroke="currentColor" stroke-width="1.5" stroke-linecap="round" stroke-linejoin="round"/>
  </symbol>

  <symbol id="swiperType2Prev" xmlns="http://www.w3.org/2000/svg" width="14" height="9" viewBox="0 0 14 9" fill="none">
    <path d="M0.175345 4.84266C-0.0589693 4.60835 -0.0589693 4.22845 0.175345 3.99413L3.99372 0.175755C4.22804 -0.0585594 4.60794 -0.0585594 4.84225 0.175755C5.07656 0.41007 5.07656 0.789969 4.84225 1.02428L1.44814 4.4184L4.84225 7.81251C5.07656 8.04682 5.07656 8.42672 4.84225 8.66104C4.60794 8.89535 4.22804 8.89535 3.99372 8.66104L0.175345 4.84266ZM12.5996 3.8184C12.931 3.8184 13.1996 4.08703 13.1996 4.4184C13.1996 4.74977 12.931 5.0184 12.5996 5.0184V4.4184V3.8184ZM0.599609 4.4184V3.8184H12.5996V4.4184V5.0184H0.599609V4.4184Z" fill="currentColor"/>
  </symbol>

  <symbol id="swiperType2Next" xmlns="http://www.w3.org/2000/svg" width="14" height="9" viewBox="0 0 14 9" fill="none">
    <path d="M13.0239 3.99413C13.2582 4.22845 13.2582 4.60835 13.0239 4.84266L9.2055 8.66104C8.97118 8.89535 8.59128 8.89535 8.35697 8.66104C8.12265 8.42672 8.12265 8.04682 8.35697 7.81251L11.7511 4.4184L8.35697 1.02428C8.12265 0.789969 8.12265 0.41007 8.35697 0.175755C8.59128 -0.0585594 8.97118 -0.0585594 9.2055 0.175755L13.0239 3.99413ZM0.599609 5.0184C0.268238 5.0184 -0.000391006 4.74977 -0.000391006 4.4184C-0.000391006 4.08703 0.268238 3.8184 0.599609 3.8184V4.4184V5.0184ZM12.5996 4.4184V5.0184H0.599609V4.4184V3.8184H12.5996V4.4184Z" fill="currentColor"/>
  </symbol>

  <symbol id="countMinus" xmlns="http://www.w3.org/2000/svg" width="14" height="2" viewBox="0 0 14 2" fill="none">
    <path d="M14 0.581438C14 0.735633 13.9385 0.883514 13.8291 0.992546C13.7197 1.10158 13.5714 1.16283 13.4167 1.16283H7.58333L7 1.16279H6.41667L0.583333 1.16283C0.428624 1.16283 0.280251 1.10158 0.170854 0.992546C0.0614583 0.883514 0 0.735633 0 0.581438C0 0.427243 0.0614583 0.279363 0.170854 0.17033C0.280251 0.0612978 0.428624 4.38024e-05 0.583333 4.38024e-05H6.41667L7 0L7.58333 4.38024e-05H13.4167C13.5714 4.38024e-05 13.7197 0.0612978 13.8291 0.17033C13.9385 0.279363 14 0.427243 14 0.581438Z" fill="currentColor"/>
  </symbol>

  <symbol id="countPlus" xmlns="http://www.w3.org/2000/svg" width="14" height="14" viewBox="0 0 14 14" fill="none">
    <path d="M14 7C14 7.15471 13.9385 7.30308 13.8291 7.41248C13.7197 7.52188 13.5714 7.58333 13.4167 7.58333H7.58333V13.4167C7.58333 13.5714 7.52188 13.7197 7.41248 13.8291C7.30308 13.9385 7.15471 14 7 14C6.84529 14 6.69692 13.9385 6.58752 13.8291C6.47813 13.7197 6.41667 13.5714 6.41667 13.4167V7.58333H0.583333C0.428624 7.58333 0.280251 7.52188 0.170854 7.41248C0.0614583 7.30308 0 7.15471 0 7C0 6.84529 0.0614583 6.69692 0.170854 6.58752C0.280251 6.47813 0.428624 6.41667 0.583333 6.41667H6.41667V0.583333C6.41667 0.428624 6.47813 0.280251 6.58752 0.170854C6.69692 0.0614583 6.84529 0 7 0C7.15471 0 7.30308 0.0614583 7.41248 0.170854C7.52188 0.280251 7.58333 0.428624 7.58333 0.583333V6.41667H13.4167C13.5714 6.41667 13.7197 6.47813 13.8291 6.58752C13.9385 6.69692 14 6.84529 14 7Z" fill="currentColor"/>
  </symbol>

  <symbol id="remove" xmlns="http://www.w3.org/2000/svg" width="20" height="20" viewBox="0 0 20 20" fill="none">
    <path d="M3.75 4.16669V18.3334H16.25V4.16669H3.75Z" stroke="currentColor" stroke-linejoin="round"/>
    <path d="M8.33464 8.33335V13.75M11.668 8.33335V13.75M1.66797 4.16669H18.3346" stroke="currentColor" stroke-linecap="round" stroke-linejoin="round"/>
    <path d="M6.66797 4.16669L8.03839 1.66669H11.9917L13.3346 4.16669H6.66797Z" stroke="currentColor" stroke-linejoin="round"/>
  </symbol>
</svg>