<svg width="76" height="32" viewBox="0 0 76 32" fill="none" xmlns="http://www.w3.org/2000/svg">
<path fill-rule="evenodd" clip-rule="evenodd" d="M45.7154 9.02963C45.2634 9.11243 44.7507 9.308 44.4145 9.52592C43.564 10.0772 43.0053 11.1716 42.9504 12.3938L42.9304 12.8384L43.8995 12.9584C44.4325 13.0244 45.0211 13.0948 45.2074 13.1148L45.5461 13.1512L45.5783 12.7243L45.6105 12.2976L45.7667 11.9845L45.9229 11.6714L46.1336 11.6024L46.3443 11.5334L46.5286 11.6106L46.7129 11.6878L46.811 11.9453L46.9091 12.2029L46.8764 12.7985C46.856 13.171 46.8027 13.5122 46.7342 13.7091C46.674 13.8823 45.8371 15.4861 44.8745 17.2729L43.1243 20.5218V21.7237V22.9254H46.2831H49.4418V21.6194V20.3134H47.8842H46.3266L46.3631 20.2161C46.3832 20.1626 46.9192 19.131 47.5543 17.9236C49.6064 14.0226 49.622 13.9814 49.6236 12.4772L49.6244 11.6714L49.5092 11.2465C49.1925 10.0788 48.5312 9.38514 47.4781 9.11621C47.0755 9.01345 46.0728 8.96416 45.7154 9.02963ZM4 16.0065V22.9357L6.06428 22.9104L8.12856 22.8851L8.47447 22.7948C9.40182 22.553 9.97848 22.11 10.3358 21.3649C10.7544 20.492 10.8125 19.8449 10.8144 16.034C10.8167 11.4242 10.7001 10.5794 9.9592 9.8363C9.66499 9.54125 9.38586 9.39404 8.83063 9.24098L8.40564 9.12383L6.20282 9.1006L4 9.07731V16.0065ZM12.5896 16.0073V22.9274L13.9335 22.9125L15.2773 22.8976L15.2917 20.2131L15.3061 17.5285L15.5647 17.5455L15.8234 17.5624L16.6313 20.23L17.4392 22.8976L18.8104 22.9125C19.5647 22.9207 20.1817 22.9091 20.1817 22.8867C20.1817 22.8643 19.7408 21.5168 19.202 19.8921L18.2221 16.9382L18.5785 16.6037C19.4356 15.7993 19.7971 14.619 19.7214 12.8717C19.684 12.006 19.5895 11.5773 19.2976 10.9489C18.7873 9.85009 17.8603 9.27305 16.3966 9.14311C16.0553 9.11282 15.0592 9.08781 14.1829 9.08759L12.5896 9.08709V16.0073ZM21.2048 9.15656C21.1903 9.1948 21.1848 12.3021 21.1927 16.0618L21.2069 22.8976L22.5508 22.9125L23.8947 22.9274V16.0073V9.08709H22.5629H21.2312L21.2048 9.15656ZM25.1138 9.17768C25.1138 9.25082 26.0255 14.1006 27.5153 21.9528L27.6945 22.8976L29.3927 22.9123L31.0909 22.927L31.1198 22.8289C31.1357 22.775 31.6744 19.9674 32.3168 16.5898C32.9593 13.2122 33.5435 10.1529 33.6151 9.79134L33.7453 9.134L33.6819 9.10954C33.647 9.09609 32.9847 9.09181 32.2102 9.09998L30.802 9.11488L30.3987 11.8103C30.1769 13.2928 29.8795 15.406 29.7378 16.5064C29.5961 17.6068 29.4703 18.5176 29.4583 18.5303C29.3947 18.5975 29.3472 18.314 29.0992 16.3848C28.8199 14.2126 28.0794 9.23387 28.0217 9.14022C28.0023 9.10865 27.4055 9.08709 26.5514 9.08709H25.1138V9.17768ZM34.978 16.0063V22.9254H38.1368H41.2956V21.6194V20.3134H39.4945H37.6935V18.7572V17.2011H39.3283H40.9631V15.8951V14.5891H39.3283H37.6935V13.1441V11.6991H39.4945H41.2956V10.3931V9.08709H38.1368H34.978V16.0063ZM56.4934 15.9924L56.5075 22.8976L57.8514 22.9125L59.1952 22.9274V20.231V17.5346L59.4584 17.5354L59.7217 17.5363L60.5316 20.2169L61.3416 22.8976L62.7068 22.9125L64.0719 22.9274V22.8569C64.0719 22.8182 63.6332 21.4664 63.0969 19.8531L62.1219 16.9197L62.2711 16.802C62.8395 16.3536 63.2526 15.6829 63.4665 14.861L63.5879 14.3946L63.6154 13.5246C63.6691 11.8242 63.3551 10.8072 62.5337 10.0215C61.7265 9.24932 60.9585 9.08959 58.0451 9.08798L56.4793 9.08709L56.4934 15.9924ZM64.9727 14.7965L64.9903 20.5079L65.0833 20.811C65.2517 21.3606 65.5182 21.8284 65.8445 22.1474C66.2085 22.5033 66.5986 22.7122 67.209 22.8781L67.6463 22.997L68.4498 22.9985L69.2534 23L69.6397 22.9051C70.8243 22.614 71.5572 21.9068 71.8676 20.755L71.9642 20.3967L71.9821 14.7409L72 9.08515L70.6267 9.09998L69.2534 9.11488L69.2257 14.5613L69.198 20.0077L69.1153 20.1327C68.8635 20.514 68.1509 20.5216 67.8124 20.1465L67.7017 20.0239L67.674 14.5693L67.6463 9.11488L66.3007 9.09998L64.9551 9.08509L64.9727 14.7965ZM6.66001 16.0063V20.329L7.12906 20.2997C7.44571 20.2799 7.65729 20.236 7.78021 20.1646L7.96231 20.059L8.05785 19.7832L8.15338 19.5075L8.14097 15.9229L8.12856 12.3383L8.0083 12.113C7.85524 11.8262 7.68423 11.7495 7.1172 11.7129L6.66001 11.6835V16.0063ZM15.305 13.3039V14.9225H15.6407C16.1707 14.9225 16.4573 14.8258 16.7262 14.5562L16.962 14.3197L17.0547 13.9998L17.1474 13.6799L17.1221 13.1203C17.0948 12.5163 17.0299 12.3275 16.7647 12.0806C16.4916 11.8264 16.2491 11.7368 15.7622 11.7102L15.305 11.6852V13.3039ZM59.1952 13.3108V14.9225L59.5693 14.9222C60.0551 14.9218 60.3166 14.8453 60.5577 14.633C60.8171 14.4046 60.9515 14.1267 61.0246 13.6681L61.0848 13.2904L61.0255 12.907C60.9928 12.6961 60.9193 12.4319 60.862 12.3198C60.6594 11.9231 60.1955 11.6991 59.5761 11.6991H59.1952V13.3108ZM51.6031 21.4249V22.9254H52.9331H54.2631V21.4249V19.9243H52.9331H51.6031V21.4249Z" fill="white"/>
<path fill-rule="evenodd" clip-rule="evenodd" d="M45.7165 9.02963C45.2644 9.11243 44.7517 9.308 44.4156 9.52592C43.565 10.0772 43.0063 11.1716 42.9514 12.3938L42.9314 12.8384L43.9005 12.9584C44.4335 13.0244 45.0221 13.0948 45.2084 13.1148L45.5472 13.1512L45.5794 12.7243L45.6115 12.2976L45.7677 11.9845L45.9239 11.6714L46.1347 11.6024L46.3454 11.5334L46.5297 11.6106L46.714 11.6878L46.8121 11.9453L46.9101 12.2029L46.8775 12.7985C46.857 13.171 46.8038 13.5122 46.7353 13.7091C46.675 13.8823 45.8382 15.4861 44.8756 17.2729L43.1254 20.5218V21.7237V22.9254H46.2841H49.4429V21.6194V20.3134H47.8853H46.3277L46.3641 20.2161C46.3842 20.1626 46.9202 19.131 47.5554 17.9236C49.6074 14.0226 49.623 13.9814 49.6246 12.4772L49.6254 11.6714L49.5102 11.2465C49.1935 10.0788 48.5322 9.38514 47.4792 9.11621C47.0766 9.01345 46.0739 8.96416 45.7165 9.02963Z" fill="#CD0032"/>
</svg>
