<svg width="32" height="32" viewBox="0 0 32 32" fill="none" xmlns="http://www.w3.org/2000/svg">
<rect x="8" y="10" width="15" height="12" fill="white"/>
<path d="M6.54 6.54C5 8.09467 5 10.5807 5 15.56V16.44C5 21.412 5 23.898 6.54 25.46C8.09467 27 10.5807 27 15.56 27H16.44C21.412 27 23.898 27 25.46 25.46C27 23.9053 27 21.4193 27 16.44V15.56C27 10.588 27 8.102 25.46 6.54C23.9053 5 21.4193 5 16.44 5H15.56C10.588 5 8.102 5 6.54 6.54ZM8.71067 11.6953H11.2333C11.314 15.89 13.162 17.6647 14.6287 18.0313V11.6953H16.9973V15.3107C18.442 15.1567 19.9673 13.5067 20.4807 11.688H22.842C22.6493 12.6294 22.2647 13.5209 21.712 14.307C21.1594 15.0931 20.4506 15.7568 19.63 16.2567C20.546 16.7124 21.3549 17.3572 22.0034 18.1485C22.6518 18.9398 23.1251 19.8597 23.392 20.8473H20.7887C20.2313 19.1093 18.838 17.76 16.9973 17.5767V20.8473H16.704C11.688 20.8473 8.828 17.4153 8.71067 11.6953Z" fill="#097BFF"/>
</svg>
