<svg width="32" height="32" viewBox="0 0 32 32" fill="none" xmlns="http://www.w3.org/2000/svg">
<rect x="8" y="10" width="15" height="12" fill="white"/>
<path d="M16 5C22.0753 5 27 9.9247 27 16C27 22.0753 22.0753 27 16 27C14.056 27.0033 12.1463 26.4889 10.467 25.5095L5.00442 27L6.49162 21.5352C5.51147 19.8554 4.99661 17.9448 5.00002 16C5.00002 9.9247 9.92471 5 16 5ZM12.2512 10.83L12.0312 10.8388C11.889 10.8486 11.75 10.886 11.622 10.9488C11.5027 11.0165 11.3938 11.1009 11.2986 11.1996C11.1666 11.3239 11.0918 11.4317 11.0115 11.5362C10.6046 12.0652 10.3856 12.7146 10.3889 13.382C10.3911 13.921 10.5319 14.4457 10.7519 14.9363C11.2018 15.9285 11.9421 16.979 12.9189 17.9525C13.1543 18.1868 13.3853 18.4222 13.6339 18.6411C14.8477 19.7096 16.294 20.4803 17.8579 20.8917L18.4827 20.9874C18.6862 20.9984 18.8897 20.983 19.0943 20.9731C19.4146 20.9562 19.7273 20.8695 20.0106 20.719C20.1545 20.6446 20.2951 20.5638 20.4319 20.477C20.4319 20.477 20.4785 20.4455 20.5694 20.378C20.7179 20.268 20.8092 20.1899 20.9324 20.0612C21.0248 19.9659 21.1018 19.8551 21.1634 19.729C21.2492 19.5497 21.335 19.2076 21.3702 18.9227C21.3966 18.7049 21.3889 18.5861 21.3856 18.5124C21.3812 18.3947 21.2833 18.2726 21.1766 18.2209L20.5364 17.9338C20.5364 17.9338 19.5794 17.5169 18.9942 17.2507C18.9329 17.224 18.8673 17.2087 18.8006 17.2056C18.7253 17.1977 18.6493 17.2061 18.5775 17.2302C18.5058 17.2543 18.4401 17.2936 18.3848 17.3453C18.3793 17.3431 18.3056 17.4058 17.5103 18.3694C17.4647 18.4307 17.4018 18.4771 17.3297 18.5026C17.2576 18.528 17.1796 18.5314 17.1055 18.5124C17.0338 18.4933 16.9636 18.469 16.8954 18.4398C16.759 18.3826 16.7117 18.3606 16.6182 18.321C15.9867 18.0459 15.4021 17.6736 14.8857 17.2177C14.7471 17.0967 14.6184 16.9647 14.4864 16.8371C14.0537 16.4226 13.6765 15.9538 13.3644 15.4423L13.2995 15.3378C13.2536 15.2672 13.216 15.1915 13.1873 15.1123C13.1455 14.9506 13.2544 14.8208 13.2544 14.8208C13.2544 14.8208 13.5217 14.5282 13.646 14.3698C13.767 14.2158 13.8693 14.0662 13.9353 13.9595C14.0651 13.7505 14.1058 13.536 14.0376 13.3699C13.7296 12.6175 13.4113 11.8691 13.0828 11.1248C13.0179 10.9774 12.8254 10.8718 12.6505 10.8509C12.5911 10.8436 12.5317 10.8377 12.4723 10.8333C12.3246 10.8248 12.1765 10.8263 12.029 10.8377L12.2512 10.83Z" fill="#2DE175"/>
</svg>
