<svg width="52" height="52" viewBox="0 0 52 52" fill="none" xmlns="http://www.w3.org/2000/svg">
<path d="M47.1836 33.3572C46.8502 32.4442 46.1404 31.7375 45.2362 31.4182C44.3328 31.0989 43.3444 31.1986 42.5253 31.6912L34.5902 36.4523L33.4988 36.92H27.7731C27.703 36.92 27.6638 36.8808 27.6434 36.8479C27.6229 36.815 27.6049 36.7625 27.636 36.6997C27.6536 36.6638 27.6841 36.6366 27.7217 36.6232L32.0666 35.0706C33.748 34.5055 34.7114 32.7854 34.2607 31.1507C34.0242 30.2927 33.4627 29.5907 32.6799 29.1737C31.9091 28.7632 30.9923 28.6867 30.1658 28.9635L25.6825 30.4577L13.9102 31.2427C13.1373 31.2942 12.41 31.6242 11.8624 32.1719L5.45862 38.5755C4.23012 39.804 4.11633 41.7527 5.19946 43.0117C5.48572 43.3446 6.71959 44.5269 8.56913 46.2928C9.64698 47.3218 10.6649 48.2937 11.1482 48.777C11.2962 48.925 11.4911 49 11.6869 49C11.8592 49 12.0323 48.9416 12.1741 48.8235L15.6914 45.8924C16.4288 45.2778 17.3635 44.9395 18.3233 44.9395H30.3649C30.8008 44.9395 31.225 44.8525 31.6257 44.6808L37.309 42.245C37.3248 42.2382 37.3405 42.2309 37.3557 42.2231L37.6442 42.0756C37.6595 42.0677 37.6746 42.0594 37.6893 42.0505L45.7376 37.2215C47.0957 36.4065 47.7038 34.7814 47.1836 33.3572ZM44.9542 35.9157L36.928 40.7314L36.6854 40.8555L31.0258 43.2811C30.8158 43.3712 30.5933 43.4167 30.3648 43.4167H18.3234C17.008 43.4167 15.7271 43.8804 14.7167 44.7226L11.7286 47.2127C11.1824 46.6824 10.4179 45.9524 9.62069 45.1914C8.28054 43.9119 6.6127 42.3197 6.35375 42.0186C5.79665 41.3711 5.87806 40.3095 6.53535 39.6522L12.9391 33.2484C13.2258 32.9616 13.6066 32.7889 14.0114 32.7619L25.8811 31.9704C25.9459 31.9661 26.0097 31.9535 26.0712 31.933L30.6481 30.4076C30.8231 30.349 31.0024 30.32 31.1807 30.32C31.4504 30.32 31.7176 30.3864 31.964 30.5176C32.3741 30.736 32.6684 31.1045 32.7926 31.5553C33.0249 32.3977 32.4794 33.3278 31.5766 33.6287C31.5715 33.6304 31.5663 33.6322 31.5613 33.6341L27.2093 35.1892C26.7969 35.3366 26.4632 35.6342 26.2697 36.0273C26.0125 36.5503 26.0427 37.1578 26.3507 37.6526C26.6587 38.1474 27.1904 38.4427 27.7732 38.4427H33.6551C33.7582 38.4427 33.8602 38.4218 33.9549 38.3812L35.2375 37.8316C35.2692 37.8181 35.2999 37.8023 35.3293 37.7847L43.3093 32.9966C43.7381 32.7385 44.2553 32.6868 44.7291 32.8539C45.2099 33.0239 45.5738 33.3881 45.7533 33.8797C46.0193 34.6076 45.6757 35.4829 44.9542 35.9157Z" fill="#F60114"/>
<path d="M32.0175 26.2613C38.7064 26.2613 44.1481 20.8195 44.1481 14.1306C44.1481 7.44173 38.7064 2 32.0175 2C25.3286 2 19.8868 7.44173 19.8868 14.1306C19.8868 20.8195 25.3286 26.2613 32.0175 26.2613ZM32.0175 3.52267C37.8667 3.52267 42.6254 8.28133 42.6254 14.1306C42.6254 19.9799 37.8667 24.7386 32.0175 24.7386C26.1683 24.7386 21.4095 19.9799 21.4095 14.1306C21.4095 8.28133 26.1683 3.52267 32.0175 3.52267Z" fill="#F60114"/>
<path fill-rule="evenodd" clip-rule="evenodd" d="M33.9758 7.80371C36.139 7.80371 37.8925 9.50331 37.8925 11.5999C37.8925 13.6488 36.2178 15.3186 34.1227 15.3934L33.9758 15.396H30.712V16.6614H33.3231C33.6836 16.6614 33.9758 16.9447 33.9758 17.2941C33.9758 17.6435 33.6836 17.9268 33.3231 17.9268H30.712V19.8249C30.712 20.1743 30.4197 20.4575 30.0592 20.4575C29.6987 20.4575 29.4064 20.1743 29.4064 19.8249V17.9268H26.7953C26.4348 17.9268 26.1425 17.6435 26.1425 17.2941C26.1425 16.9447 26.4348 16.6614 26.7953 16.6614H29.4064V15.396H26.7953C26.4348 15.396 26.1425 15.1127 26.1425 14.7633C26.1425 14.4389 26.3945 14.1714 26.7192 14.1349L26.7953 14.1306H29.4064V8.4364C29.4064 8.08698 29.6987 7.80371 30.0592 7.80371H33.9758ZM33.9758 9.06909H30.712V14.1306H33.9758C35.4179 14.1306 36.587 12.9976 36.587 11.5999C36.587 10.2445 35.4877 9.13801 34.1062 9.07219L33.9758 9.06909Z" fill="#0022B2"/>
</svg>
