<svg width="52" height="52" viewBox="0 0 52 52" fill="none" xmlns="http://www.w3.org/2000/svg">
<path d="M47.2667 4H4.7333C4.2933 4 4 4.2933 4 4.7333V35.5333C4 35.8266 4.1467 36.0466 4.3667 36.1933L25.6334 47.9266C25.78 48 25.8533 48 26 48C26.1467 48 26.22 48 26.3667 47.9267L47.6334 36.1934C47.8534 36.0467 48.0001 35.8267 48.0001 35.5334V4.7333C48 4.2933 47.7067 4 47.2667 4ZM46.5333 35.0933L26 46.3867L5.4667 35.0933V5.4667H46.5334L46.5333 35.0933Z" fill="#F60114"/>
<path d="M8.76667 33.5533L11.6267 35.1666C11.7734 35.2399 11.8467 35.2399 11.9934 35.2399C12.2867 35.2399 12.5067 35.0932 12.6534 34.9466C12.8734 34.5799 12.7267 34.1399 12.3601 33.9199L9.86676 32.5266V29.6666C9.86676 29.2266 9.57345 28.9333 9.13345 28.9333C8.69345 28.9333 8.40015 29.2266 8.40015 29.6666V32.9666C8.39997 33.1867 8.54667 33.48 8.76667 33.5533Z" fill="#0022B2"/>
<path d="M9.13333 25.4867C9.57333 25.4867 9.86663 25.12 9.86663 24.7534V17.3467C9.86663 16.9067 9.57333 16.6134 9.13333 16.6134C8.69333 16.6134 8.40002 16.9067 8.40002 17.3467V24.7534C8.40002 25.1933 8.69333 25.4867 9.13333 25.4867Z" fill="#0022B2"/>
<path d="M9.13333 13.1667C9.57333 13.1667 9.86663 12.8734 9.86663 12.4334V9.86669H12.4333C12.8733 9.86669 13.1666 9.57339 13.1666 9.13339C13.1666 8.69339 12.8733 8.40009 12.4333 8.40009H9.13333C8.69333 8.40009 8.40002 8.69339 8.40002 9.13339V12.4334C8.40002 12.8733 8.69333 13.1667 9.13333 13.1667Z" fill="#0022B2"/>
<path d="M16.98 9.86669H23.7267C24.1667 9.86669 24.46 9.57339 24.46 9.13339C24.46 8.69339 24.1667 8.40009 23.7267 8.40009H16.98C16.54 8.40009 16.2467 8.69339 16.2467 9.13339C16.2467 9.57339 16.54 9.86669 16.98 9.86669Z" fill="#0022B2"/>
<path d="M28.2733 9.86672H35.02C35.46 9.86672 35.7533 9.57342 35.7533 9.13342C35.7533 8.69342 35.46 8.40002 35.02 8.40002H28.2733C27.8333 8.40002 27.54 8.69333 27.54 9.13333C27.54 9.57333 27.8333 9.86672 28.2733 9.86672Z" fill="#0022B2"/>
<path d="M39.5667 9.86669H42.1334V12.4334C42.1334 12.8734 42.4267 13.1667 42.8667 13.1667C43.3067 13.1667 43.6 12.8734 43.6 12.4334V9.13339C43.6 8.69339 43.3067 8.40009 42.8667 8.40009H39.5667C39.1267 8.40009 38.8334 8.69339 38.8334 9.13339C38.8334 9.57339 39.1267 9.86669 39.5667 9.86669Z" fill="#0022B2"/>
<path d="M42.8667 16.6133C42.4267 16.6133 42.1334 16.9066 42.1334 17.3466V24.7533C42.1334 25.1933 42.4267 25.4866 42.8667 25.4866C43.3067 25.4866 43.6 25.1199 43.6 24.7533V17.3466C43.6 16.9067 43.3067 16.6133 42.8667 16.6133Z" fill="#0022B2"/>
<path d="M42.8667 28.9333C42.4267 28.9333 42.1334 29.2266 42.1334 29.6666V32.4533L39.6401 33.8466C39.2734 34.0666 39.1268 34.5066 39.3468 34.8733C39.4935 35.0933 39.7135 35.24 40.0068 35.24C40.0801 35.24 40.2268 35.24 40.3735 35.24L43.2335 33.6267C43.4535 33.48 43.6002 33.26 43.6002 32.9667V29.6667C43.6 29.2267 43.3067 28.9333 42.8667 28.9333Z" fill="#0022B2"/>
<path d="M31.4267 39.2733C31.5734 39.4933 31.7934 39.64 32.0867 39.64C32.16 39.64 32.3067 39.5667 32.4534 39.5667L37.2201 36.9267C37.5868 36.7067 37.7334 36.2667 37.5134 35.9C37.2934 35.5333 36.8534 35.3867 36.4867 35.6067L31.72 38.2467C31.3533 38.4667 31.2067 38.9067 31.4267 39.2733Z" fill="#0022B2"/>
<path d="M22.48 40.2267C22.26 40.5934 22.4067 41.0334 22.7733 41.2534L25.6333 42.8667C25.78 42.94 25.8533 42.94 26 42.94C26.1467 42.94 26.22 42.94 26.3667 42.8667L29.3 41.3267C29.6667 41.1067 29.8133 40.6667 29.5933 40.3C29.3733 39.9333 28.9333 39.7867 28.5666 40.0067L26 41.4L23.5067 39.9333C23.14 39.7133 22.7 39.86 22.48 40.2267Z" fill="#0022B2"/>
<path d="M14.78 36.9267L19.5467 39.5667C19.6934 39.64 19.7667 39.64 19.9134 39.64C20.2067 39.64 20.4267 39.4933 20.5734 39.2733C20.7934 38.9066 20.6467 38.4666 20.2801 38.2466L15.5134 35.6066C15.1467 35.3866 14.7067 35.5333 14.4867 35.8999C14.2667 36.2665 14.4133 36.7067 14.78 36.9267Z" fill="#0022B2"/>
</svg>
