<svg width="105" height="133" viewBox="0 0 105 133" fill="none" xmlns="http://www.w3.org/2000/svg">
<path d="M52.8535 133C36.2374 133 23.3923 129.236 14.3182 121.708C5.36195 114.06 0.589226 103.425 0 89.8019L35.1768 88.7264C35.766 94.1038 37.4748 98.1667 40.303 100.915C43.2492 103.544 47.4327 104.858 52.8535 104.858C56.2711 104.858 59.2172 104.321 61.6919 103.245C64.1667 102.05 66.0522 100.437 67.3485 98.4057C68.7626 96.2547 69.4697 93.805 69.4697 91.0566C69.4697 86.5157 67.8788 83.0503 64.697 80.6604C61.5152 78.1509 57.096 76.8962 51.4394 76.8962H39.2424V53.2358H51.4394C55.4461 53.2358 58.8047 52.2799 61.5152 50.3679C64.3434 48.456 65.7576 45.2893 65.7576 40.8679C65.7576 37.1635 64.697 34.1163 62.5758 31.7264C60.4546 29.3365 56.8603 28.1415 51.7929 28.1415C46.7256 28.1415 42.8956 29.2767 40.303 31.5472C37.8283 33.8176 36.2963 36.566 35.7071 39.7925L1.06061 38.1792C2.3569 26.4686 7.42424 17.2075 16.2626 10.3962C25.101 3.46541 36.9445 0 51.7929 0C62.6347 0 71.7088 1.49371 79.0152 4.48113C86.3216 7.34905 91.8014 11.5314 95.4546 17.0283C99.2256 22.5252 101.111 29.0377 101.111 36.566C101.111 43.8553 98.6364 50.0094 93.6869 55.0283C88.7374 59.9277 81.8434 63.2138 73.0051 64.8868V62.0189C83.4933 63.8113 91.4478 67.456 96.8687 72.9528C102.29 78.3302 105 85.4403 105 94.283C105 102.289 102.879 109.22 98.6364 115.075C94.5118 120.811 88.5606 125.233 80.7828 128.34C73.0051 131.447 63.6953 133 52.8535 133Z" fill="#F9F9F9"/>
</svg>
