<svg width="52" height="52" viewBox="0 0 52 52" fill="none" xmlns="http://www.w3.org/2000/svg">
<path d="M47.2667 4H4.7333C4.2933 4 4 4.2933 4 4.7333V35.5333C4 35.8266 4.1467 36.0466 4.3667 36.1933L25.6334 47.9266C25.78 48 25.8533 48 26 48C26.1467 48 26.22 48 26.3667 47.9267L47.6334 36.1934C47.8534 36.0467 48.0001 35.8267 48.0001 35.5334V4.7333C48 4.2933 47.7067 4 47.2667 4ZM46.5333 35.0933L26 46.3867L5.4667 35.0933V5.4667H46.5334L46.5333 35.0933Z" fill="#F60114"/>
<path d="M8.76667 33.5531L11.6267 35.1664C11.7734 35.2397 11.8467 35.2397 11.9934 35.2397C12.2867 35.2397 12.5067 35.093 12.6534 34.9464C12.8734 34.5797 12.7267 34.1397 12.3601 33.9197L9.86676 32.5264V29.6664C9.86676 29.2264 9.57345 28.9331 9.13345 28.9331C8.69345 28.9331 8.40015 29.2264 8.40015 29.6664V32.9664C8.39997 33.1865 8.54667 33.4798 8.76667 33.5531Z" fill="#0022B2"/>
<path d="M9.13333 25.4866C9.57333 25.4866 9.86663 25.1199 9.86663 24.7533V17.3466C9.86663 16.9066 9.57333 16.6133 9.13333 16.6133C8.69333 16.6133 8.40002 16.9066 8.40002 17.3466V24.7533C8.40002 25.1932 8.69333 25.4866 9.13333 25.4866Z" fill="#0022B2"/>
<path d="M9.13333 13.1665C9.57333 13.1665 9.86663 12.8732 9.86663 12.4332V9.86651H12.4333C12.8733 9.86651 13.1666 9.57321 13.1666 9.13321C13.1666 8.69321 12.8733 8.3999 12.4333 8.3999H9.13333C8.69333 8.3999 8.40002 8.69321 8.40002 9.13321V12.4332C8.40002 12.8731 8.69333 13.1665 9.13333 13.1665Z" fill="#0022B2"/>
<path d="M16.98 9.86651H23.7267C24.1667 9.86651 24.46 9.57321 24.46 9.13321C24.46 8.69321 24.1667 8.3999 23.7267 8.3999H16.98C16.54 8.3999 16.2467 8.69321 16.2467 9.13321C16.2467 9.57321 16.54 9.86651 16.98 9.86651Z" fill="#0022B2"/>
<path d="M28.2733 9.8666H35.02C35.46 9.8666 35.7533 9.57329 35.7533 9.13329C35.7533 8.69329 35.46 8.3999 35.02 8.3999H28.2733C27.8333 8.3999 27.54 8.69321 27.54 9.13321C27.54 9.57321 27.8333 9.8666 28.2733 9.8666Z" fill="#0022B2"/>
<path d="M39.5667 9.86651H42.1334V12.4332C42.1334 12.8732 42.4267 13.1665 42.8667 13.1665C43.3067 13.1665 43.6 12.8732 43.6 12.4332V9.13321C43.6 8.69321 43.3067 8.3999 42.8667 8.3999H39.5667C39.1267 8.3999 38.8334 8.69321 38.8334 9.13321C38.8334 9.57321 39.1267 9.86651 39.5667 9.86651Z" fill="#0022B2"/>
<path d="M42.8667 16.6133C42.4267 16.6133 42.1334 16.9066 42.1334 17.3466V24.7533C42.1334 25.1933 42.4267 25.4866 42.8667 25.4866C43.3067 25.4866 43.6 25.1199 43.6 24.7533V17.3466C43.6 16.9067 43.3067 16.6133 42.8667 16.6133Z" fill="#0022B2"/>
<path d="M42.8667 28.9331C42.4267 28.9331 42.1334 29.2264 42.1334 29.6664V32.4531L39.6401 33.8464C39.2734 34.0664 39.1268 34.5064 39.3468 34.8731C39.4935 35.0931 39.7135 35.2398 40.0068 35.2398C40.0801 35.2398 40.2268 35.2398 40.3735 35.2398L43.2335 33.6265C43.4535 33.4798 43.6002 33.2598 43.6002 32.9665V29.6665C43.6 29.2265 43.3067 28.9331 42.8667 28.9331Z" fill="#0022B2"/>
<path d="M31.4267 39.2734C31.5734 39.4934 31.7934 39.6401 32.0867 39.6401C32.16 39.6401 32.3067 39.5668 32.4534 39.5668L37.2201 36.9268C37.5868 36.7068 37.7334 36.2668 37.5134 35.9001C37.2934 35.5334 36.8534 35.3868 36.4867 35.6068L31.72 38.2468C31.3534 38.4668 31.2067 38.9068 31.4267 39.2734Z" fill="#0022B2"/>
<path d="M22.4799 40.2268C22.2599 40.5935 22.4066 41.0335 22.7733 41.2535L25.6333 42.8668C25.7799 42.9401 25.8533 42.9401 25.9999 42.9401C26.1466 42.9401 26.2199 42.9401 26.3666 42.8668L29.2999 41.3268C29.6666 41.1068 29.8133 40.6668 29.5933 40.3001C29.3733 39.9334 28.9333 39.7868 28.5666 40.0068L25.9999 41.4001L23.5066 39.9334C23.1399 39.7134 22.6999 39.8601 22.4799 40.2268Z" fill="#0022B2"/>
<path d="M14.78 36.9269L19.5467 39.5669C19.6934 39.6402 19.7667 39.6402 19.9134 39.6402C20.2067 39.6402 20.4267 39.4935 20.5734 39.2735C20.7934 38.9068 20.6467 38.4668 20.2801 38.2468L15.5134 35.6068C15.1467 35.3868 14.7067 35.5335 14.4867 35.9001C14.2667 36.2667 14.4133 36.7069 14.78 36.9269Z" fill="#0022B2"/>
</svg>
