<svg width="56" height="52" viewBox="0 0 56 52" fill="none" xmlns="http://www.w3.org/2000/svg">
<path d="M8.88464 16.981V47.0002H49.0962V17.0374" stroke="#F60114" stroke-width="1.6" stroke-linecap="round" stroke-linejoin="round"/>
<path d="M3 16.586H30.4616L35.3654 5H8.88462L3 16.586Z" stroke="#F60114" stroke-width="1.6" stroke-linecap="round" stroke-linejoin="round"/>
<path d="M54 16.586H40.2693L35.3654 5H49.0962L54 16.586Z" stroke="#F60114" stroke-width="1.6" stroke-linecap="round" stroke-linejoin="round"/>
<path d="M26.0481 33.9639H17.2212C15.867 33.9639 14.7692 35.5849 14.7692 37.5845C14.7692 39.5841 15.867 41.2051 17.2212 41.2051H26.0481C27.4022 41.2051 28.5 39.5841 28.5 37.5845C28.5 35.5849 27.4022 33.9639 26.0481 33.9639Z" stroke="#0022B2" stroke-width="1.6" stroke-linecap="round" stroke-linejoin="round"/>
<path d="M14.7692 29.6201H21.6346" stroke="#0022B2" stroke-width="1.6" stroke-linecap="round" stroke-linejoin="round"/>
<path d="M14.7692 25.2759H17.7115" stroke="#0022B2" stroke-width="1.6" stroke-linecap="round" stroke-linejoin="round"/>
<path d="M35.3654 46.9991V5" stroke="#F60114" stroke-width="1.6" stroke-linejoin="round"/>
</svg>
