<svg width="52" height="52" viewBox="0 0 52 52" fill="none" xmlns="http://www.w3.org/2000/svg">
<path d="M43.9742 47H9V4.12256C9 4.10663 9.00444 4.09102 9.01283 4.07748C9.02122 4.06393 9.03323 4.05298 9.0475 4.04586C9.06178 4.03874 9.07776 4.03572 9.09365 4.03715C9.10954 4.03858 9.12472 4.0444 9.13749 4.05396L12.6693 7.35552C12.6859 7.36623 12.7053 7.37192 12.7251 7.37192C12.7449 7.37192 12.7643 7.36623 12.781 7.35552L15.6167 4.01965C15.6309 4.007 15.6493 4 15.6683 4C15.6873 4 15.7057 4.007 15.7199 4.01965L18.9165 7.36409C18.9327 7.37594 18.9523 7.38232 18.9724 7.38232C18.9925 7.38232 19.012 7.37594 19.0282 7.36409L21.8554 4.02823C21.8626 4.02071 21.8713 4.01472 21.8809 4.01063C21.8905 4.00654 21.9008 4.00443 21.9112 4.00443C21.9217 4.00443 21.932 4.00654 21.9416 4.01063C21.9512 4.01472 21.9599 4.02071 21.9671 4.02823L24.4247 7.34694C24.4417 7.36088 24.4629 7.36851 24.4849 7.36851C24.5068 7.36851 24.5281 7.36088 24.545 7.34694L27.3464 4.02823C27.3536 4.02071 27.3623 4.01472 27.3719 4.01063C27.3815 4.00654 27.3918 4.00443 27.4023 4.00443C27.4127 4.00443 27.423 4.00654 27.4326 4.01063C27.4422 4.01472 27.4509 4.02071 27.4581 4.02823L29.7697 7.33837C29.7857 7.35408 29.8073 7.36288 29.8298 7.36288C29.8523 7.36288 29.8739 7.35408 29.89 7.33837L32.3648 4.02823C32.3809 4.01252 32.4025 4.00371 32.425 4.00371C32.4475 4.00371 32.469 4.01252 32.4851 4.02823L34.9342 7.33837C34.9502 7.35408 34.9718 7.36288 34.9943 7.36288C35.0168 7.36288 35.0384 7.35408 35.0545 7.33837L37.4004 4.04538C37.4075 4.03477 37.417 4.02606 37.4283 4.02004C37.4395 4.01401 37.4521 4.01086 37.4648 4.01086C37.4776 4.01086 37.4902 4.01401 37.5014 4.02004C37.5127 4.02606 37.5222 4.03477 37.5293 4.04538L39.4628 7.33837C39.479 7.35021 39.4985 7.3566 39.5186 7.3566C39.5387 7.3566 39.5583 7.35021 39.5745 7.33837L43.8711 4.01965C43.8843 4.01199 43.8994 4.00801 43.9148 4.00814C43.9301 4.00826 43.9451 4.01248 43.9583 4.02036C43.9714 4.02823 43.9822 4.03948 43.9896 4.05293C43.9969 4.06637 44.0005 4.08153 44 4.09683L43.9742 47Z" stroke="#F60114" stroke-width="1.4" stroke-linecap="round"/>
<path d="M26.5971 14.0872L28.8545 18.8757C28.8592 18.888 28.8672 18.8987 28.8776 18.9064C28.8879 18.9141 28.9001 18.9186 28.9128 18.9193L33.9606 19.6868C33.9726 19.6947 33.9826 19.7056 33.9895 19.7185C33.9964 19.7315 34 19.7461 34 19.761C34 19.7758 33.9964 19.7904 33.9895 19.8034C33.9826 19.8164 33.9726 19.8273 33.9606 19.8351L30.3538 23.5595C30.3466 23.5851 30.3466 23.6123 30.3538 23.638L31.1868 28.8712C31.1879 28.8874 31.185 28.9036 31.1785 28.9183C31.172 28.933 31.162 28.9457 31.1496 28.9553C31.1371 28.9648 31.1225 28.971 31.1072 28.973C31.0918 28.9751 31.0762 28.9731 31.0618 28.9672L26.5555 26.4814C26.5431 26.4727 26.5287 26.4681 26.5138 26.4681C26.499 26.4681 26.4845 26.4727 26.4722 26.4814L21.9741 28.9933C21.9597 28.9993 21.9441 29.0013 21.9288 28.9992C21.9135 28.9971 21.8989 28.991 21.8864 28.9814C21.8739 28.9718 21.864 28.9591 21.8575 28.9444C21.851 28.9297 21.8481 28.9136 21.8492 28.8974L22.6822 23.6641C22.6893 23.6385 22.6893 23.6112 22.6822 23.5856L19.0254 19.8351C19.0145 19.824 19.0066 19.8101 19.0028 19.7947C18.9989 19.7793 18.9991 19.763 19.0034 19.7478C19.0077 19.7325 19.0159 19.7187 19.0271 19.708C19.0383 19.6973 19.0522 19.6899 19.0671 19.6868L24.1149 18.9193C24.1275 18.9186 24.1398 18.9141 24.1501 18.9064C24.1604 18.8987 24.1684 18.888 24.1732 18.8757L26.4305 14.0872C26.4305 14.0641 26.4393 14.0419 26.4549 14.0255C26.4705 14.0092 26.4917 14 26.5138 14C26.5359 14 26.5571 14.0092 26.5727 14.0255C26.5883 14.0419 26.5971 14.0641 26.5971 14.0872Z" stroke="#0022B2" stroke-width="1.4" stroke-linecap="round"/>
<path d="M16 35H39" stroke="#0022B2" stroke-width="1.4" stroke-linecap="round"/>
<path d="M16 40H39" stroke="#0022B2" stroke-width="1.4" stroke-linecap="round"/>
</svg>
