<svg width="68" height="32" viewBox="0 0 68 32" fill="none" xmlns="http://www.w3.org/2000/svg">
<path d="M44.1516 13.3493H46.6542V22.8185H44.1516V13.3493ZM47.2279 10.7997C47.2326 11.0407 47.1901 11.2803 47.1027 11.5048C47.0153 11.7293 46.8848 11.9343 46.7187 12.108C46.5525 12.2818 46.354 12.4209 46.1343 12.5175C45.9147 12.614 45.6783 12.6661 45.4386 12.6708C45.1987 12.6756 44.9602 12.6327 44.7368 12.5446C44.5134 12.4566 44.3094 12.3251 44.1366 12.1577C43.9638 11.9903 43.8255 11.7902 43.7296 11.569C43.6338 11.3478 43.5823 11.1097 43.578 10.8684C43.5737 10.6274 43.6166 10.3879 43.7043 10.1636C43.7921 9.93923 43.9229 9.73448 44.0893 9.561C44.2557 9.38752 44.4545 9.24871 44.6743 9.15251C44.8941 9.0563 45.1306 9.00458 45.3703 9.0003C45.8538 8.9915 46.321 9.17606 46.6693 9.51344C47.0176 9.85082 47.2185 10.3134 47.2279 10.7997ZM51.6148 10.8356H49.1122V13.3463H47.6529V15.612H49.1152V19.6442C49.0512 20.0672 49.0831 20.4993 49.2085 20.9082C49.3338 21.3171 49.5495 21.6922 49.8393 22.0055C50.1291 22.3188 50.4856 22.5622 50.8821 22.7175C51.2786 22.8727 51.7049 22.9359 52.129 22.9022C52.7252 22.9076 53.3165 22.7928 53.8678 22.5644V20.2181C53.5679 20.3257 53.2528 20.3843 52.9345 20.3914C52.7554 20.42 52.5721 20.4056 52.3996 20.3493C52.2271 20.2931 52.0702 20.1966 51.9418 20.0678C51.8134 19.939 51.7172 19.7815 51.6609 19.6081C51.6046 19.4348 51.5898 19.2505 51.6178 19.0703V15.609H53.8678V13.3463H51.6178L51.6148 10.8356ZM33.633 13.3463L37.2175 22.8215H39.8241L43.3462 13.3463H40.7158L38.4896 19.3453L36.2605 13.3493L33.633 13.3463ZM62.5733 14.6286C61.7758 13.8257 60.7261 13.3257 59.6031 13.2139C58.4801 13.1021 57.3533 13.3854 56.4147 14.0155C55.4762 14.6455 54.7839 15.5834 54.4558 16.6693C54.1278 17.7552 54.1844 18.9218 54.6158 19.9705C55.0473 21.0191 55.827 21.8848 56.8221 22.4201C57.8172 22.9554 58.966 23.1271 60.0729 22.906C61.1797 22.6849 62.1761 22.0846 62.8922 21.2075C63.6083 20.3304 63.9998 19.2307 64 18.0959C64.0003 17.452 63.8744 16.8144 63.6296 16.2195C63.3848 15.6246 63.0259 15.084 62.5733 14.6286ZM61.325 19.0015C61.1452 19.4386 60.8405 19.8121 60.4495 20.075C60.0585 20.3379 59.5988 20.4782 59.1285 20.4783C58.6582 20.4784 58.1984 20.3383 57.8073 20.0756C57.4162 19.8129 57.1114 19.4394 56.9313 19.0025C56.7513 18.5655 56.7042 18.0847 56.7959 17.6208C56.8876 17.1569 57.114 16.7308 57.4466 16.3963C57.7792 16.0619 58.2029 15.8341 58.6641 15.7419C59.1254 15.6496 59.6036 15.697 60.0381 15.878C60.472 16.0594 60.8428 16.366 61.1036 16.7591C61.3644 17.1523 61.5035 17.6143 61.5034 18.0869C61.5041 18.4006 61.4435 18.7114 61.325 19.0015ZM27.2696 9.34105L22.1395 22.8215H24.8977L25.9558 20.0088H31.4009L32.462 22.8245H35.1964L30.0872 9.34404L27.2696 9.34105ZM26.8951 17.5309L28.6784 12.7874L30.4617 17.5309H26.8951Z" fill="white"/>
<path d="M8.49665 23C10.9801 23 12.9933 20.9723 12.9933 18.4711C12.9933 15.9699 10.9801 13.9423 8.49665 13.9423C6.01322 13.9423 4 15.9699 4 18.4711C4 20.9723 6.01322 23 8.49665 23Z" fill="#04E061"/>
<path d="M16.2975 22.4285C17.7981 22.4285 19.0146 21.2032 19.0146 19.6918C19.0146 18.1804 17.7981 16.9552 16.2975 16.9552C14.7968 16.9552 13.5803 18.1804 13.5803 19.6918C13.5803 21.2032 14.7968 22.4285 16.2975 22.4285Z" fill="#FF4053"/>
<path d="M9.35678 13.3519C10.2854 13.3519 11.0382 12.5937 11.0382 11.6584C11.0382 10.7231 10.2854 9.96494 9.35678 9.96494C8.42816 9.96494 7.67536 10.7231 7.67536 11.6584C7.67536 12.5937 8.42816 13.3519 9.35678 13.3519Z" fill="#965EEB"/>
<path d="M15.2417 16.3643C17.2608 16.3643 18.8977 14.7157 18.8977 12.6821C18.8977 10.6485 17.2608 9 15.2417 9C13.2226 9 11.5858 10.6485 11.5858 12.6821C11.5858 14.7157 13.2226 16.3643 15.2417 16.3643Z" fill="#00AAFF"/>
</svg>
