<svg width="32" height="32" viewBox="0 0 32 32" fill="none" xmlns="http://www.w3.org/2000/svg">
<path d="M16 5C13.0833 5 10.2834 6.15964 8.22266 8.2218C6.15976 10.2848 5.00059 13.0826 5 16C5 18.9162 6.16016 21.716 8.22266 23.7782C10.2834 25.8404 13.0833 27 16 27C18.9167 27 21.7166 25.8404 23.7773 23.7782C25.8398 21.716 27 18.9162 27 16C27 13.0838 25.8398 10.284 23.7773 8.2218C21.7166 6.15964 18.9167 5 16 5Z" fill="url(#paint0_linear_206_3183)"/>
<path d="M10.1618 15.8873C13.2718 14.5327 15.3451 13.6396 16.3818 13.208C19.3451 11.9758 19.9601 11.7618 20.3618 11.7546C20.4501 11.7532 20.6468 11.775 20.7751 11.8787C20.8818 11.9662 20.9118 12.0846 20.9268 12.1677C20.9401 12.2507 20.9585 12.4398 20.9435 12.5875C20.7835 14.2742 20.0885 18.3672 19.7351 20.2563C19.5868 21.0557 19.2918 21.3237 19.0068 21.3498C18.3868 21.4068 17.9168 20.9405 17.3168 20.5473C16.3785 19.9318 15.8485 19.5488 14.9368 18.9483C13.8835 18.2543 14.5668 17.8728 15.1668 17.2495C15.3235 17.0863 18.0535 14.6038 18.1051 14.3787C18.1118 14.3505 18.1185 14.2455 18.0551 14.1902C17.9935 14.1347 17.9018 14.1537 17.8351 14.1687C17.7401 14.19 16.2418 15.1813 13.3351 17.1425C12.9101 17.4348 12.5251 17.5773 12.1785 17.5698C11.7985 17.5617 11.0651 17.3545 10.5201 17.1775C9.85345 16.9603 9.32179 16.8455 9.36845 16.4767C9.39179 16.2847 9.65679 16.0882 10.1618 15.8873Z" fill="white"/>
<defs>
<linearGradient id="paint0_linear_206_3183" x1="1105" y1="5" x2="1105" y2="2205" gradientUnits="userSpaceOnUse">
<stop stop-color="#2AABEE"/>
<stop offset="1" stop-color="#229ED9"/>
</linearGradient>
</defs>
</svg>
