<svg width="23" height="29" viewBox="0 0 23 29" fill="none" xmlns="http://www.w3.org/2000/svg">
<path d="M4.152 28.7143H18.3749C21.1474 28.7143 22.5269 27.308 22.5269 24.5223V12.3617H12.8303C11.116 12.3617 10.3126 11.5446 10.3126 9.83029V0H4.152C1.39314 0 0 1.41943 0 4.20571V24.5223C0 27.3211 1.39314 28.7143 4.152 28.7143ZM12.8709 10.5269H22.3794C22.2857 9.97771 21.8971 9.44171 21.268 8.78571L13.8749 1.27257C13.2589 0.629714 12.6966 0.241143 12.1337 0.146857V9.804C12.1337 10.2857 12.3886 10.5269 12.8709 10.5269ZM6.10743 18.1611C5.55829 18.1611 5.16971 17.7726 5.16971 17.2503C5.16971 16.7274 5.55829 16.3394 6.10686 16.3394H16.4326C16.9686 16.3394 17.384 16.728 17.384 17.2497C17.384 17.7726 16.9686 18.1606 16.4331 18.1606L6.10743 18.1611ZM6.10743 23.2634C5.55829 23.2634 5.16971 22.8749 5.16971 22.3526C5.16971 21.8303 5.55829 21.4417 6.10686 21.4417H16.4326C16.9686 21.4417 17.384 21.8303 17.384 22.3526C17.384 22.8749 16.9686 23.2634 16.4331 23.2634H6.10743Z" fill="#F60114"/>
</svg>
